# MagicaVoxel @ Ephtracy

# group
o 

# material
mtllib MalePelvis.mtl
usemtl palette

# normals
vn -1 0 0
vn 1 0 0
vn 0 0 1
vn 0 0 -1
vn 0 -1 0
vn 0 1 0

# texcoords
vt 0.0214844 0.5
vt 0.0253906 0.5
vt 0.0292969 0.5
vt 0.0371094 0.5
vt 0.0449219 0.5
vt 0.0605469 0.5
vt 0.0644531 0.5
vt 0.0683594 0.5
vt 0.978516 0.5

# verts
v -0.4 -0.1 0.2
v -0.4 -0.1 0
v -0.4 -0.1 -0.1
v -0.4 -0.1 -0.3
v -0.4 0 0.2
v -0.4 0 0
v -0.4 0 -0.1
v -0.4 0 -0.3
v -0.3 -0.3 0.1
v -0.3 -0.3 0
v -0.3 -0.3 -0.1
v -0.3 -0.3 -0.2
v -0.3 -0.1 0.3
v -0.3 -0.1 0.2
v -0.3 -0.1 0.1
v -0.3 -0.1 0
v -0.3 -0.1 -0.1
v -0.3 -0.1 -0.2
v -0.3 -0.1 -0.3
v -0.3 -0.1 -0.4
v -0.3 0 0.3
v -0.3 0 0.2
v -0.3 0 -0.3
v -0.3 0 -0.4
v -0.2 -0.3 0.2
v -0.2 -0.3 0.1
v -0.2 -0.3 0
v -0.2 -0.3 -0.1
v -0.2 -0.3 -0.2
v -0.2 -0.3 -0.3
v -0.2 -0.1 0.4
v -0.2 -0.1 0.3
v -0.2 -0.1 0.2
v -0.2 -0.1 0.1
v -0.2 -0.1 0
v -0.2 -0.1 -0.1
v -0.2 -0.1 -0.2
v -0.2 -0.1 -0.3
v -0.2 -0.1 -0.4
v -0.2 -0.1 -0.5
v -0.2 0 0.4
v -0.2 0 0.3
v -0.2 0 -0.4
v -0.2 0 -0.5
v -0.1 -0.1 0.5
v -0.1 -0.1 0.4
v -0.1 -0.1 -0.5
v -0.1 -0.1 -0.6
v -0.1 0 0.5
v -0.1 0 0.4
v -0.1 0 -0.5
v -0.1 0 -0.6
v 0.3 -0.3 0.2
v 0.3 -0.3 0.1
v 0.3 -0.3 -0.2
v 0.3 -0.3 -0.3
v 0.3 -0.1 0.5
v 0.3 -0.1 0.4
v 0.3 -0.1 0.2
v 0.3 -0.1 0.1
v 0.3 -0.1 -0.2
v 0.3 -0.1 -0.3
v 0.3 -0.1 -0.5
v 0.3 -0.1 -0.6
v 0.3 0 0.5
v 0.3 0 0.4
v 0.3 0 -0.5
v 0.3 0 -0.6
v 0.4 -0.3 0.1
v 0.4 -0.3 0
v 0.4 -0.3 -0.1
v 0.4 -0.3 -0.2
v 0.4 -0.1 0.4
v 0.4 -0.1 0.2
v 0.4 -0.1 0.1
v 0.4 -0.1 0
v 0.4 -0.1 -0.1
v 0.4 -0.1 -0.2
v 0.4 -0.1 -0.3
v 0.4 -0.1 -0.5
v 0.4 0 0.4
v 0.4 0 0.2
v 0.4 0 0
v 0.4 0 -0.1
v 0.4 0 -0.3
v 0.4 0 -0.5
v -0.1 -0.1 0.5
v -0.1 0 0.5
v 0.2 -0.1 0.5
v 0.2 0 0.5
v 0.3 -0.1 0.5
v 0.3 0 0.5
v -0.2 -0.1 0.4
v -0.2 0 0.4
v -0.1 -0.1 0.4
v -0.1 0 0.4
v 0.3 -0.1 0.4
v 0.3 0 0.4
v 0.4 -0.1 0.4
v 0.4 0 0.4
v -0.3 -0.1 0.3
v -0.3 0 0.3
v -0.2 -0.1 0.3
v -0.2 0 0.3
v -0.4 -0.1 0.2
v -0.4 0 0.2
v -0.3 -0.1 0.2
v -0.3 0 0.2
v -0.2 -0.3 0.2
v -0.2 -0.1 0.2
v 0.2 -0.3 0.2
v 0.2 -0.1 0.2
v 0.3 -0.3 0.2
v 0.3 -0.1 0.2
v -0.3 -0.3 0.1
v -0.3 -0.1 0.1
v -0.2 -0.3 0.1
v -0.2 -0.1 0.1
v 0.3 -0.3 0.1
v 0.3 -0.1 0.1
v 0.4 -0.3 0.1
v 0.4 -0.1 0.1
v -0.3 -0.3 -0.1
v -0.3 -0.1 -0.1
v -0.2 -0.3 -0.1
v -0.2 -0.1 -0.1
v -0.3 -0.3 0
v -0.3 -0.1 0
v -0.2 -0.3 0
v -0.2 -0.1 0
v -0.3 -0.3 -0.2
v -0.3 -0.1 -0.2
v -0.2 -0.3 -0.2
v -0.2 -0.1 -0.2
v 0.3 -0.3 -0.2
v 0.3 -0.1 -0.2
v 0.4 -0.3 -0.2
v 0.4 -0.1 -0.2
v -0.4 -0.1 -0.3
v -0.4 0 -0.3
v -0.3 -0.1 -0.3
v -0.3 0 -0.3
v -0.2 -0.3 -0.3
v -0.2 -0.1 -0.3
v 0.2 -0.3 -0.3
v 0.2 -0.1 -0.3
v 0.3 -0.3 -0.3
v 0.3 -0.1 -0.3
v -0.3 -0.1 -0.4
v -0.3 0 -0.4
v -0.2 -0.1 -0.4
v -0.2 0 -0.4
v -0.2 -0.1 -0.5
v -0.2 0 -0.5
v -0.1 -0.1 -0.5
v -0.1 0 -0.5
v 0.3 -0.1 -0.5
v 0.3 0 -0.5
v 0.4 -0.1 -0.5
v 0.4 0 -0.5
v -0.1 -0.1 -0.6
v -0.1 0 -0.6
v 0.2 -0.1 -0.6
v 0.2 0 -0.6
v 0.3 -0.1 -0.6
v 0.3 0 -0.6
v -0.2 -0.3 0.2
v 0.2 -0.3 0.2
v 0.3 -0.3 0.2
v -0.3 -0.3 0.1
v -0.2 -0.3 0.1
v 0.2 -0.3 0.1
v 0.3 -0.3 0.1
v 0.4 -0.3 0.1
v -0.3 -0.3 0
v -0.2 -0.3 0
v 0 -0.3 0
v 0.2 -0.3 0
v 0.4 -0.3 0
v -0.3 -0.3 -0.1
v -0.2 -0.3 -0.1
v 0 -0.3 -0.1
v 0.2 -0.3 -0.1
v 0.4 -0.3 -0.1
v -0.3 -0.3 -0.2
v -0.2 -0.3 -0.2
v 0.2 -0.3 -0.2
v 0.3 -0.3 -0.2
v 0.4 -0.3 -0.2
v -0.2 -0.3 -0.3
v 0.2 -0.3 -0.3
v 0.3 -0.3 -0.3
v -0.1 -0.1 0.5
v 0.2 -0.1 0.5
v 0.3 -0.1 0.5
v -0.2 -0.1 0.4
v -0.1 -0.1 0.4
v 0.3 -0.1 0.4
v 0.4 -0.1 0.4
v -0.3 -0.1 0.3
v -0.2 -0.1 0.3
v 0.2 -0.1 0.3
v -0.4 -0.1 0.2
v -0.3 -0.1 0.2
v -0.2 -0.1 0.2
v 0.2 -0.1 0.2
v 0.3 -0.1 0.2
v 0.4 -0.1 0.2
v -0.3 -0.1 0.1
v -0.2 -0.1 0.1
v 0.3 -0.1 0.1
v 0.4 -0.1 0.1
v -0.4 -0.1 0
v -0.3 -0.1 0
v -0.2 -0.1 0
v -0.4 -0.1 -0.1
v -0.3 -0.1 -0.1
v -0.2 -0.1 -0.1
v -0.3 -0.1 -0.2
v -0.2 -0.1 -0.2
v 0.3 -0.1 -0.2
v 0.4 -0.1 -0.2
v -0.4 -0.1 -0.3
v -0.3 -0.1 -0.3
v -0.2 -0.1 -0.3
v 0.2 -0.1 -0.3
v 0.3 -0.1 -0.3
v 0.4 -0.1 -0.3
v -0.3 -0.1 -0.4
v -0.2 -0.1 -0.4
v 0.2 -0.1 -0.4
v -0.2 -0.1 -0.5
v -0.1 -0.1 -0.5
v 0.3 -0.1 -0.5
v 0.4 -0.1 -0.5
v -0.1 -0.1 -0.6
v 0.2 -0.1 -0.6
v 0.3 -0.1 -0.6
v -0.1 0 0.5
v 0.2 0 0.5
v 0.3 0 0.5
v -0.2 0 0.4
v -0.1 0 0.4
v 0.3 0 0.4
v 0.4 0 0.4
v -0.3 0 0.3
v -0.2 0 0.3
v 0.2 0 0.3
v -0.4 0 0.2
v -0.3 0 0.2
v -0.2 0 0.2
v 0.2 0 0.2
v 0.4 0 0.2
v -0.4 0 0
v -0.2 0 0
v 0.2 0 0
v 0.4 0 0
v -0.4 0 -0.1
v -0.2 0 -0.1
v 0.2 0 -0.1
v 0.4 0 -0.1
v -0.4 0 -0.3
v -0.3 0 -0.3
v -0.2 0 -0.3
v 0.2 0 -0.3
v 0.4 0 -0.3
v -0.3 0 -0.4
v -0.2 0 -0.4
v 0.2 0 -0.4
v -0.2 0 -0.5
v -0.1 0 -0.5
v 0.3 0 -0.5
v 0.4 0 -0.5
v -0.1 0 -0.6
v 0.2 0 -0.6
v 0.3 0 -0.6

# faces
f 5/2/1 2/2/1 1/2/1
f 6/4/1 3/4/1 2/4/1
f 6/2/1 2/2/1 5/2/1
f 7/2/1 4/2/1 3/2/1
f 7/4/1 3/4/1 6/4/1
f 8/2/1 4/2/1 7/2/1
f 15/3/1 10/3/1 9/3/1
f 16/3/1 10/3/1 15/3/1
f 17/3/1 12/3/1 11/3/1
f 18/3/1 12/3/1 17/3/1
f 21/1/1 14/1/1 13/1/1
f 22/1/1 14/1/1 21/1/1
f 23/1/1 20/1/1 19/1/1
f 24/1/1 20/1/1 23/1/1
f 33/3/1 26/3/1 25/3/1
f 34/3/1 26/3/1 33/3/1
f 35/2/1 28/2/1 27/2/1
f 36/2/1 28/2/1 35/2/1
f 37/3/1 30/3/1 29/3/1
f 38/3/1 30/3/1 37/3/1
f 41/4/1 32/4/1 31/4/1
f 42/4/1 32/4/1 41/4/1
f 43/4/1 40/4/1 39/4/1
f 44/4/1 40/4/1 43/4/1
f 49/4/1 46/4/1 45/4/1
f 50/4/1 46/4/1 49/4/1
f 51/4/1 48/4/1 47/4/1
f 52/4/1 48/4/1 51/4/1
f 53/9/2 54/9/2 59/9/2
f 59/9/2 54/9/2 60/9/2
f 55/9/2 56/9/2 61/9/2
f 61/9/2 56/9/2 62/9/2
f 57/1/2 58/1/2 65/1/2
f 65/1/2 58/1/2 66/1/2
f 63/1/2 64/1/2 67/1/2
f 67/1/2 64/1/2 68/1/2
f 69/7/2 70/7/2 75/7/2
f 70/3/2 71/3/2 76/3/2
f 75/7/2 70/7/2 76/7/2
f 71/7/2 72/7/2 77/7/2
f 76/3/2 71/3/2 77/3/2
f 77/7/2 72/7/2 78/7/2
f 73/1/2 74/1/2 81/1/2
f 74/6/2 75/6/2 82/6/2
f 81/1/2 74/1/2 82/1/2
f 75/6/2 76/6/2 82/6/2
f 76/8/2 77/8/2 83/8/2
f 82/6/2 76/6/2 83/6/2
f 78/6/2 79/6/2 84/6/2
f 83/8/2 77/8/2 84/8/2
f 77/6/2 78/6/2 84/6/2
f 79/1/2 80/1/2 85/1/2
f 84/6/2 79/6/2 85/6/2
f 85/1/2 80/1/2 86/1/2
f 89/4/3 88/4/3 87/4/3
f 90/4/3 88/4/3 89/4/3
f 91/1/3 90/1/3 89/1/3
f 92/1/3 90/1/3 91/1/3
f 95/4/3 94/4/3 93/4/3
f 96/4/3 94/4/3 95/4/3
f 99/1/3 98/1/3 97/1/3
f 100/1/3 98/1/3 99/1/3
f 103/1/3 102/1/3 101/1/3
f 104/1/3 102/1/3 103/1/3
f 107/2/3 106/2/3 105/2/3
f 108/2/3 106/2/3 107/2/3
f 111/3/3 110/3/3 109/3/3
f 112/3/3 110/3/3 111/3/3
f 113/9/3 112/9/3 111/9/3
f 114/9/3 112/9/3 113/9/3
f 117/3/3 116/3/3 115/3/3
f 118/3/3 116/3/3 117/3/3
f 121/7/3 120/7/3 119/7/3
f 122/7/3 120/7/3 121/7/3
f 125/3/3 124/3/3 123/3/3
f 126/3/3 124/3/3 125/3/3
f 127/3/4 128/3/4 129/3/4
f 129/3/4 128/3/4 130/3/4
f 131/3/4 132/3/4 133/3/4
f 133/3/4 132/3/4 134/3/4
f 135/7/4 136/7/4 137/7/4
f 137/7/4 136/7/4 138/7/4
f 139/2/4 140/2/4 141/2/4
f 141/2/4 140/2/4 142/2/4
f 143/3/4 144/3/4 145/3/4
f 145/3/4 144/3/4 146/3/4
f 145/9/4 146/9/4 147/9/4
f 147/9/4 146/9/4 148/9/4
f 149/1/4 150/1/4 151/1/4
f 151/1/4 150/1/4 152/1/4
f 153/4/4 154/4/4 155/4/4
f 155/4/4 154/4/4 156/4/4
f 157/1/4 158/1/4 159/1/4
f 159/1/4 158/1/4 160/1/4
f 161/4/4 162/4/4 163/4/4
f 163/4/4 162/4/4 164/4/4
f 163/1/4 164/1/4 165/1/4
f 165/1/4 164/1/4 166/1/4
f 171/3/5 168/3/5 167/3/5
f 172/9/5 169/9/5 168/9/5
f 172/3/5 168/3/5 171/3/5
f 173/9/5 169/9/5 172/9/5
f 175/3/5 171/3/5 170/3/5
f 175/3/5 172/3/5 171/3/5
f 176/3/5 172/3/5 175/3/5
f 177/3/5 172/3/5 176/3/5
f 178/7/5 174/7/5 173/7/5
f 178/3/5 172/3/5 177/3/5
f 178/7/5 173/7/5 172/7/5
f 179/7/5 174/7/5 178/7/5
f 181/2/5 177/2/5 176/2/5
f 182/3/5 179/3/5 178/3/5
f 182/3/5 178/3/5 177/3/5
f 182/2/5 177/2/5 181/2/5
f 183/3/5 179/3/5 182/3/5
f 184/3/5 179/3/5 183/3/5
f 185/3/5 181/3/5 180/3/5
f 185/3/5 182/3/5 181/3/5
f 185/3/5 183/3/5 182/3/5
f 186/3/5 183/3/5 185/3/5
f 187/7/5 184/7/5 183/7/5
f 187/3/5 183/3/5 186/3/5
f 188/7/5 184/7/5 187/7/5
f 189/7/5 184/7/5 188/7/5
f 190/3/5 187/3/5 186/3/5
f 191/9/5 188/9/5 187/9/5
f 191/3/5 187/3/5 190/3/5
f 192/9/5 188/9/5 191/9/5
f 197/4/5 194/4/5 193/4/5
f 198/1/5 195/1/5 194/1/5
f 201/4/5 197/4/5 196/4/5
f 202/1/5 199/1/5 198/1/5
f 202/4/5 194/4/5 197/4/5
f 202/4/5 197/4/5 201/4/5
f 202/1/5 198/1/5 194/1/5
f 204/1/5 201/1/5 200/1/5
f 204/1/5 202/1/5 201/1/5
f 205/1/5 202/1/5 204/1/5
f 206/1/5 199/1/5 202/1/5
f 206/1/5 202/1/5 205/1/5
f 207/1/5 199/1/5 206/1/5
f 208/1/5 199/1/5 207/1/5
f 209/2/5 205/2/5 204/2/5
f 209/2/5 204/2/5 203/2/5
f 210/2/5 205/2/5 209/2/5
f 211/6/5 208/6/5 207/6/5
f 212/6/5 208/6/5 211/6/5
f 213/2/5 209/2/5 203/2/5
f 214/2/5 209/2/5 213/2/5
f 216/4/5 214/4/5 213/4/5
f 216/4/5 215/4/5 214/4/5
f 217/4/5 215/4/5 216/4/5
f 218/4/5 215/4/5 217/4/5
f 219/2/5 217/2/5 216/2/5
f 223/2/5 220/2/5 219/2/5
f 223/2/5 219/2/5 216/2/5
f 224/2/5 220/2/5 223/2/5
f 225/2/5 220/2/5 224/2/5
f 227/6/5 222/6/5 221/6/5
f 228/6/5 222/6/5 227/6/5
f 229/1/5 226/1/5 225/1/5
f 229/1/5 228/1/5 227/1/5
f 229/1/5 227/1/5 226/1/5
f 229/1/5 225/1/5 224/1/5
f 230/1/5 228/1/5 229/1/5
f 231/1/5 228/1/5 230/1/5
f 232/4/5 231/4/5 230/4/5
f 233/4/5 231/4/5 232/4/5
f 234/1/5 228/1/5 231/1/5
f 235/1/5 228/1/5 234/1/5
f 236/4/5 231/4/5 233/4/5
f 237/1/5 234/1/5 231/1/5
f 237/4/5 231/4/5 236/4/5
f 238/1/5 234/1/5 237/1/5
f 239/4/6 240/4/6 243/4/6
f 240/1/6 241/1/6 244/1/6
f 242/4/6 243/4/6 247/4/6
f 244/1/6 245/1/6 248/1/6
f 243/4/6 240/4/6 248/4/6
f 247/4/6 243/4/6 248/4/6
f 240/1/6 244/1/6 248/1/6
f 246/1/6 247/1/6 250/1/6
f 247/1/6 248/1/6 250/1/6
f 250/1/6 248/1/6 251/1/6
f 248/1/6 245/1/6 252/1/6
f 251/1/6 248/1/6 252/1/6
f 252/1/6 245/1/6 253/1/6
f 250/2/6 251/2/6 254/2/6
f 249/2/6 250/2/6 254/2/6
f 251/5/6 252/5/6 255/5/6
f 254/2/6 251/2/6 255/2/6
f 252/6/6 253/6/6 256/6/6
f 255/5/6 252/5/6 256/5/6
f 256/6/6 253/6/6 257/6/6
f 254/4/6 255/4/6 258/4/6
f 255/5/6 256/5/6 259/5/6
f 258/4/6 255/4/6 259/4/6
f 256/8/6 257/8/6 260/8/6
f 259/5/6 256/5/6 260/5/6
f 260/8/6 257/8/6 261/8/6
f 258/2/6 259/2/6 262/2/6
f 262/2/6 259/2/6 263/2/6
f 259/5/6 260/5/6 264/5/6
f 263/2/6 259/2/6 264/2/6
f 260/6/6 261/6/6 265/6/6
f 264/5/6 260/5/6 265/5/6
f 265/6/6 261/6/6 266/6/6
f 263/1/6 264/1/6 267/1/6
f 265/1/6 266/1/6 267/1/6
f 264/1/6 265/1/6 267/1/6
f 267/1/6 266/1/6 268/1/6
f 268/1/6 266/1/6 269/1/6
f 268/4/6 269/4/6 270/4/6
f 270/4/6 269/4/6 271/4/6
f 269/1/6 266/1/6 272/1/6
f 272/1/6 266/1/6 273/1/6
f 271/4/6 269/4/6 274/4/6
f 269/1/6 272/1/6 275/1/6
f 274/4/6 269/4/6 275/4/6
f 275/1/6 272/1/6 276/1/6
