# MagicaVoxel @ Ephtracy

# group
o 

# material
mtllib HandLeft.mtl
usemtl palette

# normals
vn -1 0 0
vn 1 0 0
vn 0 0 1
vn 0 0 -1
vn 0 -1 0
vn 0 1 0

# texcoords
vt 0.00585938 0.5
vt 0.00976562 0.5
vt 0.978516 0.5

# verts
v -0.3 -0.5 -0.1
v -0.3 -0.5 -0.4
v -0.3 -0.4 0
v -0.3 -0.4 -0.1
v -0.3 -0.3 -0.1
v -0.3 -0.3 -0.3
v -0.3 -0.3 -0.4
v -0.3 -0.2 0
v -0.3 -0.2 -0.1
v -0.3 -0.1 -0.1
v -0.3 -0.1 -0.3
v -0.2 -0.5 0
v -0.2 -0.5 -0.1
v -0.2 -0.4 0
v -0.2 -0.4 -0.1
v -0.1 -0.3 -0.3
v -0.1 -0.3 -0.4
v -0.1 -0.1 -0.3
v -0.1 -0.1 -0.4
v 0 -0.5 0
v 0 -0.5 -0.1
v 0 -0.4 0
v 0 -0.4 -0.1
v -0.1 -0.5 0
v -0.1 -0.5 -0.1
v -0.1 -0.4 0
v -0.1 -0.4 -0.1
v 0 -0.3 -0.3
v 0 -0.3 -0.4
v 0 -0.2 -0.3
v 0 -0.1 -0.3
v 0 -0.1 -0.4
v 0.1 -0.5 0
v 0.1 -0.5 -0.4
v 0.1 -0.3 -0.1
v 0.1 -0.3 -0.3
v 0.1 -0.3 -0.4
v 0.1 -0.2 0
v 0.1 -0.2 -0.1
v 0.1 -0.2 -0.3
v 0.1 -0.1 -0.1
v 0.1 -0.1 -0.3
v -0.3 -0.4 0
v -0.3 -0.2 0
v -0.2 -0.5 0
v -0.2 -0.4 0
v -0.1 -0.5 0
v -0.1 -0.4 0
v 0 -0.5 0
v 0 -0.4 0
v 0.1 -0.5 0
v 0.1 -0.2 0
v -0.3 -0.5 -0.1
v -0.3 -0.4 -0.1
v -0.3 -0.2 -0.1
v -0.3 -0.1 -0.1
v -0.2 -0.5 -0.1
v -0.2 -0.4 -0.1
v -0.1 -0.5 -0.1
v -0.1 -0.4 -0.1
v -0.1 -0.2 -0.1
v -0.1 -0.1 -0.1
v 0 -0.5 -0.1
v 0 -0.4 -0.1
v 0 -0.2 -0.1
v 0 -0.1 -0.1
v 0.1 -0.2 -0.1
v 0.1 -0.1 -0.1
v -0.3 -0.3 -0.3
v -0.3 -0.1 -0.3
v -0.1 -0.3 -0.3
v -0.1 -0.1 -0.3
v 0 -0.3 -0.3
v 0 -0.2 -0.3
v 0 -0.1 -0.3
v 0.1 -0.3 -0.3
v 0.1 -0.2 -0.3
v 0.1 -0.1 -0.3
v -0.3 -0.5 -0.4
v -0.3 -0.3 -0.4
v -0.1 -0.3 -0.4
v -0.1 -0.1 -0.4
v 0 -0.3 -0.4
v 0 -0.1 -0.4
v 0.1 -0.5 -0.4
v 0.1 -0.3 -0.4
v -0.2 -0.5 0
v -0.1 -0.5 0
v 0 -0.5 0
v 0.1 -0.5 0
v -0.3 -0.5 -0.1
v -0.2 -0.5 -0.1
v -0.1 -0.5 -0.1
v 0 -0.5 -0.1
v -0.3 -0.5 -0.4
v 0.1 -0.5 -0.4
v -0.3 -0.4 0
v -0.2 -0.4 0
v -0.1 -0.4 0
v 0 -0.4 0
v -0.3 -0.4 -0.1
v -0.2 -0.4 -0.1
v -0.1 -0.4 -0.1
v 0 -0.4 -0.1
v -0.3 -0.3 -0.3
v -0.1 -0.3 -0.3
v 0 -0.3 -0.3
v 0.1 -0.3 -0.3
v -0.3 -0.3 -0.4
v -0.1 -0.3 -0.4
v 0 -0.3 -0.4
v 0.1 -0.3 -0.4
v -0.3 -0.2 0
v 0.1 -0.2 0
v -0.3 -0.2 -0.1
v -0.1 -0.2 -0.1
v 0 -0.2 -0.1
v 0.1 -0.2 -0.1
v -0.3 -0.1 -0.1
v -0.1 -0.1 -0.1
v 0 -0.1 -0.1
v 0.1 -0.1 -0.1
v -0.3 -0.1 -0.3
v -0.1 -0.1 -0.3
v 0 -0.1 -0.3
v 0.1 -0.1 -0.3
v -0.1 -0.1 -0.4
v 0 -0.1 -0.4

# faces
f 4/3/1 2/3/1 1/3/1
f 5/3/1 2/3/1 4/3/1
f 5/3/1 4/3/1 3/3/1
f 6/3/1 2/3/1 5/3/1
f 7/3/1 2/3/1 6/3/1
f 8/3/1 5/3/1 3/3/1
f 9/1/1 6/1/1 5/1/1
f 9/3/1 5/3/1 8/3/1
f 10/1/1 6/1/1 9/1/1
f 11/1/1 6/1/1 10/1/1
f 14/3/1 13/3/1 12/3/1
f 15/3/1 13/3/1 14/3/1
f 18/2/1 17/2/1 16/2/1
f 19/2/1 17/2/1 18/2/1
f 22/3/1 21/3/1 20/3/1
f 23/3/1 21/3/1 22/3/1
f 24/3/2 25/3/2 26/3/2
f 26/3/2 25/3/2 27/3/2
f 28/2/2 29/2/2 30/2/2
f 30/2/2 29/2/2 31/2/2
f 31/2/2 29/2/2 32/2/2
f 33/3/2 34/3/2 35/3/2
f 35/3/2 34/3/2 36/3/2
f 36/3/2 34/3/2 37/3/2
f 33/3/2 35/3/2 38/3/2
f 35/2/2 36/2/2 39/2/2
f 38/3/2 35/3/2 39/3/2
f 39/2/2 36/2/2 40/2/2
f 39/1/2 40/1/2 41/1/2
f 41/1/2 40/1/2 42/1/2
f 46/3/3 44/3/3 43/3/3
f 47/3/3 46/3/3 45/3/3
f 48/3/3 44/3/3 46/3/3
f 48/3/3 46/3/3 47/3/3
f 50/3/3 44/3/3 48/3/3
f 51/3/3 50/3/3 49/3/3
f 52/3/3 44/3/3 50/3/3
f 52/3/3 50/3/3 51/3/3
f 57/3/3 54/3/3 53/3/3
f 58/3/3 54/3/3 57/3/3
f 61/1/3 56/1/3 55/1/3
f 62/1/3 56/1/3 61/1/3
f 63/3/3 60/3/3 59/3/3
f 64/3/3 60/3/3 63/3/3
f 65/2/3 62/2/3 61/2/3
f 66/2/3 62/2/3 65/2/3
f 67/1/3 66/1/3 65/1/3
f 68/1/3 66/1/3 67/1/3
f 69/1/4 70/1/4 71/1/4
f 71/1/4 70/1/4 72/1/4
f 73/2/4 74/2/4 76/2/4
f 74/1/4 75/1/4 77/1/4
f 76/2/4 74/2/4 77/2/4
f 77/1/4 75/1/4 78/1/4
f 79/3/4 80/3/4 81/3/4
f 79/3/4 81/3/4 83/3/4
f 81/2/4 82/2/4 83/2/4
f 83/2/4 82/2/4 84/2/4
f 79/3/4 83/3/4 85/3/4
f 85/3/4 83/3/4 86/3/4
f 92/3/5 88/3/5 87/3/5
f 93/3/5 88/3/5 92/3/5
f 94/3/5 90/3/5 89/3/5
f 95/3/5 93/3/5 92/3/5
f 95/3/5 94/3/5 93/3/5
f 95/3/5 92/3/5 91/3/5
f 96/3/5 90/3/5 94/3/5
f 96/3/5 94/3/5 95/3/5
f 101/3/5 98/3/5 97/3/5
f 102/3/5 98/3/5 101/3/5
f 103/3/5 100/3/5 99/3/5
f 104/3/5 100/3/5 103/3/5
f 105/3/6 106/3/6 109/3/6
f 109/3/6 106/3/6 110/3/6
f 107/3/6 108/3/6 111/3/6
f 111/3/6 108/3/6 112/3/6
f 113/3/6 114/3/6 115/3/6
f 115/3/6 114/3/6 116/3/6
f 116/3/6 114/3/6 117/3/6
f 117/3/6 114/3/6 118/3/6
f 119/1/6 120/1/6 123/1/6
f 120/2/6 121/2/6 124/2/6
f 123/1/6 120/1/6 124/1/6
f 121/1/6 122/1/6 125/1/6
f 124/2/6 121/2/6 125/2/6
f 125/1/6 122/1/6 126/1/6
f 124/2/6 125/2/6 127/2/6
f 127/2/6 125/2/6 128/2/6
