# MagicaVoxel @ Ephtracy

# group
o 

# material
mtllib MaleCalfLeft.mtl
usemtl palette

# normals
vn -1 0 0
vn 1 0 0
vn 0 0 1
vn 0 0 -1
vn 0 -1 0
vn 0 1 0

# texcoords
vt 0.00195312 0.5
vt 0.00585938 0.5
vt 0.00976562 0.5
vt 0.0136719 0.5
vt 0.0253906 0.5
vt 0.0292969 0.5
vt 0.0332031 0.5
vt 0.0566406 0.5
vt 0.978516 0.5

# verts
v -0.2 0.2 -0.1
v -0.2 0.2 -0.2
v -0.2 0.2 -0.3
v -0.2 0.4 -0.1
v -0.2 0.4 -0.2
v -0.2 0.4 -0.3
v -0.2 0.5 -0.1
v -0.2 0.5 -0.2
v -0.2 0.5 -0.3
v -0.1 0 0
v -0.1 0 -0.2
v -0.1 0.1 0
v -0.1 0.1 -0.2
v -0.1 0.1 -0.3
v -0.1 0.2 -0.1
v -0.1 0.2 -0.2
v -0.1 0.2 -0.3
v -0.1 0.3 0
v -0.1 0.3 -0.1
v -0.1 0.4 0
v -0.1 0.4 -0.1
v -0.1 0.5 0
v -0.1 0.5 -0.1
v 0 0 -0.2
v 0 0 -0.3
v 0 0.1 -0.2
v 0 0.1 -0.3
v 0.1 0 -0.2
v 0.1 0 -0.3
v 0.1 0.3 -0.2
v 0.1 0.3 -0.3
v 0.2 0 0
v 0.2 0 -0.2
v 0.2 0.3 -0.2
v 0.2 0.3 -0.3
v 0.2 0.4 -0.1
v 0.2 0.4 -0.2
v 0.2 0.5 0
v 0.2 0.5 -0.1
v 0.2 0.5 -0.2
v 0.2 0.5 -0.3
v -0.1 0 0
v -0.1 0.1 0
v -0.1 0.3 0
v -0.1 0.4 0
v -0.1 0.5 0
v 0 0 0
v 0 0.1 0
v 0 0.3 0
v 0 0.4 0
v 0 0.5 0
v 0.1 0 0
v 0.1 0.3 0
v 0.1 0.4 0
v 0.1 0.5 0
v 0.2 0 0
v 0.2 0.5 0
v -0.2 0.2 -0.1
v -0.2 0.4 -0.1
v -0.2 0.5 -0.1
v -0.1 0.2 -0.1
v -0.1 0.3 -0.1
v -0.1 0.4 -0.1
v -0.1 0.5 -0.1
v -0.1 0 -0.2
v -0.1 0.1 -0.2
v 0 0 -0.2
v 0 0.1 -0.2
v 0.1 0 -0.2
v 0.1 0.3 -0.2
v 0.2 0 -0.2
v 0.2 0.3 -0.2
v -0.2 0.2 -0.3
v -0.2 0.4 -0.3
v -0.2 0.5 -0.3
v -0.1 0.1 -0.3
v -0.1 0.2 -0.3
v -0.1 0.3 -0.3
v -0.1 0.4 -0.3
v -0.1 0.5 -0.3
v 0 0 -0.3
v 0 0.1 -0.3
v 0 0.3 -0.3
v 0 0.4 -0.3
v 0 0.5 -0.3
v 0.1 0 -0.3
v 0.1 0.3 -0.3
v 0.1 0.4 -0.3
v 0.2 0.3 -0.3
v 0.2 0.5 -0.3
v -0.1 0 0
v 0 0 0
v 0.1 0 0
v 0.2 0 0
v -0.1 0 -0.2
v 0 0 -0.2
v 0.1 0 -0.2
v 0.2 0 -0.2
v 0 0 -0.3
v 0.1 0 -0.3
v -0.1 0.1 -0.2
v 0 0.1 -0.2
v -0.1 0.1 -0.3
v 0 0.1 -0.3
v -0.2 0.2 -0.1
v -0.1 0.2 -0.1
v -0.2 0.2 -0.2
v -0.1 0.2 -0.2
v -0.2 0.2 -0.3
v -0.1 0.2 -0.3
v 0.1 0.3 -0.2
v 0.2 0.3 -0.2
v 0.1 0.3 -0.3
v 0.2 0.3 -0.3
v -0.1 0.5 0
v 0 0.5 0
v 0.1 0.5 0
v 0.2 0.5 0
v -0.2 0.5 -0.1
v -0.1 0.5 -0.1
v 0.1 0.5 -0.1
v 0.2 0.5 -0.1
v -0.2 0.5 -0.2
v -0.1 0.5 -0.2
v 0 0.5 -0.2
v 0.2 0.5 -0.2
v -0.2 0.5 -0.3
v -0.1 0.5 -0.3
v 0 0.5 -0.3
v 0.2 0.5 -0.3

# faces
f 4/3/1 2/3/1 1/3/1
f 5/6/1 3/6/1 2/6/1
f 5/3/1 2/3/1 4/3/1
f 6/6/1 3/6/1 5/6/1
f 7/9/1 5/9/1 4/9/1
f 8/5/1 6/5/1 5/5/1
f 8/9/1 5/9/1 7/9/1
f 9/5/1 6/5/1 8/5/1
f 12/4/1 11/4/1 10/4/1
f 13/4/1 11/4/1 12/4/1
f 15/2/1 13/2/1 12/2/1
f 16/7/1 14/7/1 13/7/1
f 16/2/1 13/2/1 15/2/1
f 17/7/1 14/7/1 16/7/1
f 18/2/1 15/2/1 12/2/1
f 19/2/1 15/2/1 18/2/1
f 20/3/1 19/3/1 18/3/1
f 21/3/1 19/3/1 20/3/1
f 22/8/1 21/8/1 20/8/1
f 23/8/1 21/8/1 22/8/1
f 26/7/1 25/7/1 24/7/1
f 27/7/1 25/7/1 26/7/1
f 28/7/2 29/7/2 30/7/2
f 30/7/2 29/7/2 31/7/2
f 32/9/2 33/9/2 34/9/2
f 32/9/2 34/9/2 36/9/2
f 34/9/2 35/9/2 36/9/2
f 36/9/2 35/9/2 37/9/2
f 32/9/2 36/9/2 38/9/2
f 36/1/2 37/1/2 39/1/2
f 38/9/2 36/9/2 39/9/2
f 37/9/2 35/9/2 40/9/2
f 39/1/2 37/1/2 40/1/2
f 40/9/2 35/9/2 41/9/2
f 47/4/3 43/4/3 42/4/3
f 48/2/3 44/2/3 43/2/3
f 48/4/3 43/4/3 47/4/3
f 49/3/3 45/3/3 44/3/3
f 49/2/3 44/2/3 48/2/3
f 50/8/3 46/8/3 45/8/3
f 50/3/3 45/3/3 49/3/3
f 51/8/3 46/8/3 50/8/3
f 52/2/3 49/2/3 48/2/3
f 52/2/3 48/2/3 47/2/3
f 53/8/3 50/8/3 49/8/3
f 53/2/3 49/2/3 52/2/3
f 54/1/3 51/1/3 50/1/3
f 54/8/3 50/8/3 53/8/3
f 55/1/3 51/1/3 54/1/3
f 56/9/3 53/9/3 52/9/3
f 56/9/3 54/9/3 53/9/3
f 56/9/3 55/9/3 54/9/3
f 57/9/3 55/9/3 56/9/3
f 61/3/3 59/3/3 58/3/3
f 62/3/3 59/3/3 61/3/3
f 63/9/3 60/9/3 59/9/3
f 63/3/3 59/3/3 62/3/3
f 64/9/3 60/9/3 63/9/3
f 65/4/4 66/4/4 67/4/4
f 67/4/4 66/4/4 68/4/4
f 69/9/4 70/9/4 71/9/4
f 71/9/4 70/9/4 72/9/4
f 73/6/4 74/6/4 77/6/4
f 77/6/4 74/6/4 78/6/4
f 74/5/4 75/5/4 79/5/4
f 78/6/4 74/6/4 79/6/4
f 79/5/4 75/5/4 80/5/4
f 77/7/4 78/7/4 82/7/4
f 76/7/4 77/7/4 82/7/4
f 78/6/4 79/6/4 83/6/4
f 82/7/4 78/7/4 83/7/4
f 79/3/4 80/3/4 84/3/4
f 83/6/4 79/6/4 84/6/4
f 84/3/4 80/3/4 85/3/4
f 82/7/4 83/7/4 86/7/4
f 81/7/4 82/7/4 86/7/4
f 83/3/4 84/3/4 87/3/4
f 86/7/4 83/7/4 87/7/4
f 84/9/4 85/9/4 88/9/4
f 87/3/4 84/3/4 88/3/4
f 87/9/4 88/9/4 89/9/4
f 88/9/4 85/9/4 90/9/4
f 89/9/4 88/9/4 90/9/4
f 95/4/5 92/4/5 91/4/5
f 96/2/5 93/2/5 92/2/5
f 96/4/5 92/4/5 95/4/5
f 97/9/5 94/9/5 93/9/5
f 97/2/5 93/2/5 96/2/5
f 98/9/5 94/9/5 97/9/5
f 99/7/5 97/7/5 96/7/5
f 100/7/5 97/7/5 99/7/5
f 103/7/5 102/7/5 101/7/5
f 104/7/5 102/7/5 103/7/5
f 107/3/5 106/3/5 105/3/5
f 108/3/5 106/3/5 107/3/5
f 109/6/5 108/6/5 107/6/5
f 110/6/5 108/6/5 109/6/5
f 113/9/5 112/9/5 111/9/5
f 114/9/5 112/9/5 113/9/5
f 115/8/6 116/8/6 120/8/6
f 117/9/6 118/9/6 121/9/6
f 116/1/6 117/1/6 121/1/6
f 121/9/6 118/9/6 122/9/6
f 119/9/6 120/9/6 123/9/6
f 120/8/6 116/8/6 124/8/6
f 123/9/6 120/9/6 124/9/6
f 116/1/6 121/1/6 125/1/6
f 124/8/6 116/8/6 125/8/6
f 121/1/6 122/1/6 125/1/6
f 125/1/6 122/1/6 126/1/6
f 123/5/6 124/5/6 127/5/6
f 124/3/6 125/3/6 128/3/6
f 127/5/6 124/5/6 128/5/6
f 125/9/6 126/9/6 129/9/6
f 128/3/6 125/3/6 129/3/6
f 129/9/6 126/9/6 130/9/6
