# MagicaVoxel @ Ephtracy

# group
o 

# material
mtllib MaleCalfRight.mtl
usemtl palette

# normals
vn -1 0 0
vn 1 0 0
vn 0 0 1
vn 0 0 -1
vn 0 -1 0
vn 0 1 0

# texcoords
vt 0.00195312 0.5
vt 0.00585938 0.5
vt 0.00976562 0.5
vt 0.0136719 0.5
vt 0.0253906 0.5
vt 0.0292969 0.5
vt 0.0332031 0.5
vt 0.0566406 0.5
vt 0.978516 0.5

# verts
v -0.2 0.2 -0.3
v -0.2 0.2 -0.4
v -0.2 0.2 -0.5
v -0.2 0.4 -0.3
v -0.2 0.4 -0.4
v -0.2 0.4 -0.5
v -0.2 0.5 -0.3
v -0.2 0.5 -0.4
v -0.2 0.5 -0.5
v -0.1 0 -0.4
v -0.1 0 -0.6
v -0.1 0.1 -0.3
v -0.1 0.1 -0.4
v -0.1 0.1 -0.6
v -0.1 0.2 -0.3
v -0.1 0.2 -0.4
v -0.1 0.2 -0.5
v -0.1 0.3 -0.5
v -0.1 0.3 -0.6
v -0.1 0.4 -0.5
v -0.1 0.4 -0.6
v -0.1 0.5 -0.5
v -0.1 0.5 -0.6
v 0 0 -0.3
v 0 0 -0.4
v 0 0.1 -0.3
v 0 0.1 -0.4
v 0.1 0 -0.3
v 0.1 0 -0.4
v 0.1 0.3 -0.3
v 0.1 0.3 -0.4
v 0.2 0 -0.4
v 0.2 0 -0.6
v 0.2 0.3 -0.3
v 0.2 0.3 -0.4
v 0.2 0.4 -0.4
v 0.2 0.4 -0.5
v 0.2 0.5 -0.3
v 0.2 0.5 -0.4
v 0.2 0.5 -0.5
v 0.2 0.5 -0.6
v -0.2 0.2 -0.3
v -0.2 0.4 -0.3
v -0.2 0.5 -0.3
v -0.1 0.1 -0.3
v -0.1 0.2 -0.3
v -0.1 0.3 -0.3
v -0.1 0.4 -0.3
v -0.1 0.5 -0.3
v 0 0 -0.3
v 0 0.1 -0.3
v 0 0.3 -0.3
v 0 0.4 -0.3
v 0 0.5 -0.3
v 0.1 0 -0.3
v 0.1 0.3 -0.3
v 0.1 0.4 -0.3
v 0.2 0.3 -0.3
v 0.2 0.5 -0.3
v -0.1 0 -0.4
v -0.1 0.1 -0.4
v 0 0 -0.4
v 0 0.1 -0.4
v 0.1 0 -0.4
v 0.1 0.3 -0.4
v 0.2 0 -0.4
v 0.2 0.3 -0.4
v -0.2 0.2 -0.5
v -0.2 0.4 -0.5
v -0.2 0.5 -0.5
v -0.1 0.2 -0.5
v -0.1 0.3 -0.5
v -0.1 0.4 -0.5
v -0.1 0.5 -0.5
v -0.1 0 -0.6
v -0.1 0.1 -0.6
v -0.1 0.3 -0.6
v -0.1 0.4 -0.6
v -0.1 0.5 -0.6
v 0 0 -0.6
v 0 0.1 -0.6
v 0 0.3 -0.6
v 0 0.4 -0.6
v 0 0.5 -0.6
v 0.1 0 -0.6
v 0.1 0.3 -0.6
v 0.1 0.4 -0.6
v 0.1 0.5 -0.6
v 0.2 0 -0.6
v 0.2 0.5 -0.6
v 0 0 -0.3
v 0.1 0 -0.3
v -0.1 0 -0.4
v 0 0 -0.4
v 0.1 0 -0.4
v 0.2 0 -0.4
v -0.1 0 -0.6
v 0 0 -0.6
v 0.1 0 -0.6
v 0.2 0 -0.6
v -0.1 0.1 -0.3
v 0 0.1 -0.3
v -0.1 0.1 -0.4
v 0 0.1 -0.4
v -0.2 0.2 -0.3
v -0.1 0.2 -0.3
v -0.2 0.2 -0.4
v -0.1 0.2 -0.4
v -0.2 0.2 -0.5
v -0.1 0.2 -0.5
v 0.1 0.3 -0.3
v 0.2 0.3 -0.3
v 0.1 0.3 -0.4
v 0.2 0.3 -0.4
v -0.2 0.5 -0.3
v -0.1 0.5 -0.3
v 0 0.5 -0.3
v 0.2 0.5 -0.3
v -0.2 0.5 -0.4
v -0.1 0.5 -0.4
v 0 0.5 -0.4
v 0.2 0.5 -0.4
v -0.2 0.5 -0.5
v -0.1 0.5 -0.5
v 0.1 0.5 -0.5
v 0.2 0.5 -0.5
v -0.1 0.5 -0.6
v 0 0.5 -0.6
v 0.1 0.5 -0.6
v 0.2 0.5 -0.6

# faces
f 4/6/1 2/6/1 1/6/1
f 5/3/1 3/3/1 2/3/1
f 5/6/1 2/6/1 4/6/1
f 6/3/1 3/3/1 5/3/1
f 7/5/1 5/5/1 4/5/1
f 8/9/1 6/9/1 5/9/1
f 8/5/1 5/5/1 7/5/1
f 9/9/1 6/9/1 8/9/1
f 13/4/1 11/4/1 10/4/1
f 14/4/1 11/4/1 13/4/1
f 15/7/1 13/7/1 12/7/1
f 16/2/1 14/2/1 13/2/1
f 16/7/1 13/7/1 15/7/1
f 17/2/1 14/2/1 16/2/1
f 18/2/1 14/2/1 17/2/1
f 19/2/1 14/2/1 18/2/1
f 20/3/1 19/3/1 18/3/1
f 21/3/1 19/3/1 20/3/1
f 22/8/1 21/8/1 20/8/1
f 23/8/1 21/8/1 22/8/1
f 26/7/1 25/7/1 24/7/1
f 27/7/1 25/7/1 26/7/1
f 28/7/2 29/7/2 30/7/2
f 30/7/2 29/7/2 31/7/2
f 32/9/2 33/9/2 35/9/2
f 35/9/2 33/9/2 36/9/2
f 34/9/2 35/9/2 36/9/2
f 36/9/2 33/9/2 37/9/2
f 34/9/2 36/9/2 38/9/2
f 36/1/2 37/1/2 39/1/2
f 38/9/2 36/9/2 39/9/2
f 37/9/2 33/9/2 40/9/2
f 39/1/2 37/1/2 40/1/2
f 40/9/2 33/9/2 41/9/2
f 46/6/3 43/6/3 42/6/3
f 47/6/3 43/6/3 46/6/3
f 48/5/3 44/5/3 43/5/3
f 48/6/3 43/6/3 47/6/3
f 49/5/3 44/5/3 48/5/3
f 51/7/3 47/7/3 46/7/3
f 51/7/3 46/7/3 45/7/3
f 52/6/3 48/6/3 47/6/3
f 52/7/3 47/7/3 51/7/3
f 53/3/3 49/3/3 48/3/3
f 53/6/3 48/6/3 52/6/3
f 54/3/3 49/3/3 53/3/3
f 55/7/3 52/7/3 51/7/3
f 55/7/3 51/7/3 50/7/3
f 56/3/3 53/3/3 52/3/3
f 56/7/3 52/7/3 55/7/3
f 57/9/3 54/9/3 53/9/3
f 57/3/3 53/3/3 56/3/3
f 58/9/3 57/9/3 56/9/3
f 59/9/3 54/9/3 57/9/3
f 59/9/3 57/9/3 58/9/3
f 62/4/3 61/4/3 60/4/3
f 63/4/3 61/4/3 62/4/3
f 66/9/3 65/9/3 64/9/3
f 67/9/3 65/9/3 66/9/3
f 68/3/4 69/3/4 71/3/4
f 71/3/4 69/3/4 72/3/4
f 69/9/4 70/9/4 73/9/4
f 72/3/4 69/3/4 73/3/4
f 73/9/4 70/9/4 74/9/4
f 75/4/4 76/4/4 80/4/4
f 76/2/4 77/2/4 81/2/4
f 80/4/4 76/4/4 81/4/4
f 77/3/4 78/3/4 82/3/4
f 81/2/4 77/2/4 82/2/4
f 78/8/4 79/8/4 83/8/4
f 82/3/4 78/3/4 83/3/4
f 83/8/4 79/8/4 84/8/4
f 81/2/4 82/2/4 85/2/4
f 80/2/4 81/2/4 85/2/4
f 82/8/4 83/8/4 86/8/4
f 85/2/4 82/2/4 86/2/4
f 83/1/4 84/1/4 87/1/4
f 86/8/4 83/8/4 87/8/4
f 87/1/4 84/1/4 88/1/4
f 85/9/4 86/9/4 89/9/4
f 86/9/4 87/9/4 89/9/4
f 87/9/4 88/9/4 89/9/4
f 89/9/4 88/9/4 90/9/4
f 94/7/5 92/7/5 91/7/5
f 95/7/5 92/7/5 94/7/5
f 97/4/5 94/4/5 93/4/5
f 98/2/5 95/2/5 94/2/5
f 98/4/5 94/4/5 97/4/5
f 99/9/5 96/9/5 95/9/5
f 99/2/5 95/2/5 98/2/5
f 100/9/5 96/9/5 99/9/5
f 103/7/5 102/7/5 101/7/5
f 104/7/5 102/7/5 103/7/5
f 107/6/5 106/6/5 105/6/5
f 108/6/5 106/6/5 107/6/5
f 109/3/5 108/3/5 107/3/5
f 110/3/5 108/3/5 109/3/5
f 113/9/5 112/9/5 111/9/5
f 114/9/5 112/9/5 113/9/5
f 115/5/6 116/5/6 119/5/6
f 116/3/6 117/3/6 120/3/6
f 119/5/6 116/5/6 120/5/6
f 117/9/6 118/9/6 121/9/6
f 120/3/6 117/3/6 121/3/6
f 121/9/6 118/9/6 122/9/6
f 119/9/6 120/9/6 123/9/6
f 120/8/6 121/8/6 124/8/6
f 123/9/6 120/9/6 124/9/6
f 121/1/6 122/1/6 125/1/6
f 125/1/6 122/1/6 126/1/6
f 124/8/6 121/8/6 127/8/6
f 121/1/6 125/1/6 128/1/6
f 127/8/6 121/8/6 128/8/6
f 125/9/6 126/9/6 129/9/6
f 128/1/6 125/1/6 129/1/6
f 129/9/6 126/9/6 130/9/6
