# MagicaVoxel @ Ephtracy

# group
o 

# material
mtllib UpperArmLeft.mtl
usemtl palette

# normals
vn -1 0 0
vn 1 0 0
vn 0 0 1
vn 0 0 -1
vn 0 -1 0
vn 0 1 0

# texcoords
vt 0.00195312 0.5
vt 0.00585938 0.5
vt 0.00976562 0.5
vt 0.0136719 0.5
vt 0.978516 0.5

# verts
v -0.5 0.7 -0.1
v -0.5 0.7 -0.3
v -0.5 0.9 -0.1
v -0.5 0.9 -0.3
v -0.5 1 -0.1
v -0.5 1 -0.3
v -0.5 1.1 -0.1
v -0.5 1.1 -0.2
v -0.5 1.2 -0.2
v -0.5 1.2 -0.3
v -0.4 0.4 -0.1
v -0.4 0.4 -0.3
v -0.4 0.7 0
v -0.4 0.7 -0.1
v -0.4 0.7 -0.3
v -0.4 0.8 0
v -0.4 0.8 -0.1
v -0.4 0.8 -0.3
v -0.4 0.8 -0.4
v -0.4 0.9 -0.1
v -0.4 0.9 -0.3
v -0.4 1 -0.1
v -0.4 1 -0.3
v -0.4 1.1 0
v -0.4 1.1 -0.1
v -0.4 1.1 -0.2
v -0.4 1.1 -0.3
v -0.4 1.1 -0.4
v -0.4 1.2 0
v -0.4 1.2 -0.2
v -0.4 1.2 -0.3
v -0.4 1.2 -0.4
v -0.3 0.6 0
v -0.3 0.6 -0.1
v -0.3 0.7 0
v -0.3 0.7 -0.1
v -0.3 0.7 -0.3
v -0.3 0.7 -0.4
v -0.3 0.8 -0.3
v -0.3 0.8 -0.4
v -0.2 0.5 0
v -0.2 0.5 -0.1
v -0.2 0.5 -0.3
v -0.2 0.5 -0.4
v -0.2 0.6 0
v -0.2 0.6 -0.1
v -0.2 0.6 -0.3
v -0.2 0.6 -0.4
v -0.2 0.7 -0.3
v -0.2 0.7 -0.4
v -0.1 0.4 -0.1
v -0.1 0.4 -0.3
v -0.1 0.5 0
v -0.1 0.5 -0.1
v -0.1 0.5 -0.2
v -0.1 0.5 -0.3
v -0.1 0.5 -0.4
v -0.1 0.6 0
v -0.1 0.6 -0.1
v -0.1 0.6 -0.2
v -0.1 0.6 -0.3
v -0.1 0.6 -0.4
v -0.1 0.7 -0.1
v -0.1 0.7 -0.3
v -0.1 0.7 -0.4
v -0.1 0.8 0
v -0.1 0.8 -0.1
v -0.1 0.8 -0.3
v -0.1 0.8 -0.4
v -0.1 1 0
v -0.1 1 -0.1
v -0.1 1 -0.2
v -0.1 1 -0.3
v -0.1 1 -0.4
v -0.1 1.1 0
v -0.1 1.1 -0.1
v -0.1 1.1 -0.2
v -0.1 1.1 -0.4
v -0.1 1.2 0
v -0.1 1.2 -0.4
v 0 0.5 -0.2
v 0 0.5 -0.3
v 0 0.6 -0.1
v 0 0.6 -0.2
v 0 0.7 -0.1
v 0 0.7 -0.3
v 0 0.8 -0.1
v 0 0.8 -0.3
v 0 1 -0.1
v 0 1 -0.2
v 0 1 -0.3
v 0 1.1 -0.1
v 0 1.1 -0.2
v -0.4 0.7 0
v -0.4 0.8 0
v -0.4 1.1 0
v -0.4 1.2 0
v -0.3 0.6 0
v -0.3 0.7 0
v -0.3 0.8 0
v -0.3 0.9 0
v -0.3 1 0
v -0.3 1.1 0
v -0.2 0.5 0
v -0.2 0.6 0
v -0.2 0.7 0
v -0.2 0.8 0
v -0.2 0.9 0
v -0.1 0.5 0
v -0.1 0.6 0
v -0.1 0.8 0
v -0.1 1 0
v -0.1 1.1 0
v -0.1 1.2 0
v -0.5 0.7 -0.1
v -0.5 0.9 -0.1
v -0.5 1 -0.1
v -0.5 1.1 -0.1
v -0.4 0.4 -0.1
v -0.4 0.7 -0.1
v -0.4 0.8 -0.1
v -0.4 0.9 -0.1
v -0.4 1 -0.1
v -0.4 1.1 -0.1
v -0.3 0.4 -0.1
v -0.3 0.5 -0.1
v -0.3 0.6 -0.1
v -0.3 0.7 -0.1
v -0.2 0.5 -0.1
v -0.2 0.6 -0.1
v -0.1 0.4 -0.1
v -0.1 0.5 -0.1
v -0.1 0.6 -0.1
v -0.1 0.7 -0.1
v -0.1 0.8 -0.1
v -0.1 1 -0.1
v -0.1 1.1 -0.1
v 0 0.6 -0.1
v 0 0.7 -0.1
v 0 0.8 -0.1
v 0 1 -0.1
v 0 1.1 -0.1
v -0.5 1.1 -0.2
v -0.5 1.2 -0.2
v -0.4 1.1 -0.2
v -0.4 1.2 -0.2
v -0.1 0.5 -0.2
v -0.1 0.6 -0.2
v 0 0.5 -0.2
v 0 0.6 -0.2
v -0.1 1 -0.2
v -0.1 1.1 -0.2
v 0 1 -0.2
v 0 1.1 -0.2
v -0.5 0.7 -0.3
v -0.5 0.9 -0.3
v -0.5 1 -0.3
v -0.5 1.2 -0.3
v -0.4 0.4 -0.3
v -0.4 0.7 -0.3
v -0.4 0.8 -0.3
v -0.4 0.9 -0.3
v -0.4 1 -0.3
v -0.4 1.1 -0.3
v -0.4 1.2 -0.3
v -0.3 0.7 -0.3
v -0.3 0.8 -0.3
v -0.2 0.4 -0.3
v -0.2 0.5 -0.3
v -0.2 0.6 -0.3
v -0.2 0.7 -0.3
v -0.1 0.4 -0.3
v -0.1 0.5 -0.3
v -0.1 0.6 -0.3
v -0.1 0.7 -0.3
v -0.1 0.8 -0.3
v -0.1 1 -0.3
v 0 0.5 -0.3
v 0 0.7 -0.3
v 0 0.8 -0.3
v 0 1 -0.3
v -0.4 0.8 -0.4
v -0.4 1.1 -0.4
v -0.4 1.2 -0.4
v -0.3 0.7 -0.4
v -0.3 0.8 -0.4
v -0.3 0.9 -0.4
v -0.2 0.5 -0.4
v -0.2 0.6 -0.4
v -0.2 0.7 -0.4
v -0.2 0.8 -0.4
v -0.2 0.9 -0.4
v -0.2 1 -0.4
v -0.1 0.5 -0.4
v -0.1 0.6 -0.4
v -0.1 0.7 -0.4
v -0.1 0.8 -0.4
v -0.1 1 -0.4
v -0.1 1.1 -0.4
v -0.1 1.2 -0.4
v -0.4 0.4 -0.1
v -0.3 0.4 -0.1
v -0.1 0.4 -0.1
v -0.3 0.4 -0.2
v -0.2 0.4 -0.2
v -0.4 0.4 -0.3
v -0.2 0.4 -0.3
v -0.1 0.4 -0.3
v -0.2 0.5 0
v -0.1 0.5 0
v -0.2 0.5 -0.1
v -0.1 0.5 -0.1
v -0.1 0.5 -0.2
v 0 0.5 -0.2
v -0.2 0.5 -0.3
v -0.1 0.5 -0.3
v 0 0.5 -0.3
v -0.2 0.5 -0.4
v -0.1 0.5 -0.4
v -0.3 0.6 0
v -0.2 0.6 0
v -0.3 0.6 -0.1
v -0.2 0.6 -0.1
v -0.1 0.6 -0.1
v 0 0.6 -0.1
v -0.1 0.6 -0.2
v 0 0.6 -0.2
v -0.4 0.7 0
v -0.3 0.7 0
v -0.5 0.7 -0.1
v -0.4 0.7 -0.1
v -0.3 0.7 -0.1
v -0.5 0.7 -0.3
v -0.4 0.7 -0.3
v -0.3 0.7 -0.3
v -0.2 0.7 -0.3
v -0.3 0.7 -0.4
v -0.2 0.7 -0.4
v -0.4 0.8 -0.3
v -0.3 0.8 -0.3
v -0.4 0.8 -0.4
v -0.3 0.8 -0.4
v -0.1 1 -0.2
v 0 1 -0.2
v -0.1 1 -0.3
v 0 1 -0.3
v -0.5 1.1 -0.1
v -0.4 1.1 -0.1
v -0.1 1.1 -0.1
v 0 1.1 -0.1
v -0.5 1.1 -0.2
v -0.4 1.1 -0.2
v -0.1 1.1 -0.2
v 0 1.1 -0.2
v -0.4 1.2 0
v -0.1 1.2 0
v -0.5 1.2 -0.2
v -0.4 1.2 -0.2
v -0.5 1.2 -0.3
v -0.4 1.2 -0.3
v -0.4 1.2 -0.4
v -0.1 1.2 -0.4

# faces
f 3/5/1 2/5/1 1/5/1
f 4/5/1 2/5/1 3/5/1
f 5/3/1 4/3/1 3/3/1
f 6/3/1 4/3/1 5/3/1
f 7/5/1 6/5/1 5/5/1
f 8/5/1 6/5/1 7/5/1
f 9/5/1 6/5/1 8/5/1
f 10/5/1 6/5/1 9/5/1
f 14/5/1 12/5/1 11/5/1
f 15/5/1 12/5/1 14/5/1
f 16/2/1 14/2/1 13/2/1
f 17/2/1 14/2/1 16/2/1
f 20/3/1 17/3/1 16/3/1
f 21/3/1 19/3/1 18/3/1
f 22/3/1 20/3/1 16/3/1
f 23/3/1 19/3/1 21/3/1
f 24/3/1 22/3/1 16/3/1
f 25/3/1 22/3/1 24/3/1
f 27/3/1 19/3/1 23/3/1
f 28/3/1 19/3/1 27/3/1
f 29/5/1 26/5/1 25/5/1
f 29/5/1 25/5/1 24/5/1
f 30/5/1 26/5/1 29/5/1
f 31/5/1 28/5/1 27/5/1
f 32/5/1 28/5/1 31/5/1
f 35/2/1 34/2/1 33/2/1
f 36/2/1 34/2/1 35/2/1
f 39/2/1 38/2/1 37/2/1
f 40/2/1 38/2/1 39/2/1
f 45/4/1 42/4/1 41/4/1
f 46/4/1 42/4/1 45/4/1
f 47/2/1 44/2/1 43/2/1
f 48/2/1 44/2/1 47/2/1
f 49/3/1 48/3/1 47/3/1
f 50/3/1 48/3/1 49/3/1
f 51/1/2 52/1/2 54/1/2
f 54/1/2 52/1/2 55/1/2
f 55/1/2 52/1/2 56/1/2
f 53/4/2 54/4/2 58/4/2
f 54/2/2 55/2/2 59/2/2
f 58/4/2 54/4/2 59/4/2
f 59/2/2 55/2/2 60/2/2
f 56/2/2 57/2/2 61/2/2
f 61/2/2 57/2/2 62/2/2
f 58/1/2 59/1/2 63/1/2
f 61/3/2 62/3/2 64/3/2
f 64/3/2 62/3/2 65/3/2
f 58/1/2 63/1/2 66/1/2
f 66/1/2 63/1/2 67/1/2
f 64/2/2 65/2/2 68/2/2
f 68/2/2 65/2/2 69/2/2
f 66/3/2 67/3/2 70/3/2
f 70/3/2 67/3/2 71/3/2
f 68/4/2 69/4/2 73/4/2
f 73/4/2 69/4/2 74/4/2
f 70/1/2 71/1/2 75/1/2
f 75/1/2 71/1/2 76/1/2
f 72/3/2 73/3/2 77/3/2
f 73/3/2 74/3/2 77/3/2
f 77/3/2 74/3/2 78/3/2
f 75/5/2 76/5/2 79/5/2
f 76/5/2 77/5/2 79/5/2
f 77/5/2 78/5/2 79/5/2
f 79/5/2 78/5/2 80/5/2
f 81/2/2 82/2/2 84/2/2
f 83/2/2 84/2/2 85/2/2
f 84/2/2 82/2/2 86/2/2
f 85/2/2 84/2/2 86/2/2
f 85/5/2 86/5/2 87/5/2
f 87/5/2 86/5/2 88/5/2
f 87/4/2 88/4/2 89/4/2
f 89/4/2 88/4/2 90/4/2
f 90/4/2 88/4/2 91/4/2
f 89/5/2 90/5/2 92/5/2
f 92/5/2 90/5/2 93/5/2
f 99/2/3 95/2/3 94/2/3
f 100/3/3 96/3/3 95/3/3
f 100/2/3 95/2/3 99/2/3
f 101/3/3 96/3/3 100/3/3
f 102/3/3 96/3/3 101/3/3
f 103/5/3 97/5/3 96/5/3
f 103/3/3 96/3/3 102/3/3
f 105/2/3 99/2/3 98/2/3
f 106/1/3 100/1/3 99/1/3
f 106/1/3 101/1/3 100/1/3
f 106/2/3 99/2/3 105/2/3
f 107/1/3 101/1/3 106/1/3
f 108/3/3 102/3/3 101/3/3
f 108/1/3 101/1/3 107/1/3
f 109/4/3 105/4/3 104/4/3
f 110/1/3 107/1/3 106/1/3
f 110/4/3 105/4/3 109/4/3
f 110/1/3 106/1/3 105/1/3
f 111/3/3 108/3/3 107/3/3
f 111/1/3 107/1/3 110/1/3
f 112/3/3 102/3/3 108/3/3
f 112/3/3 108/3/3 111/3/3
f 112/1/3 103/1/3 102/1/3
f 113/5/3 97/5/3 103/5/3
f 113/1/3 103/1/3 112/1/3
f 114/5/3 97/5/3 113/5/3
f 120/5/3 116/5/3 115/5/3
f 121/5/3 116/5/3 120/5/3
f 122/3/3 117/3/3 116/3/3
f 122/5/3 116/5/3 121/5/3
f 123/5/3 118/5/3 117/5/3
f 123/3/3 117/3/3 122/3/3
f 124/5/3 118/5/3 123/5/3
f 125/5/3 120/5/3 119/5/3
f 126/5/3 120/5/3 125/5/3
f 127/5/3 120/5/3 126/5/3
f 128/5/3 120/5/3 127/5/3
f 129/1/3 126/1/3 125/1/3
f 129/5/3 127/5/3 126/5/3
f 130/5/3 127/5/3 129/5/3
f 131/1/3 129/1/3 125/1/3
f 132/1/3 129/1/3 131/1/3
f 138/2/3 134/2/3 133/2/3
f 139/5/3 135/5/3 134/5/3
f 139/2/3 134/2/3 138/2/3
f 140/4/3 136/4/3 135/4/3
f 140/5/3 135/5/3 139/5/3
f 141/5/3 137/5/3 136/5/3
f 141/4/3 136/4/3 140/4/3
f 142/5/3 137/5/3 141/5/3
f 145/5/3 144/5/3 143/5/3
f 146/5/3 144/5/3 145/5/3
f 149/2/3 148/2/3 147/2/3
f 150/2/3 148/2/3 149/2/3
f 151/5/4 152/5/4 153/5/4
f 153/5/4 152/5/4 154/5/4
f 155/5/4 156/5/4 160/5/4
f 160/5/4 156/5/4 161/5/4
f 156/3/4 157/3/4 162/3/4
f 161/5/4 156/5/4 162/5/4
f 157/5/4 158/5/4 163/5/4
f 162/3/4 157/3/4 163/3/4
f 163/5/4 158/5/4 164/5/4
f 164/5/4 158/5/4 165/5/4
f 160/5/4 161/5/4 166/5/4
f 159/5/4 160/5/4 166/5/4
f 166/5/4 161/5/4 167/5/4
f 159/5/4 166/5/4 168/5/4
f 168/5/4 166/5/4 169/5/4
f 169/5/4 166/5/4 170/5/4
f 170/5/4 166/5/4 171/5/4
f 168/1/4 169/1/4 172/1/4
f 172/1/4 169/1/4 173/1/4
f 174/2/4 175/2/4 178/2/4
f 173/2/4 174/2/4 178/2/4
f 175/5/4 176/5/4 179/5/4
f 178/2/4 175/2/4 179/2/4
f 176/4/4 177/4/4 180/4/4
f 179/5/4 176/5/4 180/5/4
f 180/4/4 177/4/4 181/4/4
f 182/3/4 183/3/4 186/3/4
f 186/3/4 183/3/4 187/3/4
f 185/2/4 186/2/4 190/2/4
f 186/2/4 187/2/4 190/2/4
f 190/2/4 187/2/4 191/2/4
f 187/3/4 183/3/4 192/3/4
f 191/2/4 187/2/4 192/2/4
f 192/3/4 183/3/4 193/3/4
f 188/2/4 189/2/4 194/2/4
f 189/3/4 190/3/4 195/3/4
f 194/2/4 189/2/4 195/2/4
f 190/2/4 191/2/4 196/2/4
f 195/3/4 190/3/4 196/3/4
f 191/4/4 192/4/4 197/4/4
f 196/2/4 191/2/4 197/2/4
f 192/4/4 193/4/4 197/4/4
f 193/3/4 183/3/4 198/3/4
f 197/4/4 193/4/4 198/4/4
f 183/5/4 184/5/4 199/5/4
f 198/3/4 183/3/4 199/3/4
f 199/5/4 184/5/4 200/5/4
f 204/5/5 202/5/5 201/5/5
f 204/1/5 203/1/5 202/1/5
f 205/1/5 203/1/5 204/1/5
f 206/5/5 204/5/5 201/5/5
f 206/5/5 205/5/5 204/5/5
f 207/1/5 203/1/5 205/1/5
f 207/5/5 205/5/5 206/5/5
f 208/1/5 203/1/5 207/1/5
f 211/4/5 210/4/5 209/4/5
f 212/4/5 210/4/5 211/4/5
f 216/2/5 214/2/5 213/2/5
f 217/2/5 214/2/5 216/2/5
f 218/2/5 216/2/5 215/2/5
f 219/2/5 216/2/5 218/2/5
f 222/2/5 221/2/5 220/2/5
f 223/2/5 221/2/5 222/2/5
f 226/2/5 225/2/5 224/2/5
f 227/2/5 225/2/5 226/2/5
f 231/2/5 229/2/5 228/2/5
f 232/2/5 229/2/5 231/2/5
f 233/5/5 231/5/5 230/5/5
f 234/5/5 231/5/5 233/5/5
f 237/2/5 236/2/5 235/2/5
f 238/2/5 236/2/5 237/2/5
f 241/3/5 240/3/5 239/3/5
f 242/3/5 240/3/5 241/3/5
f 243/4/6 244/4/6 245/4/6
f 245/4/6 244/4/6 246/4/6
f 247/5/6 248/5/6 251/5/6
f 251/5/6 248/5/6 252/5/6
f 249/5/6 250/5/6 253/5/6
f 253/5/6 250/5/6 254/5/6
f 255/5/6 256/5/6 258/5/6
f 257/5/6 258/5/6 259/5/6
f 258/5/6 256/5/6 260/5/6
f 259/5/6 258/5/6 260/5/6
f 260/5/6 256/5/6 261/5/6
f 261/5/6 256/5/6 262/5/6
