# MagicaVoxel @ Ephtracy

# group
o 

# material
mtllib LowerArmRight.mtl
usemtl palette

# normals
vn -1 0 0
vn 1 0 0
vn 0 0 1
vn 0 0 -1
vn 0 -1 0
vn 0 1 0

# texcoords
vt 0.00195312 0.5
vt 0.00585938 0.5
vt 0.00976562 0.5
vt 0.978516 0.5

# verts
v -0.4 0.3 -0.5
v -0.4 0.3 -0.7
v -0.4 0.4 -0.5
v -0.4 0.4 -0.7
v -0.3 0 -0.6
v -0.3 0 -0.7
v -0.3 0.3 -0.6
v -0.3 0.3 -0.7
v -0.3 0.3 -0.8
v -0.3 0.4 -0.7
v -0.3 0.4 -0.8
v -0.2 -0.1 -0.5
v -0.2 -0.1 -0.7
v -0.2 0 -0.5
v -0.2 0 -0.6
v -0.2 0 -0.7
v -0.2 0 -0.8
v -0.2 0.2 -0.5
v -0.2 0.2 -0.6
v -0.2 0.3 -0.5
v -0.2 0.3 -0.6
v -0.2 0.3 -0.7
v -0.2 0.3 -0.8
v -0.1 0 -0.7
v -0.1 0 -0.8
v -0.1 0.2 -0.7
v -0.1 0.3 -0.7
v -0.1 0.3 -0.8
v -0.1 0.4 -0.7
v -0.1 0.4 -0.8
v 0 -0.1 -0.5
v 0 -0.1 -0.7
v 0 0 -0.5
v 0 0 -0.7
v 0 0.2 -0.5
v 0 0.2 -0.7
v 0 0.4 -0.5
v 0 0.4 -0.7
v -0.4 0.3 -0.5
v -0.4 0.4 -0.5
v -0.2 -0.1 -0.5
v -0.2 0 -0.5
v -0.2 0.2 -0.5
v -0.2 0.3 -0.5
v -0.2 0.4 -0.5
v -0.1 0.3 -0.5
v -0.1 0.4 -0.5
v 0 -0.1 -0.5
v 0 0 -0.5
v 0 0.2 -0.5
v 0 0.4 -0.5
v -0.3 0 -0.6
v -0.3 0.3 -0.6
v -0.2 0 -0.6
v -0.2 0.2 -0.6
v -0.2 0.3 -0.6
v -0.4 0.3 -0.7
v -0.4 0.4 -0.7
v -0.3 0 -0.7
v -0.3 0.3 -0.7
v -0.3 0.4 -0.7
v -0.2 -0.1 -0.7
v -0.2 0 -0.7
v -0.2 0.3 -0.7
v -0.1 0 -0.7
v -0.1 0.2 -0.7
v -0.1 0.3 -0.7
v -0.1 0.4 -0.7
v 0 -0.1 -0.7
v 0 0 -0.7
v 0 0.2 -0.7
v 0 0.4 -0.7
v -0.3 0.3 -0.8
v -0.3 0.4 -0.8
v -0.2 0 -0.8
v -0.2 0.3 -0.8
v -0.2 0.4 -0.8
v -0.1 0 -0.8
v -0.1 0.3 -0.8
v -0.1 0.4 -0.8
v -0.2 -0.1 -0.5
v 0 -0.1 -0.5
v -0.2 -0.1 -0.7
v 0 -0.1 -0.7
v -0.3 0 -0.6
v -0.2 0 -0.6
v -0.3 0 -0.7
v -0.2 0 -0.7
v -0.1 0 -0.7
v -0.2 0 -0.8
v -0.1 0 -0.8
v -0.4 0.3 -0.5
v -0.2 0.3 -0.5
v -0.3 0.3 -0.6
v -0.2 0.3 -0.6
v -0.4 0.3 -0.7
v -0.3 0.3 -0.7
v -0.2 0.3 -0.7
v -0.3 0.3 -0.8
v -0.2 0.3 -0.8
v -0.4 0.4 -0.5
v -0.2 0.4 -0.5
v -0.1 0.4 -0.5
v 0 0.4 -0.5
v -0.3 0.4 -0.6
v -0.2 0.4 -0.6
v -0.4 0.4 -0.7
v -0.3 0.4 -0.7
v -0.2 0.4 -0.7
v -0.1 0.4 -0.7
v 0 0.4 -0.7
v -0.3 0.4 -0.8
v -0.2 0.4 -0.8
v -0.1 0.4 -0.8

# faces
f 3/4/1 2/4/1 1/4/1
f 4/4/1 2/4/1 3/4/1
f 7/1/1 6/1/1 5/1/1
f 8/1/1 6/1/1 7/1/1
f 10/1/1 9/1/1 8/1/1
f 11/1/1 9/1/1 10/1/1
f 14/1/1 13/1/1 12/1/1
f 15/1/1 13/1/1 14/1/1
f 16/1/1 13/1/1 15/1/1
f 18/2/1 15/2/1 14/2/1
f 19/2/1 15/2/1 18/2/1
f 20/3/1 19/3/1 18/3/1
f 21/3/1 19/3/1 20/3/1
f 22/1/1 17/1/1 16/1/1
f 23/1/1 17/1/1 22/1/1
f 24/1/2 25/1/2 26/1/2
f 26/1/2 25/1/2 27/1/2
f 27/1/2 25/1/2 28/1/2
f 27/3/2 28/3/2 29/3/2
f 29/3/2 28/3/2 30/3/2
f 31/1/2 32/1/2 33/1/2
f 33/1/2 32/1/2 34/1/2
f 33/2/2 34/2/2 35/2/2
f 35/2/2 34/2/2 36/2/2
f 35/3/2 36/3/2 37/3/2
f 37/3/2 36/3/2 38/3/2
f 44/4/3 40/4/3 39/4/3
f 45/4/3 40/4/3 44/4/3
f 46/3/3 44/3/3 43/3/3
f 46/1/3 45/1/3 44/1/3
f 47/1/3 45/1/3 46/1/3
f 48/1/3 42/1/3 41/1/3
f 49/2/3 43/2/3 42/2/3
f 49/1/3 42/1/3 48/1/3
f 50/3/3 46/3/3 43/3/3
f 50/2/3 43/2/3 49/2/3
f 50/3/3 47/3/3 46/3/3
f 51/3/3 47/3/3 50/3/3
f 54/1/3 53/1/3 52/1/3
f 55/1/3 53/1/3 54/1/3
f 56/1/3 53/1/3 55/1/3
f 57/4/4 58/4/4 60/4/4
f 60/4/4 58/4/4 61/4/4
f 59/1/4 60/1/4 63/1/4
f 63/1/4 60/1/4 64/1/4
f 62/1/4 63/1/4 65/1/4
f 62/1/4 65/1/4 69/1/4
f 65/2/4 66/2/4 70/2/4
f 69/1/4 65/1/4 70/1/4
f 66/3/4 67/3/4 71/3/4
f 70/2/4 66/2/4 71/2/4
f 67/3/4 68/3/4 71/3/4
f 71/3/4 68/3/4 72/3/4
f 73/1/4 74/1/4 76/1/4
f 76/1/4 74/1/4 77/1/4
f 75/1/4 76/1/4 78/1/4
f 76/3/4 77/3/4 79/3/4
f 78/1/4 76/1/4 79/1/4
f 79/3/4 77/3/4 80/3/4
f 83/1/5 82/1/5 81/1/5
f 84/1/5 82/1/5 83/1/5
f 87/1/5 86/1/5 85/1/5
f 88/1/5 86/1/5 87/1/5
f 90/1/5 89/1/5 88/1/5
f 91/1/5 89/1/5 90/1/5
f 94/4/5 93/4/5 92/4/5
f 95/4/5 93/4/5 94/4/5
f 96/4/5 94/4/5 92/4/5
f 97/4/5 94/4/5 96/4/5
f 99/1/5 98/1/5 97/1/5
f 100/1/5 98/1/5 99/1/5
f 101/4/6 102/4/6 105/4/6
f 102/1/6 103/1/6 106/1/6
f 105/4/6 102/4/6 106/4/6
f 101/4/6 105/4/6 107/4/6
f 105/3/6 106/3/6 108/3/6
f 107/4/6 105/4/6 108/4/6
f 106/1/6 103/1/6 109/1/6
f 108/3/6 106/3/6 109/3/6
f 103/3/6 104/3/6 110/3/6
f 109/1/6 103/1/6 110/1/6
f 110/3/6 104/3/6 111/3/6
f 108/1/6 109/1/6 112/1/6
f 109/3/6 110/3/6 113/3/6
f 112/1/6 109/1/6 113/1/6
f 113/3/6 110/3/6 114/3/6
