# MagicaVoxel @ Ephtracy

# group
o 

# material
mtllib UpperArmRight.mtl
usemtl palette

# normals
vn -1 0 0
vn 1 0 0
vn 0 0 1
vn 0 0 -1
vn 0 -1 0
vn 0 1 0

# texcoords
vt 0.00195312 0.5
vt 0.00585938 0.5
vt 0.00976562 0.5
vt 0.0136719 0.5
vt 0.978516 0.5

# verts
v -0.5 0.7 -0.5
v -0.5 0.7 -0.7
v -0.5 0.9 -0.5
v -0.5 0.9 -0.7
v -0.5 1 -0.5
v -0.5 1 -0.7
v -0.5 1.1 -0.6
v -0.5 1.1 -0.7
v -0.5 1.2 -0.5
v -0.5 1.2 -0.6
v -0.4 0.4 -0.5
v -0.4 0.4 -0.7
v -0.4 0.7 -0.5
v -0.4 0.7 -0.7
v -0.4 0.7 -0.8
v -0.4 0.8 -0.4
v -0.4 0.8 -0.5
v -0.4 0.8 -0.7
v -0.4 0.8 -0.8
v -0.4 0.9 -0.5
v -0.4 0.9 -0.7
v -0.4 1 -0.5
v -0.4 1 -0.7
v -0.4 1.1 -0.4
v -0.4 1.1 -0.5
v -0.4 1.1 -0.6
v -0.4 1.1 -0.7
v -0.4 1.1 -0.8
v -0.4 1.2 -0.4
v -0.4 1.2 -0.5
v -0.4 1.2 -0.6
v -0.4 1.2 -0.8
v -0.3 0.6 -0.7
v -0.3 0.6 -0.8
v -0.3 0.7 -0.4
v -0.3 0.7 -0.5
v -0.3 0.7 -0.7
v -0.3 0.7 -0.8
v -0.3 0.8 -0.4
v -0.3 0.8 -0.5
v -0.2 0.5 -0.4
v -0.2 0.5 -0.5
v -0.2 0.5 -0.7
v -0.2 0.5 -0.8
v -0.2 0.6 -0.4
v -0.2 0.6 -0.5
v -0.2 0.6 -0.7
v -0.2 0.6 -0.8
v -0.2 0.7 -0.4
v -0.2 0.7 -0.5
v -0.1 0.4 -0.5
v -0.1 0.4 -0.7
v -0.1 0.5 -0.4
v -0.1 0.5 -0.5
v -0.1 0.5 -0.6
v -0.1 0.5 -0.7
v -0.1 0.5 -0.8
v -0.1 0.6 -0.4
v -0.1 0.6 -0.5
v -0.1 0.6 -0.6
v -0.1 0.6 -0.7
v -0.1 0.6 -0.8
v -0.1 0.7 -0.4
v -0.1 0.7 -0.5
v -0.1 0.7 -0.7
v -0.1 0.8 -0.4
v -0.1 0.8 -0.5
v -0.1 0.8 -0.7
v -0.1 0.8 -0.8
v -0.1 1 -0.4
v -0.1 1 -0.5
v -0.1 1 -0.6
v -0.1 1 -0.7
v -0.1 1 -0.8
v -0.1 1.1 -0.4
v -0.1 1.1 -0.6
v -0.1 1.1 -0.7
v -0.1 1.1 -0.8
v -0.1 1.2 -0.4
v -0.1 1.2 -0.8
v 0 0.5 -0.5
v 0 0.5 -0.6
v 0 0.6 -0.6
v 0 0.6 -0.7
v 0 0.7 -0.5
v 0 0.7 -0.7
v 0 0.8 -0.5
v 0 0.8 -0.7
v 0 1 -0.5
v 0 1 -0.6
v 0 1 -0.7
v 0 1.1 -0.6
v 0 1.1 -0.7
v -0.4 0.8 -0.4
v -0.4 1.1 -0.4
v -0.4 1.2 -0.4
v -0.3 0.7 -0.4
v -0.3 0.8 -0.4
v -0.3 0.9 -0.4
v -0.2 0.5 -0.4
v -0.2 0.6 -0.4
v -0.2 0.7 -0.4
v -0.2 0.8 -0.4
v -0.2 0.9 -0.4
v -0.2 1 -0.4
v -0.1 0.5 -0.4
v -0.1 0.6 -0.4
v -0.1 0.7 -0.4
v -0.1 0.8 -0.4
v -0.1 1 -0.4
v -0.1 1.1 -0.4
v -0.1 1.2 -0.4
v -0.5 0.7 -0.5
v -0.5 0.9 -0.5
v -0.5 1 -0.5
v -0.5 1.2 -0.5
v -0.4 0.4 -0.5
v -0.4 0.7 -0.5
v -0.4 0.8 -0.5
v -0.4 0.9 -0.5
v -0.4 1 -0.5
v -0.4 1.1 -0.5
v -0.4 1.2 -0.5
v -0.3 0.7 -0.5
v -0.3 0.8 -0.5
v -0.2 0.4 -0.5
v -0.2 0.5 -0.5
v -0.2 0.6 -0.5
v -0.2 0.7 -0.5
v -0.1 0.4 -0.5
v -0.1 0.5 -0.5
v -0.1 0.6 -0.5
v -0.1 0.7 -0.5
v -0.1 0.8 -0.5
v -0.1 1 -0.5
v 0 0.5 -0.5
v 0 0.7 -0.5
v 0 0.8 -0.5
v 0 1 -0.5
v -0.1 1 -0.6
v -0.1 1.1 -0.6
v 0 1 -0.6
v 0 1.1 -0.6
v -0.5 1.1 -0.6
v -0.5 1.2 -0.6
v -0.4 1.1 -0.6
v -0.4 1.2 -0.6
v -0.1 0.5 -0.6
v -0.1 0.6 -0.6
v 0 0.5 -0.6
v 0 0.6 -0.6
v -0.5 0.7 -0.7
v -0.5 0.9 -0.7
v -0.5 1 -0.7
v -0.5 1.1 -0.7
v -0.4 0.4 -0.7
v -0.4 0.7 -0.7
v -0.4 0.8 -0.7
v -0.4 0.9 -0.7
v -0.4 1 -0.7
v -0.4 1.1 -0.7
v -0.3 0.4 -0.7
v -0.3 0.5 -0.7
v -0.3 0.6 -0.7
v -0.3 0.7 -0.7
v -0.2 0.5 -0.7
v -0.2 0.6 -0.7
v -0.1 0.4 -0.7
v -0.1 0.5 -0.7
v -0.1 0.6 -0.7
v -0.1 0.7 -0.7
v -0.1 0.8 -0.7
v -0.1 1 -0.7
v -0.1 1.1 -0.7
v 0 0.6 -0.7
v 0 0.7 -0.7
v 0 0.8 -0.7
v 0 1 -0.7
v 0 1.1 -0.7
v -0.4 0.7 -0.8
v -0.4 0.8 -0.8
v -0.4 1.1 -0.8
v -0.4 1.2 -0.8
v -0.3 0.6 -0.8
v -0.3 0.7 -0.8
v -0.3 0.8 -0.8
v -0.3 0.9 -0.8
v -0.3 1 -0.8
v -0.3 1.1 -0.8
v -0.2 0.5 -0.8
v -0.2 0.6 -0.8
v -0.2 0.7 -0.8
v -0.2 0.8 -0.8
v -0.2 0.9 -0.8
v -0.1 0.5 -0.8
v -0.1 0.6 -0.8
v -0.1 0.8 -0.8
v -0.1 1 -0.8
v -0.1 1.1 -0.8
v -0.1 1.2 -0.8
v -0.4 0.4 -0.5
v -0.2 0.4 -0.5
v -0.1 0.4 -0.5
v -0.3 0.4 -0.6
v -0.2 0.4 -0.6
v -0.4 0.4 -0.7
v -0.3 0.4 -0.7
v -0.1 0.4 -0.7
v -0.2 0.5 -0.4
v -0.1 0.5 -0.4
v -0.2 0.5 -0.5
v -0.1 0.5 -0.5
v 0 0.5 -0.5
v -0.1 0.5 -0.6
v 0 0.5 -0.6
v -0.2 0.5 -0.7
v -0.1 0.5 -0.7
v -0.2 0.5 -0.8
v -0.1 0.5 -0.8
v -0.1 0.6 -0.6
v 0 0.6 -0.6
v -0.3 0.6 -0.7
v -0.2 0.6 -0.7
v -0.1 0.6 -0.7
v 0 0.6 -0.7
v -0.3 0.6 -0.8
v -0.2 0.6 -0.8
v -0.3 0.7 -0.4
v -0.2 0.7 -0.4
v -0.5 0.7 -0.5
v -0.4 0.7 -0.5
v -0.3 0.7 -0.5
v -0.2 0.7 -0.5
v -0.5 0.7 -0.7
v -0.4 0.7 -0.7
v -0.3 0.7 -0.7
v -0.4 0.7 -0.8
v -0.3 0.7 -0.8
v -0.4 0.8 -0.4
v -0.3 0.8 -0.4
v -0.4 0.8 -0.5
v -0.3 0.8 -0.5
v -0.1 1 -0.5
v 0 1 -0.5
v -0.1 1 -0.6
v 0 1 -0.6
v -0.5 1.1 -0.6
v -0.4 1.1 -0.6
v -0.1 1.1 -0.6
v 0 1.1 -0.6
v -0.5 1.1 -0.7
v -0.4 1.1 -0.7
v -0.1 1.1 -0.7
v 0 1.1 -0.7
v -0.4 1.2 -0.4
v -0.1 1.2 -0.4
v -0.5 1.2 -0.5
v -0.4 1.2 -0.5
v -0.5 1.2 -0.6
v -0.4 1.2 -0.6
v -0.4 1.2 -0.8
v -0.1 1.2 -0.8

# faces
f 3/5/1 2/5/1 1/5/1
f 4/5/1 2/5/1 3/5/1
f 5/3/1 4/3/1 3/3/1
f 6/3/1 4/3/1 5/3/1
f 7/5/1 6/5/1 5/5/1
f 8/5/1 6/5/1 7/5/1
f 9/5/1 7/5/1 5/5/1
f 10/5/1 7/5/1 9/5/1
f 13/5/1 12/5/1 11/5/1
f 14/5/1 12/5/1 13/5/1
f 18/2/1 15/2/1 14/2/1
f 19/2/1 15/2/1 18/2/1
f 20/3/1 17/3/1 16/3/1
f 21/3/1 19/3/1 18/3/1
f 22/3/1 20/3/1 16/3/1
f 23/3/1 19/3/1 21/3/1
f 24/3/1 22/3/1 16/3/1
f 25/3/1 22/3/1 24/3/1
f 27/3/1 19/3/1 23/3/1
f 28/3/1 19/3/1 27/3/1
f 29/5/1 25/5/1 24/5/1
f 30/5/1 25/5/1 29/5/1
f 31/5/1 27/5/1 26/5/1
f 31/5/1 28/5/1 27/5/1
f 32/5/1 28/5/1 31/5/1
f 37/2/1 34/2/1 33/2/1
f 38/2/1 34/2/1 37/2/1
f 39/2/1 36/2/1 35/2/1
f 40/2/1 36/2/1 39/2/1
f 45/2/1 42/2/1 41/2/1
f 46/2/1 42/2/1 45/2/1
f 47/4/1 44/4/1 43/4/1
f 48/4/1 44/4/1 47/4/1
f 49/3/1 46/3/1 45/3/1
f 50/3/1 46/3/1 49/3/1
f 51/1/2 52/1/2 54/1/2
f 54/1/2 52/1/2 55/1/2
f 55/1/2 52/1/2 56/1/2
f 53/2/2 54/2/2 58/2/2
f 58/2/2 54/2/2 59/2/2
f 55/2/2 56/2/2 60/2/2
f 56/4/2 57/4/2 61/4/2
f 60/2/2 56/2/2 61/2/2
f 61/4/2 57/4/2 62/4/2
f 58/3/2 59/3/2 63/3/2
f 63/3/2 59/3/2 64/3/2
f 61/1/2 62/1/2 65/1/2
f 63/2/2 64/2/2 66/2/2
f 66/2/2 64/2/2 67/2/2
f 65/1/2 62/1/2 68/1/2
f 68/1/2 62/1/2 69/1/2
f 66/4/2 67/4/2 70/4/2
f 70/4/2 67/4/2 71/4/2
f 68/3/2 69/3/2 73/3/2
f 73/3/2 69/3/2 74/3/2
f 71/3/2 72/3/2 75/3/2
f 70/3/2 71/3/2 75/3/2
f 75/3/2 72/3/2 76/3/2
f 73/1/2 74/1/2 77/1/2
f 77/1/2 74/1/2 78/1/2
f 75/5/2 76/5/2 79/5/2
f 76/5/2 77/5/2 79/5/2
f 77/5/2 78/5/2 79/5/2
f 79/5/2 78/5/2 80/5/2
f 81/2/2 82/2/2 83/2/2
f 81/2/2 83/2/2 85/2/2
f 83/2/2 84/2/2 85/2/2
f 85/2/2 84/2/2 86/2/2
f 85/5/2 86/5/2 87/5/2
f 87/5/2 86/5/2 88/5/2
f 87/4/2 88/4/2 89/4/2
f 89/4/2 88/4/2 90/4/2
f 90/4/2 88/4/2 91/4/2
f 90/5/2 91/5/2 92/5/2
f 92/5/2 91/5/2 93/5/2
f 98/3/3 95/3/3 94/3/3
f 99/3/3 95/3/3 98/3/3
f 102/2/3 98/2/3 97/2/3
f 102/2/3 99/2/3 98/2/3
f 103/2/3 99/2/3 102/2/3
f 104/3/3 95/3/3 99/3/3
f 104/2/3 99/2/3 103/2/3
f 105/3/3 95/3/3 104/3/3
f 106/2/3 101/2/3 100/2/3
f 107/3/3 102/3/3 101/3/3
f 107/2/3 101/2/3 106/2/3
f 108/2/3 103/2/3 102/2/3
f 108/3/3 102/3/3 107/3/3
f 109/4/3 104/4/3 103/4/3
f 109/2/3 103/2/3 108/2/3
f 109/4/3 105/4/3 104/4/3
f 110/3/3 95/3/3 105/3/3
f 110/4/3 105/4/3 109/4/3
f 111/5/3 96/5/3 95/5/3
f 111/3/3 95/3/3 110/3/3
f 112/5/3 96/5/3 111/5/3
f 118/5/3 114/5/3 113/5/3
f 119/5/3 114/5/3 118/5/3
f 120/3/3 115/3/3 114/3/3
f 120/5/3 114/5/3 119/5/3
f 121/5/3 116/5/3 115/5/3
f 121/3/3 115/3/3 120/3/3
f 122/5/3 116/5/3 121/5/3
f 123/5/3 116/5/3 122/5/3
f 124/5/3 119/5/3 118/5/3
f 124/5/3 118/5/3 117/5/3
f 125/5/3 119/5/3 124/5/3
f 126/5/3 124/5/3 117/5/3
f 127/5/3 124/5/3 126/5/3
f 128/5/3 124/5/3 127/5/3
f 129/5/3 124/5/3 128/5/3
f 130/1/3 127/1/3 126/1/3
f 131/1/3 127/1/3 130/1/3
f 136/2/3 133/2/3 132/2/3
f 136/2/3 132/2/3 131/2/3
f 137/5/3 134/5/3 133/5/3
f 137/2/3 133/2/3 136/2/3
f 138/4/3 135/4/3 134/4/3
f 138/5/3 134/5/3 137/5/3
f 139/4/3 135/4/3 138/4/3
f 142/5/3 141/5/3 140/5/3
f 143/5/3 141/5/3 142/5/3
f 144/5/4 145/5/4 146/5/4
f 146/5/4 145/5/4 147/5/4
f 148/2/4 149/2/4 150/2/4
f 150/2/4 149/2/4 151/2/4
f 152/5/4 153/5/4 157/5/4
f 157/5/4 153/5/4 158/5/4
f 153/3/4 154/3/4 159/3/4
f 158/5/4 153/5/4 159/5/4
f 154/5/4 155/5/4 160/5/4
f 159/3/4 154/3/4 160/3/4
f 160/5/4 155/5/4 161/5/4
f 156/5/4 157/5/4 162/5/4
f 162/5/4 157/5/4 163/5/4
f 163/5/4 157/5/4 164/5/4
f 164/5/4 157/5/4 165/5/4
f 162/1/4 163/1/4 166/1/4
f 163/5/4 164/5/4 166/5/4
f 166/5/4 164/5/4 167/5/4
f 162/1/4 166/1/4 168/1/4
f 168/1/4 166/1/4 169/1/4
f 170/2/4 171/2/4 175/2/4
f 171/5/4 172/5/4 176/5/4
f 175/2/4 171/2/4 176/2/4
f 172/4/4 173/4/4 177/4/4
f 176/5/4 172/5/4 177/5/4
f 173/5/4 174/5/4 178/5/4
f 177/4/4 173/4/4 178/4/4
f 178/5/4 174/5/4 179/5/4
f 180/2/4 181/2/4 185/2/4
f 181/3/4 182/3/4 186/3/4
f 185/2/4 181/2/4 186/2/4
f 186/3/4 182/3/4 187/3/4
f 187/3/4 182/3/4 188/3/4
f 182/5/4 183/5/4 189/5/4
f 188/3/4 182/3/4 189/3/4
f 184/2/4 185/2/4 191/2/4
f 185/1/4 186/1/4 192/1/4
f 186/1/4 187/1/4 192/1/4
f 191/2/4 185/2/4 192/2/4
f 192/1/4 187/1/4 193/1/4
f 187/3/4 188/3/4 194/3/4
f 193/1/4 187/1/4 194/1/4
f 190/4/4 191/4/4 195/4/4
f 192/1/4 193/1/4 196/1/4
f 195/4/4 191/4/4 196/4/4
f 191/1/4 192/1/4 196/1/4
f 193/3/4 194/3/4 197/3/4
f 196/1/4 193/1/4 197/1/4
f 194/3/4 188/3/4 198/3/4
f 197/3/4 194/3/4 198/3/4
f 188/1/4 189/1/4 198/1/4
f 189/5/4 183/5/4 199/5/4
f 198/1/4 189/1/4 199/1/4
f 199/5/4 183/5/4 200/5/4
f 204/5/5 202/5/5 201/5/5
f 205/1/5 203/1/5 202/1/5
f 205/5/5 202/5/5 204/5/5
f 206/5/5 204/5/5 201/5/5
f 207/1/5 205/1/5 204/1/5
f 207/5/5 204/5/5 206/5/5
f 208/1/5 203/1/5 205/1/5
f 208/1/5 205/1/5 207/1/5
f 211/2/5 210/2/5 209/2/5
f 212/2/5 210/2/5 211/2/5
f 214/2/5 213/2/5 212/2/5
f 215/2/5 213/2/5 214/2/5
f 218/4/5 217/4/5 216/4/5
f 219/4/5 217/4/5 218/4/5
f 224/2/5 221/2/5 220/2/5
f 225/2/5 221/2/5 224/2/5
f 226/2/5 223/2/5 222/2/5
f 227/2/5 223/2/5 226/2/5
f 232/2/5 229/2/5 228/2/5
f 233/2/5 229/2/5 232/2/5
f 234/5/5 231/5/5 230/5/5
f 235/5/5 231/5/5 234/5/5
f 237/2/5 236/2/5 235/2/5
f 238/2/5 236/2/5 237/2/5
f 241/3/5 240/3/5 239/3/5
f 242/3/5 240/3/5 241/3/5
f 243/4/6 244/4/6 245/4/6
f 245/4/6 244/4/6 246/4/6
f 247/5/6 248/5/6 251/5/6
f 251/5/6 248/5/6 252/5/6
f 249/5/6 250/5/6 253/5/6
f 253/5/6 250/5/6 254/5/6
f 255/5/6 256/5/6 258/5/6
f 257/5/6 258/5/6 259/5/6
f 258/5/6 256/5/6 260/5/6
f 259/5/6 258/5/6 260/5/6
f 260/5/6 256/5/6 261/5/6
f 261/5/6 256/5/6 262/5/6
