# MagicaVoxel @ Ephtracy

# group
o 

# material
mtllib MaleSpine.mtl
usemtl palette

# normals
vn -1 0 0
vn 1 0 0
vn 0 0 1
vn 0 0 -1
vn 0 -1 0
vn 0 1 0

# texcoords
vt 0.00195312 0.5
vt 0.00976562 0.5
vt 0.0136719 0.5
vt 0.0175781 0.5
vt 0.0292969 0.5
vt 0.0332031 0.5
vt 0.0449219 0.5
vt 0.0488281 0.5
vt 0.0527344 0.5
vt 0.0566406 0.5
vt 0.0761719 0.5
vt 0.0800781 0.5
vt 0.978516 0.5

# verts
v -0.5 0.4 0
v -0.5 0.4 -0.1
v -0.5 0.6 0
v -0.5 0.6 -0.1
v -0.4 0 0.3
v -0.4 0 -0.4
v -0.4 0.1 0.3
v -0.4 0.1 0.1
v -0.4 0.1 -0.2
v -0.4 0.1 -0.4
v -0.4 0.2 0.1
v -0.4 0.2 0
v -0.4 0.2 -0.1
v -0.4 0.2 -0.2
v -0.4 0.3 0.3
v -0.4 0.3 0.1
v -0.4 0.3 0
v -0.4 0.3 -0.1
v -0.4 0.3 -0.2
v -0.4 0.3 -0.4
v -0.4 0.4 0.4
v -0.4 0.4 0.3
v -0.4 0.4 0
v -0.4 0.4 -0.1
v -0.4 0.4 -0.4
v -0.4 0.4 -0.5
v -0.4 0.5 0.4
v -0.4 0.5 0.3
v -0.4 0.5 0
v -0.4 0.5 -0.1
v -0.4 0.5 -0.4
v -0.4 0.5 -0.5
v -0.4 0.6 0.4
v -0.4 0.6 0.3
v -0.4 0.6 0
v -0.4 0.6 -0.1
v -0.4 0.6 -0.4
v -0.4 0.6 -0.5
v -0.3 0.1 0.3
v -0.3 0.1 0.1
v -0.3 0.1 -0.2
v -0.3 0.1 -0.4
v -0.3 0.2 0.3
v -0.3 0.2 0.1
v -0.3 0.2 -0.2
v -0.3 0.2 -0.4
v -0.3 0.3 0.4
v -0.3 0.3 0.3
v -0.3 0.3 0.1
v -0.3 0.3 -0.2
v -0.3 0.3 -0.4
v -0.3 0.3 -0.5
v -0.3 0.4 0.5
v -0.3 0.4 0.4
v -0.3 0.4 0.3
v -0.3 0.4 -0.4
v -0.3 0.4 -0.5
v -0.3 0.4 -0.6
v -0.3 0.5 0.5
v -0.3 0.5 0.4
v -0.3 0.5 -0.5
v -0.3 0.5 -0.6
v -0.3 0.6 0.5
v -0.3 0.6 0.4
v -0.3 0.6 -0.5
v -0.3 0.6 -0.6
v -0.2 0 0.4
v -0.2 0 0.3
v -0.2 0 -0.4
v -0.2 0 -0.5
v -0.2 0.2 0.4
v -0.2 0.2 0.3
v -0.2 0.2 -0.4
v -0.2 0.2 -0.5
v -0.2 0.3 0.5
v -0.2 0.3 0.4
v -0.2 0.3 0.3
v -0.2 0.3 -0.4
v -0.2 0.3 -0.5
v -0.2 0.3 -0.6
v -0.2 0.4 0.5
v -0.2 0.4 0.4
v -0.2 0.4 -0.5
v -0.2 0.4 -0.6
v -0.1 0 0.5
v -0.1 0 0.4
v -0.1 0 -0.5
v -0.1 0 -0.6
v -0.1 0.2 0.5
v -0.1 0.2 0.4
v -0.1 0.2 -0.5
v -0.1 0.2 -0.6
v -0.1 0.3 0.5
v -0.1 0.3 0.4
v -0.1 0.3 -0.5
v -0.1 0.3 -0.6
v 0.2 0 0.5
v 0.2 0 0.4
v 0.2 0 -0.5
v 0.2 0 -0.6
v 0.2 0.2 0.5
v 0.2 0.2 0.4
v 0.2 0.2 -0.5
v 0.2 0.2 -0.6
v 0.2 0.3 0.5
v 0.2 0.3 0.4
v 0.2 0.3 -0.5
v 0.2 0.3 -0.6
v 0.3 0 0.4
v 0.3 0 0.3
v 0.3 0 -0.4
v 0.3 0 -0.5
v 0.3 0.2 0.4
v 0.3 0.2 0.3
v 0.3 0.2 -0.4
v 0.3 0.2 -0.5
v 0.3 0.3 0.5
v 0.3 0.3 0.4
v 0.3 0.3 0.3
v 0.3 0.3 -0.4
v 0.3 0.3 -0.5
v 0.3 0.3 -0.6
v 0.3 0.4 0.5
v 0.3 0.4 0.4
v 0.3 0.4 -0.5
v 0.3 0.4 -0.6
v 0.4 0 0.3
v 0.4 0 0.2
v 0.4 0 -0.3
v 0.4 0 -0.4
v 0.4 0.1 0
v 0.4 0.1 -0.1
v 0.4 0.2 0.3
v 0.4 0.2 0.2
v 0.4 0.2 0
v 0.4 0.2 -0.1
v 0.4 0.2 -0.3
v 0.4 0.2 -0.4
v 0.4 0.3 0.4
v 0.4 0.3 0.3
v 0.4 0.3 0.2
v 0.4 0.3 0.1
v 0.4 0.3 -0.2
v 0.4 0.3 -0.3
v 0.4 0.3 -0.4
v 0.4 0.3 -0.5
v 0.4 0.4 0.5
v 0.4 0.4 0.4
v 0.4 0.4 0.2
v 0.4 0.4 0.1
v 0.4 0.4 0
v 0.4 0.4 -0.1
v 0.4 0.4 -0.2
v 0.4 0.4 -0.3
v 0.4 0.4 -0.5
v 0.4 0.4 -0.6
v 0.4 0.5 0.4
v 0.4 0.5 0.3
v 0.4 0.5 0.2
v 0.4 0.5 0
v 0.4 0.5 -0.1
v 0.4 0.5 -0.3
v 0.4 0.5 -0.4
v 0.4 0.5 -0.5
v 0.4 0.6 0.5
v 0.4 0.6 0.4
v 0.4 0.6 0
v 0.4 0.6 -0.1
v 0.4 0.6 -0.5
v 0.4 0.6 -0.6
v 0.5 0 0.2
v 0.5 0 -0.3
v 0.5 0.1 0
v 0.5 0.1 -0.1
v 0.5 0.2 0.2
v 0.5 0.2 0
v 0.5 0.2 -0.1
v 0.5 0.2 -0.3
v 0.5 0.3 0.2
v 0.5 0.3 0.1
v 0.5 0.3 0
v 0.5 0.3 -0.1
v 0.5 0.3 -0.2
v 0.5 0.3 -0.3
v 0.5 0.4 0.2
v 0.5 0.4 0.1
v 0.5 0.4 0
v 0.5 0.4 -0.1
v 0.5 0.4 -0.2
v 0.5 0.4 -0.3
v 0.5 0.5 0.4
v 0.5 0.5 0.3
v 0.5 0.5 0.2
v 0.5 0.5 0
v 0.5 0.5 -0.1
v 0.5 0.5 -0.3
v 0.5 0.5 -0.4
v 0.5 0.5 -0.5
v 0.5 0.6 0.4
v 0.5 0.6 0.3
v 0.5 0.6 0.2
v 0.5 0.6 0
v 0.5 0.6 -0.1
v 0.5 0.6 -0.3
v 0.5 0.6 -0.4
v 0.5 0.6 -0.5
v -0.3 0.4 0.5
v -0.3 0.5 0.5
v -0.3 0.6 0.5
v -0.2 0.3 0.5
v -0.2 0.4 0.5
v -0.2 0.5 0.5
v -0.2 0.6 0.5
v -0.1 0 0.5
v -0.1 0.2 0.5
v -0.1 0.3 0.5
v 0 0.5 0.5
v 0 0.6 0.5
v 0.2 0 0.5
v 0.2 0.2 0.5
v 0.2 0.3 0.5
v 0.2 0.5 0.5
v 0.2 0.6 0.5
v 0.3 0.3 0.5
v 0.3 0.4 0.5
v 0.4 0.4 0.5
v 0.4 0.6 0.5
v -0.4 0.4 0.4
v -0.4 0.5 0.4
v -0.4 0.6 0.4
v -0.3 0.3 0.4
v -0.3 0.4 0.4
v -0.3 0.5 0.4
v -0.3 0.6 0.4
v -0.2 0 0.4
v -0.2 0.2 0.4
v -0.2 0.3 0.4
v -0.2 0.4 0.4
v -0.1 0 0.4
v -0.1 0.2 0.4
v -0.1 0.3 0.4
v 0.2 0 0.4
v 0.2 0.2 0.4
v 0.2 0.3 0.4
v 0.3 0 0.4
v 0.3 0.2 0.4
v 0.3 0.3 0.4
v 0.3 0.4 0.4
v 0.4 0.3 0.4
v 0.4 0.4 0.4
v 0.4 0.5 0.4
v 0.4 0.6 0.4
v 0.5 0.5 0.4
v 0.5 0.6 0.4
v -0.4 0 0.3
v -0.4 0.1 0.3
v -0.4 0.3 0.3
v -0.4 0.4 0.3
v -0.3 0.1 0.3
v -0.3 0.2 0.3
v -0.3 0.3 0.3
v -0.3 0.4 0.3
v -0.2 0 0.3
v -0.2 0.2 0.3
v -0.2 0.3 0.3
v 0.3 0 0.3
v 0.3 0.2 0.3
v 0.3 0.3 0.3
v 0.4 0 0.3
v 0.4 0.2 0.3
v 0.4 0.3 0.3
v 0.4 0 0.2
v 0.4 0.2 0.2
v 0.4 0.3 0.2
v 0.4 0.4 0.2
v 0.4 0.5 0.2
v 0.5 0 0.2
v 0.5 0.2 0.2
v 0.5 0.3 0.2
v 0.5 0.4 0.2
v 0.5 0.5 0.2
v -0.4 0.1 0.1
v -0.4 0.2 0.1
v -0.4 0.3 0.1
v -0.3 0.1 0.1
v -0.3 0.2 0.1
v -0.3 0.3 0.1
v 0.4 0.3 0.1
v 0.4 0.4 0.1
v 0.5 0.3 0.1
v 0.5 0.4 0.1
v -0.5 0.4 0
v -0.5 0.6 0
v -0.4 0.4 0
v -0.4 0.5 0
v -0.4 0.6 0
v 0.4 0.1 -0.1
v 0.4 0.2 -0.1
v 0.4 0.4 -0.1
v 0.4 0.5 -0.1
v 0.4 0.6 -0.1
v 0.5 0.1 -0.1
v 0.5 0.2 -0.1
v 0.5 0.4 -0.1
v 0.5 0.5 -0.1
v 0.5 0.6 -0.1
v 0.4 0.1 0
v 0.4 0.2 0
v 0.4 0.4 0
v 0.4 0.5 0
v 0.4 0.6 0
v 0.5 0.1 0
v 0.5 0.2 0
v 0.5 0.4 0
v 0.5 0.5 0
v 0.5 0.6 0
v -0.5 0.4 -0.1
v -0.5 0.6 -0.1
v -0.4 0.4 -0.1
v -0.4 0.5 -0.1
v -0.4 0.6 -0.1
v -0.4 0.1 -0.2
v -0.4 0.2 -0.2
v -0.4 0.3 -0.2
v -0.3 0.1 -0.2
v -0.3 0.2 -0.2
v -0.3 0.3 -0.2
v 0.4 0.3 -0.2
v 0.4 0.4 -0.2
v 0.5 0.3 -0.2
v 0.5 0.4 -0.2
v 0.4 0 -0.3
v 0.4 0.2 -0.3
v 0.4 0.3 -0.3
v 0.4 0.4 -0.3
v 0.4 0.5 -0.3
v 0.5 0 -0.3
v 0.5 0.2 -0.3
v 0.5 0.3 -0.3
v 0.5 0.4 -0.3
v 0.5 0.5 -0.3
v -0.4 0 -0.4
v -0.4 0.1 -0.4
v -0.4 0.3 -0.4
v -0.4 0.4 -0.4
v -0.3 0.1 -0.4
v -0.3 0.2 -0.4
v -0.3 0.3 -0.4
v -0.3 0.4 -0.4
v -0.2 0 -0.4
v -0.2 0.2 -0.4
v -0.2 0.3 -0.4
v 0.3 0 -0.4
v 0.3 0.2 -0.4
v 0.3 0.3 -0.4
v 0.4 0 -0.4
v 0.4 0.2 -0.4
v 0.4 0.3 -0.4
v -0.4 0.4 -0.5
v -0.4 0.5 -0.5
v -0.4 0.6 -0.5
v -0.3 0.3 -0.5
v -0.3 0.4 -0.5
v -0.3 0.5 -0.5
v -0.3 0.6 -0.5
v -0.2 0 -0.5
v -0.2 0.2 -0.5
v -0.2 0.3 -0.5
v -0.2 0.4 -0.5
v -0.1 0 -0.5
v -0.1 0.2 -0.5
v -0.1 0.3 -0.5
v 0.2 0 -0.5
v 0.2 0.2 -0.5
v 0.2 0.3 -0.5
v 0.3 0 -0.5
v 0.3 0.2 -0.5
v 0.3 0.3 -0.5
v 0.3 0.4 -0.5
v 0.4 0.3 -0.5
v 0.4 0.4 -0.5
v 0.4 0.5 -0.5
v 0.4 0.6 -0.5
v 0.5 0.5 -0.5
v 0.5 0.6 -0.5
v -0.3 0.4 -0.6
v -0.3 0.5 -0.6
v -0.3 0.6 -0.6
v -0.2 0.3 -0.6
v -0.2 0.4 -0.6
v -0.2 0.5 -0.6
v -0.2 0.6 -0.6
v -0.1 0 -0.6
v -0.1 0.2 -0.6
v -0.1 0.3 -0.6
v 0 0.5 -0.6
v 0 0.6 -0.6
v 0.2 0 -0.6
v 0.2 0.2 -0.6
v 0.2 0.3 -0.6
v 0.2 0.5 -0.6
v 0.2 0.6 -0.6
v 0.3 0.3 -0.6
v 0.3 0.4 -0.6
v 0.4 0.4 -0.6
v 0.4 0.6 -0.6
v -0.1 0 0.5
v 0.2 0 0.5
v -0.2 0 0.4
v -0.1 0 0.4
v 0.2 0 0.4
v 0.3 0 0.4
v -0.4 0 0.3
v -0.2 0 0.3
v 0.2 0 0.3
v 0.3 0 0.3
v 0.4 0 0.3
v 0.4 0 0.2
v 0.5 0 0.2
v 0.4 0 -0.3
v 0.5 0 -0.3
v -0.4 0 -0.4
v -0.2 0 -0.4
v 0.2 0 -0.4
v 0.3 0 -0.4
v 0.4 0 -0.4
v -0.2 0 -0.5
v -0.1 0 -0.5
v 0.2 0 -0.5
v 0.3 0 -0.5
v -0.1 0 -0.6
v 0.2 0 -0.6
v 0.4 0.2 0
v 0.5 0.2 0
v 0.4 0.2 -0.1
v 0.5 0.2 -0.1
v -0.2 0.3 0.5
v -0.1 0.3 0.5
v 0.2 0.3 0.5
v 0.3 0.3 0.5
v -0.3 0.3 0.4
v -0.2 0.3 0.4
v -0.1 0.3 0.4
v 0.2 0.3 0.4
v 0.3 0.3 0.4
v 0.4 0.3 0.4
v -0.4 0.3 0.3
v -0.3 0.3 0.3
v -0.2 0.3 0.3
v 0.3 0.3 0.3
v 0.4 0.3 0.3
v -0.4 0.3 0.1
v -0.3 0.3 0.1
v -0.4 0.3 -0.2
v -0.3 0.3 -0.2
v -0.4 0.3 -0.4
v -0.3 0.3 -0.4
v -0.2 0.3 -0.4
v 0.3 0.3 -0.4
v 0.4 0.3 -0.4
v -0.3 0.3 -0.5
v -0.2 0.3 -0.5
v -0.1 0.3 -0.5
v 0.2 0.3 -0.5
v 0.3 0.3 -0.5
v 0.4 0.3 -0.5
v -0.2 0.3 -0.6
v -0.1 0.3 -0.6
v 0.2 0.3 -0.6
v 0.3 0.3 -0.6
v -0.3 0.4 0.5
v -0.2 0.4 0.5
v 0.3 0.4 0.5
v 0.4 0.4 0.5
v -0.4 0.4 0.4
v -0.3 0.4 0.4
v -0.2 0.4 0.4
v 0.3 0.4 0.4
v 0.4 0.4 0.4
v -0.4 0.4 0.3
v -0.3 0.4 0.3
v 0.4 0.4 0.2
v 0.5 0.4 0.2
v 0.4 0.4 0.1
v 0.5 0.4 0.1
v -0.5 0.4 0
v -0.4 0.4 0
v -0.5 0.4 -0.1
v -0.4 0.4 -0.1
v 0.4 0.4 -0.2
v 0.5 0.4 -0.2
v 0.4 0.4 -0.3
v 0.5 0.4 -0.3
v -0.4 0.4 -0.4
v -0.3 0.4 -0.4
v -0.4 0.4 -0.5
v -0.3 0.4 -0.5
v -0.2 0.4 -0.5
v 0.3 0.4 -0.5
v 0.4 0.4 -0.5
v -0.3 0.4 -0.6
v -0.2 0.4 -0.6
v 0.3 0.4 -0.6
v 0.4 0.4 -0.6
v 0.4 0.5 0.4
v 0.5 0.5 0.4
v 0.4 0.5 0.3
v 0.5 0.5 0.3
v 0.4 0.5 0.2
v 0.5 0.5 0.2
v 0.4 0.5 -0.3
v 0.5 0.5 -0.3
v 0.4 0.5 -0.4
v 0.5 0.5 -0.4
v 0.4 0.5 -0.5
v 0.5 0.5 -0.5
v -0.4 0.1 0.3
v -0.3 0.1 0.3
v -0.4 0.1 0.1
v -0.3 0.1 0.1
v 0.4 0.1 0
v 0.5 0.1 0
v 0.4 0.1 -0.1
v 0.5 0.1 -0.1
v -0.4 0.1 -0.2
v -0.3 0.1 -0.2
v -0.4 0.1 -0.4
v -0.3 0.1 -0.4
v 0.4 0.3 0.2
v 0.5 0.3 0.2
v 0.4 0.3 0.1
v 0.5 0.3 0.1
v 0.4 0.3 -0.2
v 0.5 0.3 -0.2
v 0.4 0.3 -0.3
v 0.5 0.3 -0.3
v 0.4 0.4 0
v 0.5 0.4 0
v 0.4 0.4 -0.1
v 0.5 0.4 -0.1
v -0.3 0.6 0.5
v -0.2 0.6 0.5
v 0 0.6 0.5
v 0.2 0.6 0.5
v 0.4 0.6 0.5
v -0.4 0.6 0.4
v -0.3 0.6 0.4
v 0.4 0.6 0.4
v 0.5 0.6 0.4
v -0.4 0.6 0.3
v -0.2 0.6 0.3
v 0 0.6 0.3
v 0.2 0.6 0.3
v 0.4 0.6 0.3
v 0.5 0.6 0.3
v 0.4 0.6 0.2
v 0.5 0.6 0.2
v -0.5 0.6 0
v -0.4 0.6 0
v -0.2 0.6 0
v 0.2 0.6 0
v 0.4 0.6 0
v 0.5 0.6 0
v -0.5 0.6 -0.1
v -0.4 0.6 -0.1
v -0.2 0.6 -0.1
v 0.2 0.6 -0.1
v 0.4 0.6 -0.1
v 0.5 0.6 -0.1
v 0.4 0.6 -0.3
v 0.5 0.6 -0.3
v -0.4 0.6 -0.4
v -0.2 0.6 -0.4
v 0 0.6 -0.4
v 0.2 0.6 -0.4
v 0.4 0.6 -0.4
v 0.5 0.6 -0.4
v -0.4 0.6 -0.5
v -0.3 0.6 -0.5
v 0.4 0.6 -0.5
v 0.5 0.6 -0.5
v -0.3 0.6 -0.6
v -0.2 0.6 -0.6
v 0 0.6 -0.6
v 0.2 0.6 -0.6
v 0.4 0.6 -0.6

# faces
f 3/13/1 2/13/1 1/13/1
f 4/13/1 2/13/1 3/13/1
f 7/4/1 6/4/1 5/4/1
f 8/4/1 6/4/1 7/4/1
f 9/4/1 6/4/1 8/4/1
f 10/4/1 6/4/1 9/4/1
f 11/4/1 9/4/1 8/4/1
f 12/4/1 9/4/1 11/4/1
f 13/4/1 9/4/1 12/4/1
f 14/4/1 9/4/1 13/4/1
f 16/2/1 12/2/1 11/2/1
f 17/13/1 13/13/1 12/13/1
f 17/2/1 12/2/1 16/2/1
f 18/2/1 14/2/1 13/2/1
f 18/13/1 13/13/1 17/13/1
f 19/2/1 14/2/1 18/2/1
f 22/3/1 16/3/1 15/3/1
f 22/3/1 17/3/1 16/3/1
f 23/13/1 18/13/1 17/13/1
f 23/3/1 17/3/1 22/3/1
f 24/3/1 19/3/1 18/3/1
f 24/13/1 18/13/1 23/13/1
f 24/3/1 20/3/1 19/3/1
f 25/3/1 20/3/1 24/3/1
f 27/1/1 22/1/1 21/1/1
f 28/3/1 23/3/1 22/3/1
f 28/1/1 22/1/1 27/1/1
f 29/3/1 23/3/1 28/3/1
f 30/3/1 25/3/1 24/3/1
f 31/1/1 26/1/1 25/1/1
f 31/3/1 25/3/1 30/3/1
f 32/1/1 26/1/1 31/1/1
f 33/2/1 28/2/1 27/2/1
f 34/1/1 29/1/1 28/1/1
f 34/2/1 28/2/1 33/2/1
f 35/1/1 29/1/1 34/1/1
f 36/1/1 31/1/1 30/1/1
f 37/2/1 32/2/1 31/2/1
f 37/1/1 31/1/1 36/1/1
f 38/2/1 32/2/1 37/2/1
f 43/4/1 40/4/1 39/4/1
f 44/4/1 40/4/1 43/4/1
f 45/4/1 42/4/1 41/4/1
f 46/4/1 42/4/1 45/4/1
f 48/2/1 44/2/1 43/2/1
f 49/2/1 44/2/1 48/2/1
f 50/2/1 46/2/1 45/2/1
f 51/2/1 46/2/1 50/2/1
f 54/1/1 48/1/1 47/1/1
f 55/1/1 48/1/1 54/1/1
f 56/1/1 52/1/1 51/1/1
f 57/1/1 52/1/1 56/1/1
f 59/1/1 54/1/1 53/1/1
f 60/1/1 54/1/1 59/1/1
f 61/1/1 58/1/1 57/1/1
f 62/1/1 58/1/1 61/1/1
f 63/2/1 60/2/1 59/2/1
f 64/2/1 60/2/1 63/2/1
f 65/2/1 62/2/1 61/2/1
f 66/2/1 62/2/1 65/2/1
f 71/4/1 68/4/1 67/4/1
f 72/4/1 68/4/1 71/4/1
f 73/4/1 70/4/1 69/4/1
f 74/4/1 70/4/1 73/4/1
f 76/2/1 72/2/1 71/2/1
f 77/2/1 72/2/1 76/2/1
f 78/2/1 74/2/1 73/2/1
f 79/2/1 74/2/1 78/2/1
f 81/6/1 76/6/1 75/6/1
f 82/6/1 76/6/1 81/6/1
f 83/6/1 80/6/1 79/6/1
f 84/6/1 80/6/1 83/6/1
f 89/4/1 86/4/1 85/4/1
f 90/4/1 86/4/1 89/4/1
f 91/4/1 88/4/1 87/4/1
f 92/4/1 88/4/1 91/4/1
f 93/2/1 90/2/1 89/2/1
f 94/2/1 90/2/1 93/2/1
f 95/2/1 92/2/1 91/2/1
f 96/2/1 92/2/1 95/2/1
f 97/4/2 98/4/2 101/4/2
f 101/4/2 98/4/2 102/4/2
f 99/4/2 100/4/2 103/4/2
f 103/4/2 100/4/2 104/4/2
f 101/2/2 102/2/2 105/2/2
f 105/2/2 102/2/2 106/2/2
f 103/2/2 104/2/2 107/2/2
f 107/2/2 104/2/2 108/2/2
f 109/5/2 110/5/2 113/5/2
f 113/5/2 110/5/2 114/5/2
f 111/5/2 112/5/2 115/5/2
f 115/5/2 112/5/2 116/5/2
f 113/2/2 114/2/2 118/2/2
f 118/2/2 114/2/2 119/2/2
f 115/2/2 116/2/2 120/2/2
f 120/2/2 116/2/2 121/2/2
f 117/6/2 118/6/2 123/6/2
f 123/6/2 118/6/2 124/6/2
f 121/6/2 122/6/2 125/6/2
f 125/6/2 122/6/2 126/6/2
f 127/10/2 128/10/2 133/10/2
f 133/10/2 128/10/2 134/10/2
f 131/10/2 132/10/2 135/10/2
f 135/10/2 132/10/2 136/10/2
f 129/10/2 130/10/2 137/10/2
f 137/10/2 130/10/2 138/10/2
f 133/2/2 134/2/2 140/2/2
f 140/2/2 134/2/2 141/2/2
f 137/2/2 138/2/2 144/2/2
f 144/2/2 138/2/2 145/2/2
f 139/6/2 140/6/2 148/6/2
f 141/2/2 142/2/2 149/2/2
f 140/2/2 141/2/2 149/2/2
f 149/2/2 142/2/2 150/2/2
f 144/2/2 145/2/2 153/2/2
f 143/2/2 144/2/2 153/2/2
f 153/2/2 145/2/2 154/2/2
f 145/6/2 146/6/2 155/6/2
f 147/6/2 148/6/2 157/6/2
f 148/6/2 140/6/2 157/6/2
f 140/2/2 149/2/2 158/2/2
f 157/6/2 140/6/2 158/6/2
f 158/2/2 149/2/2 159/2/2
f 151/6/2 152/6/2 160/6/2
f 160/6/2 152/6/2 161/6/2
f 154/2/2 145/2/2 162/2/2
f 155/6/2 156/6/2 163/6/2
f 162/2/2 145/2/2 163/2/2
f 145/6/2 155/6/2 163/6/2
f 163/6/2 156/6/2 164/6/2
f 147/6/2 157/6/2 165/6/2
f 165/6/2 157/6/2 166/6/2
f 160/9/2 161/9/2 167/9/2
f 167/9/2 161/9/2 168/9/2
f 164/6/2 156/6/2 169/6/2
f 169/6/2 156/6/2 170/6/2
f 171/12/2 172/12/2 173/12/2
f 173/12/2 172/12/2 174/12/2
f 171/12/2 173/12/2 175/12/2
f 175/12/2 173/12/2 176/12/2
f 174/12/2 172/12/2 177/12/2
f 177/12/2 172/12/2 178/12/2
f 175/1/2 176/1/2 179/1/2
f 179/1/2 176/1/2 180/1/2
f 176/6/2 177/6/2 181/6/2
f 180/1/2 176/1/2 181/1/2
f 177/1/2 178/1/2 182/1/2
f 181/6/2 177/6/2 182/6/2
f 182/1/2 178/1/2 183/1/2
f 183/1/2 178/1/2 184/1/2
f 180/2/2 181/2/2 186/2/2
f 181/13/2 182/13/2 187/13/2
f 186/2/2 181/2/2 187/2/2
f 182/2/2 183/2/2 188/2/2
f 187/13/2 182/13/2 188/13/2
f 188/2/2 183/2/2 189/2/2
f 186/2/2 187/2/2 193/2/2
f 185/2/2 186/2/2 193/2/2
f 193/2/2 187/2/2 194/2/2
f 188/2/2 189/2/2 195/2/2
f 189/2/2 190/2/2 195/2/2
f 195/2/2 190/2/2 196/2/2
f 191/13/2 192/13/2 199/13/2
f 192/11/2 193/11/2 200/11/2
f 199/13/2 192/13/2 200/13/2
f 193/6/2 194/6/2 201/6/2
f 200/11/2 193/11/2 201/11/2
f 201/6/2 194/6/2 202/6/2
f 195/6/2 196/6/2 203/6/2
f 196/11/2 197/11/2 204/11/2
f 203/6/2 196/6/2 204/6/2
f 197/13/2 198/13/2 205/13/2
f 204/11/2 197/11/2 205/11/2
f 205/13/2 198/13/2 206/13/2
f 211/1/3 208/1/3 207/1/3
f 212/2/3 209/2/3 208/2/3
f 212/1/3 208/1/3 211/1/3
f 213/2/3 209/2/3 212/2/3
f 216/6/3 211/6/3 210/6/3
f 216/6/3 212/6/3 211/6/3
f 216/6/3 213/6/3 212/6/3
f 217/6/3 213/6/3 216/6/3
f 218/6/3 213/6/3 217/6/3
f 219/4/3 215/4/3 214/4/3
f 220/2/3 216/2/3 215/2/3
f 220/4/3 215/4/3 219/4/3
f 221/6/3 217/6/3 216/6/3
f 221/2/3 216/2/3 220/2/3
f 222/9/3 218/9/3 217/9/3
f 222/6/3 217/6/3 221/6/3
f 223/9/3 218/9/3 222/9/3
f 224/6/3 223/6/3 222/6/3
f 224/6/3 222/6/3 221/6/3
f 225/6/3 223/6/3 224/6/3
f 226/6/3 223/6/3 225/6/3
f 227/6/3 223/6/3 226/6/3
f 232/1/3 229/1/3 228/1/3
f 233/2/3 230/2/3 229/2/3
f 233/1/3 229/1/3 232/1/3
f 234/2/3 230/2/3 233/2/3
f 237/1/3 232/1/3 231/1/3
f 238/1/3 232/1/3 237/1/3
f 239/4/3 236/4/3 235/4/3
f 240/2/3 237/2/3 236/2/3
f 240/4/3 236/4/3 239/4/3
f 241/2/3 237/2/3 240/2/3
f 245/5/3 243/5/3 242/5/3
f 246/2/3 244/2/3 243/2/3
f 246/5/3 243/5/3 245/5/3
f 247/2/3 244/2/3 246/2/3
f 249/6/3 248/6/3 247/6/3
f 250/6/3 248/6/3 249/6/3
f 253/13/3 252/13/3 251/13/3
f 254/13/3 252/13/3 253/13/3
f 259/4/3 256/4/3 255/4/3
f 261/3/3 258/3/3 257/3/3
f 262/3/3 258/3/3 261/3/3
f 263/4/3 260/4/3 259/4/3
f 263/4/3 259/4/3 255/4/3
f 264/2/3 261/2/3 260/2/3
f 264/4/3 260/4/3 263/4/3
f 265/2/3 261/2/3 264/2/3
f 269/10/3 267/10/3 266/10/3
f 270/2/3 268/2/3 267/2/3
f 270/10/3 267/10/3 269/10/3
f 271/2/3 268/2/3 270/2/3
f 277/12/3 273/12/3 272/12/3
f 278/1/3 274/1/3 273/1/3
f 278/12/3 273/12/3 277/12/3
f 279/1/3 274/1/3 278/1/3
f 280/2/3 276/2/3 275/2/3
f 281/2/3 276/2/3 280/2/3
f 285/4/3 283/4/3 282/4/3
f 286/2/3 284/2/3 283/2/3
f 286/4/3 283/4/3 285/4/3
f 287/2/3 284/2/3 286/2/3
f 290/2/3 289/2/3 288/2/3
f 291/2/3 289/2/3 290/2/3
f 294/13/3 293/13/3 292/13/3
f 295/13/3 293/13/3 294/13/3
f 296/13/3 293/13/3 295/13/3
f 302/12/3 298/12/3 297/12/3
f 303/12/3 298/12/3 302/12/3
f 304/2/3 300/2/3 299/2/3
f 305/6/3 301/6/3 300/6/3
f 305/2/3 300/2/3 304/2/3
f 306/6/3 301/6/3 305/6/3
f 307/12/4 308/12/4 312/12/4
f 312/12/4 308/12/4 313/12/4
f 309/2/4 310/2/4 314/2/4
f 310/6/4 311/6/4 315/6/4
f 314/2/4 310/2/4 315/2/4
f 315/6/4 311/6/4 316/6/4
f 317/13/4 318/13/4 319/13/4
f 319/13/4 318/13/4 320/13/4
f 320/13/4 318/13/4 321/13/4
f 322/4/4 323/4/4 325/4/4
f 323/2/4 324/2/4 326/2/4
f 325/4/4 323/4/4 326/4/4
f 326/2/4 324/2/4 327/2/4
f 328/2/4 329/2/4 330/2/4
f 330/2/4 329/2/4 331/2/4
f 332/12/4 333/12/4 337/12/4
f 333/1/4 334/1/4 338/1/4
f 337/12/4 333/12/4 338/12/4
f 338/1/4 334/1/4 339/1/4
f 335/2/4 336/2/4 340/2/4
f 340/2/4 336/2/4 341/2/4
f 342/4/4 343/4/4 346/4/4
f 344/3/4 345/3/4 348/3/4
f 348/3/4 345/3/4 349/3/4
f 346/4/4 347/4/4 350/4/4
f 342/4/4 346/4/4 350/4/4
f 347/2/4 348/2/4 351/2/4
f 350/4/4 347/4/4 351/4/4
f 351/2/4 348/2/4 352/2/4
f 353/10/4 354/10/4 356/10/4
f 354/2/4 355/2/4 357/2/4
f 356/10/4 354/10/4 357/10/4
f 357/2/4 355/2/4 358/2/4
f 359/1/4 360/1/4 363/1/4
f 360/2/4 361/2/4 364/2/4
f 363/1/4 360/1/4 364/1/4
f 364/2/4 361/2/4 365/2/4
f 362/1/4 363/1/4 368/1/4
f 368/1/4 363/1/4 369/1/4
f 366/4/4 367/4/4 370/4/4
f 367/2/4 368/2/4 371/2/4
f 370/4/4 367/4/4 371/4/4
f 371/2/4 368/2/4 372/2/4
f 373/5/4 374/5/4 376/5/4
f 374/2/4 375/2/4 377/2/4
f 376/5/4 374/5/4 377/5/4
f 377/2/4 375/2/4 378/2/4
f 378/6/4 379/6/4 380/6/4
f 380/6/4 379/6/4 381/6/4
f 382/13/4 383/13/4 384/13/4
f 384/13/4 383/13/4 385/13/4
f 386/1/4 387/1/4 390/1/4
f 387/2/4 388/2/4 391/2/4
f 390/1/4 387/1/4 391/1/4
f 391/2/4 388/2/4 392/2/4
f 389/6/4 390/6/4 395/6/4
f 390/6/4 391/6/4 395/6/4
f 391/6/4 392/6/4 395/6/4
f 395/6/4 392/6/4 396/6/4
f 396/6/4 392/6/4 397/6/4
f 393/4/4 394/4/4 398/4/4
f 394/2/4 395/2/4 399/2/4
f 398/4/4 394/4/4 399/4/4
f 395/6/4 396/6/4 400/6/4
f 399/2/4 395/2/4 400/2/4
f 396/9/4 397/9/4 401/9/4
f 400/6/4 396/6/4 401/6/4
f 401/9/4 397/9/4 402/9/4
f 401/6/4 402/6/4 403/6/4
f 400/6/4 401/6/4 403/6/4
f 403/6/4 402/6/4 404/6/4
f 404/6/4 402/6/4 405/6/4
f 405/6/4 402/6/4 406/6/4
f 410/4/5 408/4/5 407/4/5
f 411/4/5 408/4/5 410/4/5
f 414/4/5 410/4/5 409/4/5
f 414/4/5 411/4/5 410/4/5
f 415/5/5 412/5/5 411/5/5
f 415/4/5 411/4/5 414/4/5
f 416/5/5 412/5/5 415/5/5
f 418/10/5 416/10/5 415/10/5
f 418/10/5 417/10/5 416/10/5
f 420/10/5 418/10/5 415/10/5
f 420/12/5 419/12/5 418/12/5
f 421/12/5 419/12/5 420/12/5
f 422/4/5 414/4/5 413/4/5
f 423/7/5 415/7/5 414/7/5
f 423/4/5 414/4/5 422/4/5
f 424/10/5 420/10/5 415/10/5
f 424/7/5 415/7/5 423/7/5
f 425/10/5 420/10/5 424/10/5
f 426/10/5 420/10/5 425/10/5
f 427/4/5 424/4/5 423/4/5
f 428/4/5 424/4/5 427/4/5
f 429/5/5 425/5/5 424/5/5
f 429/4/5 424/4/5 428/4/5
f 430/5/5 425/5/5 429/5/5
f 431/4/5 429/4/5 428/4/5
f 432/4/5 429/4/5 431/4/5
f 435/6/5 434/6/5 433/6/5
f 436/6/5 434/6/5 435/6/5
f 442/6/5 438/6/5 437/6/5
f 443/6/5 438/6/5 442/6/5
f 444/6/5 440/6/5 439/6/5
f 445/6/5 440/6/5 444/6/5
f 448/1/5 442/1/5 441/1/5
f 449/1/5 442/1/5 448/1/5
f 450/6/5 446/6/5 445/6/5
f 451/6/5 446/6/5 450/6/5
f 452/3/5 448/3/5 447/3/5
f 453/3/5 448/3/5 452/3/5
f 456/3/5 455/3/5 454/3/5
f 457/3/5 455/3/5 456/3/5
f 461/1/5 458/1/5 457/1/5
f 462/1/5 458/1/5 461/1/5
f 465/6/5 460/6/5 459/6/5
f 466/6/5 460/6/5 465/6/5
f 467/6/5 463/6/5 462/6/5
f 468/6/5 463/6/5 467/6/5
f 469/6/5 465/6/5 464/6/5
f 470/6/5 465/6/5 469/6/5
f 476/1/5 472/1/5 471/1/5
f 477/1/5 472/1/5 476/1/5
f 478/6/5 474/6/5 473/6/5
f 479/6/5 474/6/5 478/6/5
f 480/1/5 476/1/5 475/1/5
f 481/1/5 476/1/5 480/1/5
f 484/2/5 483/2/5 482/2/5
f 485/2/5 483/2/5 484/2/5
f 488/13/5 487/13/5 486/13/5
f 489/13/5 487/13/5 488/13/5
f 492/2/5 491/2/5 490/2/5
f 493/2/5 491/2/5 492/2/5
f 496/1/5 495/1/5 494/1/5
f 497/1/5 495/1/5 496/1/5
f 501/1/5 498/1/5 497/1/5
f 502/1/5 498/1/5 501/1/5
f 503/6/5 500/6/5 499/6/5
f 504/6/5 500/6/5 503/6/5
f 507/13/5 506/13/5 505/13/5
f 508/13/5 506/13/5 507/13/5
f 509/11/5 508/11/5 507/11/5
f 510/11/5 508/11/5 509/11/5
f 513/11/5 512/11/5 511/11/5
f 514/11/5 512/11/5 513/11/5
f 515/13/5 514/13/5 513/13/5
f 516/13/5 514/13/5 515/13/5
f 517/4/6 518/4/6 519/4/6
f 519/4/6 518/4/6 520/4/6
f 521/12/6 522/12/6 523/12/6
f 523/12/6 522/12/6 524/12/6
f 525/4/6 526/4/6 527/4/6
f 527/4/6 526/4/6 528/4/6
f 529/1/6 530/1/6 531/1/6
f 531/1/6 530/1/6 532/1/6
f 533/1/6 534/1/6 535/1/6
f 535/1/6 534/1/6 536/1/6
f 537/13/6 538/13/6 539/13/6
f 539/13/6 538/13/6 540/13/6
f 541/2/6 542/2/6 547/2/6
f 544/6/6 545/6/6 548/6/6
f 546/2/6 547/2/6 550/2/6
f 542/6/6 543/6/6 551/6/6
f 550/2/6 547/2/6 551/2/6
f 547/2/6 542/2/6 551/2/6
f 543/9/6 544/9/6 552/9/6
f 551/6/6 543/6/6 552/6/6
f 544/6/6 548/6/6 553/6/6
f 552/9/6 544/9/6 553/9/6
f 548/13/6 549/13/6 554/13/6
f 553/6/6 548/6/6 554/6/6
f 554/13/6 549/13/6 555/13/6
f 553/4/6 554/4/6 556/4/6
f 554/11/6 555/11/6 556/11/6
f 556/11/6 555/11/6 557/11/6
f 550/1/6 551/1/6 559/1/6
f 552/7/6 553/7/6 560/7/6
f 551/7/6 552/7/6 560/7/6
f 559/1/6 551/1/6 560/1/6
f 553/4/6 556/4/6 561/4/6
f 560/7/6 553/7/6 561/7/6
f 556/6/6 557/6/6 562/6/6
f 561/4/6 556/4/6 562/4/6
f 562/6/6 557/6/6 563/6/6
f 558/13/6 559/13/6 564/13/6
f 559/6/6 560/6/6 565/6/6
f 564/13/6 559/13/6 565/13/6
f 560/7/6 561/7/6 566/7/6
f 565/6/6 560/6/6 566/6/6
f 561/9/6 562/9/6 567/9/6
f 566/7/6 561/7/6 567/7/6
f 567/9/6 562/9/6 568/9/6
f 568/6/6 569/6/6 570/6/6
f 567/4/6 568/4/6 570/4/6
f 570/6/6 569/6/6 571/6/6
f 565/1/6 566/1/6 572/1/6
f 566/7/6 567/7/6 573/7/6
f 572/1/6 566/1/6 573/1/6
f 573/7/6 567/7/6 574/7/6
f 567/4/6 570/4/6 575/4/6
f 574/7/6 567/7/6 575/7/6
f 570/11/6 571/11/6 576/11/6
f 575/4/6 570/4/6 576/4/6
f 576/11/6 571/11/6 577/11/6
f 572/2/6 573/2/6 578/2/6
f 578/2/6 573/2/6 579/2/6
f 575/6/6 576/6/6 580/6/6
f 576/13/6 577/13/6 580/13/6
f 580/13/6 577/13/6 581/13/6
f 579/2/6 573/2/6 582/2/6
f 573/6/6 574/6/6 583/6/6
f 582/2/6 573/2/6 583/2/6
f 574/9/6 575/9/6 584/9/6
f 583/6/6 574/6/6 584/6/6
f 575/6/6 580/6/6 585/6/6
f 584/9/6 575/9/6 585/9/6
f 585/6/6 580/6/6 586/6/6
