# MagicaVoxel @ Ephtracy

# group
o 

# material
mtllib MaleClavicleRight.mtl
usemtl palette

# normals
vn -1 0 0
vn 1 0 0
vn 0 0 1
vn 0 0 -1
vn 0 -1 0
vn 0 1 0

# texcoords
vt 0.00195312 0.5
vt 0.00585938 0.5
vt 0.0332031 0.5
vt 0.0410156 0.5
vt 0.0449219 0.5
vt 0.978516 0.5

# verts
v -0.4 0.8 -0.6
v -0.4 0.8 -0.7
v -0.4 0.9 -0.6
v -0.4 0.9 -0.7
v -0.4 1.1 -0.6
v -0.4 1.1 -0.7
v -0.3 0.8 -0.7
v -0.3 0.8 -0.8
v -0.3 0.9 -0.7
v -0.3 1 -0.7
v -0.3 1 -0.8
v -0.2 0.8 -0.8
v -0.2 0.8 -0.9
v -0.2 0.9 -0.8
v -0.2 0.9 -0.9
v -0.2 1 -0.7
v -0.2 1 -0.8
v -0.2 1 -0.9
v -0.2 1.1 -0.6
v -0.2 1.1 -0.7
v -0.2 1.1 -0.8
v -0.2 1.2 -0.6
v -0.2 1.2 -0.7
v -0.1 1 -0.8
v -0.1 1 -0.9
v -0.1 1.1 -0.7
v -0.1 1.1 -0.8
v -0.1 1.1 -0.9
v -0.1 1.2 -0.7
v -0.1 1.2 -0.8
v 0.2 1 -0.8
v 0.2 1 -0.9
v 0.2 1.1 -0.7
v 0.2 1.1 -0.8
v 0.2 1.1 -0.9
v 0.2 1.2 -0.7
v 0.2 1.2 -0.8
v 0.3 0.9 -0.8
v 0.3 0.9 -0.9
v 0.3 1 -0.8
v 0.3 1 -0.9
v 0.3 1.1 -0.6
v 0.3 1.1 -0.7
v 0.3 1.2 -0.6
v 0.3 1.2 -0.7
v 0.4 0.8 -0.7
v 0.4 0.8 -0.9
v 0.4 0.9 -0.7
v 0.4 0.9 -0.8
v 0.4 0.9 -0.9
v 0.4 1.1 -0.7
v 0.4 1.1 -0.8
v 0.5 0.8 -0.6
v 0.5 0.8 -0.7
v 0.5 0.9 -0.6
v 0.5 0.9 -0.7
v 0.5 1.1 -0.6
v 0.5 1.1 -0.7
v -0.4 0.8 -0.6
v -0.4 0.9 -0.6
v -0.4 1.1 -0.6
v -0.2 0.8 -0.6
v -0.2 0.9 -0.6
v -0.2 1.1 -0.6
v -0.2 1.2 -0.6
v 0.2 0.8 -0.6
v 0.2 0.9 -0.6
v 0.2 1.1 -0.6
v 0.2 1.2 -0.6
v 0.3 1.1 -0.6
v 0.3 1.2 -0.6
v 0.4 0.8 -0.6
v 0.4 0.9 -0.6
v 0.4 1.1 -0.6
v 0.5 0.8 -0.6
v 0.5 0.9 -0.6
v 0.5 1.1 -0.6
v -0.4 0.8 -0.7
v -0.4 0.9 -0.7
v -0.4 1.1 -0.7
v -0.3 0.8 -0.7
v -0.3 0.9 -0.7
v -0.3 1 -0.7
v -0.2 1 -0.7
v -0.2 1.1 -0.7
v -0.2 1.2 -0.7
v -0.1 1.1 -0.7
v -0.1 1.2 -0.7
v 0.2 1.1 -0.7
v 0.2 1.2 -0.7
v 0.3 1.1 -0.7
v 0.3 1.2 -0.7
v 0.4 0.8 -0.7
v 0.4 0.9 -0.7
v 0.4 1.1 -0.7
v 0.5 0.8 -0.7
v 0.5 0.9 -0.7
v 0.5 1.1 -0.7
v -0.3 0.8 -0.8
v -0.3 1 -0.8
v -0.2 0.8 -0.8
v -0.2 0.9 -0.8
v -0.2 1 -0.8
v -0.2 1.1 -0.8
v -0.1 1 -0.8
v -0.1 1.1 -0.8
v -0.1 1.2 -0.8
v 0.2 1 -0.8
v 0.2 1.1 -0.8
v 0.2 1.2 -0.8
v 0.3 0.9 -0.8
v 0.3 1 -0.8
v 0.4 0.9 -0.8
v 0.4 1.1 -0.8
v -0.2 0.8 -0.9
v -0.2 0.9 -0.9
v -0.2 1 -0.9
v -0.1 1 -0.9
v -0.1 1.1 -0.9
v 0.2 0.8 -0.9
v 0.2 0.9 -0.9
v 0.2 1 -0.9
v 0.2 1.1 -0.9
v 0.3 0.9 -0.9
v 0.3 1 -0.9
v 0.4 0.8 -0.9
v 0.4 0.9 -0.9
v -0.4 0.8 -0.6
v -0.2 0.8 -0.6
v 0.2 0.8 -0.6
v 0.4 0.8 -0.6
v 0.5 0.8 -0.6
v -0.4 0.8 -0.7
v -0.3 0.8 -0.7
v -0.2 0.8 -0.7
v 0.2 0.8 -0.7
v 0.4 0.8 -0.7
v 0.5 0.8 -0.7
v -0.3 0.8 -0.8
v -0.2 0.8 -0.8
v -0.2 0.8 -0.9
v 0.2 0.8 -0.9
v 0.4 0.8 -0.9
v 0.3 0.9 -0.8
v 0.4 0.9 -0.8
v 0.3 0.9 -0.9
v 0.4 0.9 -0.9
v -0.3 1 -0.7
v -0.2 1 -0.7
v -0.3 1 -0.8
v -0.2 1 -0.8
v -0.1 1 -0.8
v 0.2 1 -0.8
v 0.3 1 -0.8
v -0.2 1 -0.9
v -0.1 1 -0.9
v 0.2 1 -0.9
v 0.3 1 -0.9
v -0.4 1.1 -0.6
v -0.2 1.1 -0.6
v 0.3 1.1 -0.6
v 0.4 1.1 -0.6
v 0.5 1.1 -0.6
v -0.4 1.1 -0.7
v -0.2 1.1 -0.7
v -0.1 1.1 -0.7
v 0.2 1.1 -0.7
v 0.3 1.1 -0.7
v 0.4 1.1 -0.7
v 0.5 1.1 -0.7
v -0.2 1.1 -0.8
v -0.1 1.1 -0.8
v 0.2 1.1 -0.8
v 0.4 1.1 -0.8
v -0.1 1.1 -0.9
v 0.2 1.1 -0.9
v -0.2 1.2 -0.6
v 0.2 1.2 -0.6
v 0.3 1.2 -0.6
v -0.2 1.2 -0.7
v -0.1 1.2 -0.7
v 0.2 1.2 -0.7
v 0.3 1.2 -0.7
v -0.1 1.2 -0.8
v 0.2 1.2 -0.8

# faces
f 3/1/1 2/1/1 1/1/1
f 4/1/1 2/1/1 3/1/1
f 5/4/1 4/4/1 3/4/1
f 6/4/1 4/4/1 5/4/1
f 9/6/1 8/6/1 7/6/1
f 10/6/1 8/6/1 9/6/1
f 11/6/1 8/6/1 10/6/1
f 14/2/1 13/2/1 12/2/1
f 15/2/1 13/2/1 14/2/1
f 17/4/1 15/4/1 14/4/1
f 18/4/1 15/4/1 17/4/1
f 20/4/1 17/4/1 16/4/1
f 21/4/1 17/4/1 20/4/1
f 22/4/1 20/4/1 19/4/1
f 23/4/1 20/4/1 22/4/1
f 27/4/1 25/4/1 24/4/1
f 28/4/1 25/4/1 27/4/1
f 29/6/1 27/6/1 26/6/1
f 30/6/1 27/6/1 29/6/1
f 31/4/2 32/4/2 34/4/2
f 34/4/2 32/4/2 35/4/2
f 33/6/2 34/6/2 36/6/2
f 36/6/2 34/6/2 37/6/2
f 38/6/2 39/6/2 40/6/2
f 40/6/2 39/6/2 41/6/2
f 42/6/2 43/6/2 44/6/2
f 44/6/2 43/6/2 45/6/2
f 46/1/2 47/1/2 48/1/2
f 48/1/2 47/1/2 49/1/2
f 49/1/2 47/1/2 50/1/2
f 48/6/2 49/6/2 51/6/2
f 51/6/2 49/6/2 52/6/2
f 53/4/2 54/4/2 55/4/2
f 55/4/2 54/4/2 56/4/2
f 55/6/2 56/6/2 57/6/2
f 57/6/2 56/6/2 58/6/2
f 62/1/3 60/1/3 59/1/3
f 63/4/3 61/4/3 60/4/3
f 63/1/3 60/1/3 62/1/3
f 64/4/3 61/4/3 63/4/3
f 66/5/3 63/5/3 62/5/3
f 66/5/3 64/5/3 63/5/3
f 67/5/3 64/5/3 66/5/3
f 68/4/3 65/4/3 64/4/3
f 68/5/3 64/5/3 67/5/3
f 69/4/3 65/4/3 68/4/3
f 70/4/3 68/4/3 67/4/3
f 70/6/3 69/6/3 68/6/3
f 71/6/3 69/6/3 70/6/3
f 72/3/3 67/3/3 66/3/3
f 73/4/3 70/4/3 67/4/3
f 73/3/3 67/3/3 72/3/3
f 74/4/3 70/4/3 73/4/3
f 75/4/3 73/4/3 72/4/3
f 76/6/3 74/6/3 73/6/3
f 76/4/3 73/4/3 75/4/3
f 77/6/3 74/6/3 76/6/3
f 78/1/4 79/1/4 81/1/4
f 79/4/4 80/4/4 82/4/4
f 81/1/4 79/1/4 82/1/4
f 82/4/4 80/4/4 83/4/4
f 83/4/4 80/4/4 84/4/4
f 84/4/4 80/4/4 85/4/4
f 85/4/4 86/4/4 87/4/4
f 87/4/4 86/4/4 88/4/4
f 89/6/4 90/6/4 91/6/4
f 91/6/4 90/6/4 92/6/4
f 93/4/4 94/4/4 96/4/4
f 94/6/4 95/6/4 97/6/4
f 96/4/4 94/4/4 97/4/4
f 97/6/4 95/6/4 98/6/4
f 99/6/4 100/6/4 101/6/4
f 101/6/4 100/6/4 102/6/4
f 102/6/4 100/6/4 103/6/4
f 103/4/4 104/4/4 105/4/4
f 105/4/4 104/4/4 106/4/4
f 106/6/4 107/6/4 109/6/4
f 109/6/4 107/6/4 110/6/4
f 108/6/4 109/6/4 112/6/4
f 111/6/4 112/6/4 113/6/4
f 112/6/4 109/6/4 114/6/4
f 113/6/4 112/6/4 114/6/4
f 116/4/4 117/4/4 118/4/4
f 115/2/4 116/2/4 120/2/4
f 118/4/4 119/4/4 121/4/4
f 120/2/4 116/2/4 121/2/4
f 116/4/4 118/4/4 121/4/4
f 121/4/4 119/4/4 122/4/4
f 122/4/4 119/4/4 123/4/4
f 120/1/4 121/1/4 124/1/4
f 121/6/4 122/6/4 124/6/4
f 124/6/4 122/6/4 125/6/4
f 120/1/4 124/1/4 126/1/4
f 126/1/4 124/1/4 127/1/4
f 133/1/5 129/1/5 128/1/5
f 134/1/5 129/1/5 133/1/5
f 135/5/5 130/5/5 129/5/5
f 135/1/5 129/1/5 134/1/5
f 136/3/5 131/3/5 130/3/5
f 136/5/5 130/5/5 135/5/5
f 137/4/5 132/4/5 131/4/5
f 137/3/5 131/3/5 136/3/5
f 138/4/5 132/4/5 137/4/5
f 139/6/5 135/6/5 134/6/5
f 140/2/5 136/2/5 135/2/5
f 140/6/5 135/6/5 139/6/5
f 141/2/5 136/2/5 140/2/5
f 142/1/5 137/1/5 136/1/5
f 142/2/5 136/2/5 141/2/5
f 143/1/5 137/1/5 142/1/5
f 144/1/6 145/1/6 146/1/6
f 146/1/6 145/1/6 147/1/6
f 148/6/6 149/6/6 150/6/6
f 150/6/6 149/6/6 151/6/6
f 151/4/6 152/4/6 155/4/6
f 155/4/6 152/4/6 156/4/6
f 153/6/6 154/6/6 157/6/6
f 157/6/6 154/6/6 158/6/6
f 159/4/6 160/4/6 164/4/6
f 164/4/6 160/4/6 165/4/6
f 161/4/6 162/4/6 168/4/6
f 162/6/6 163/6/6 169/6/6
f 168/4/6 162/4/6 169/4/6
f 169/6/6 163/6/6 170/6/6
f 165/4/6 166/4/6 171/4/6
f 171/4/6 166/4/6 172/4/6
f 167/6/6 168/6/6 173/6/6
f 168/6/6 169/6/6 173/6/6
f 173/6/6 169/6/6 174/6/6
f 172/4/6 173/4/6 175/4/6
f 175/4/6 173/4/6 176/4/6
f 177/4/6 178/4/6 180/4/6
f 180/4/6 178/4/6 181/4/6
f 178/6/6 179/6/6 182/6/6
f 181/4/6 178/4/6 182/4/6
f 182/6/6 179/6/6 183/6/6
f 181/6/6 182/6/6 184/6/6
f 184/6/6 182/6/6 185/6/6
