# MagicaVoxel @ Ephtracy

# group
o 

# material
mtllib MaleClavicleLeft.mtl
usemtl palette

# normals
vn -1 0 0
vn 1 0 0
vn 0 0 1
vn 0 0 -1
vn 0 -1 0
vn 0 1 0

# texcoords
vt 0.00195312 0.5
vt 0.00585938 0.5
vt 0.0332031 0.5
vt 0.0410156 0.5
vt 0.0449219 0.5
vt 0.978516 0.5

# verts
v -0.4 0.8 0.6
v -0.4 0.8 0.5
v -0.4 0.9 0.6
v -0.4 0.9 0.5
v -0.4 1.1 0.6
v -0.4 1.1 0.5
v -0.3 0.8 0.7
v -0.3 0.8 0.6
v -0.3 0.9 0.6
v -0.3 1 0.7
v -0.3 1 0.6
v -0.2 0.8 0.8
v -0.2 0.8 0.7
v -0.2 0.9 0.8
v -0.2 0.9 0.7
v -0.2 1 0.8
v -0.2 1 0.7
v -0.2 1 0.6
v -0.2 1.1 0.7
v -0.2 1.1 0.6
v -0.2 1.1 0.5
v -0.2 1.2 0.6
v -0.2 1.2 0.5
v -0.1 1 0.8
v -0.1 1 0.7
v -0.1 1.1 0.8
v -0.1 1.1 0.7
v -0.1 1.1 0.6
v -0.1 1.2 0.7
v -0.1 1.2 0.6
v 0.2 1 0.8
v 0.2 1 0.7
v 0.2 1.1 0.8
v 0.2 1.1 0.7
v 0.2 1.1 0.6
v 0.2 1.2 0.7
v 0.2 1.2 0.6
v 0.3 0.9 0.8
v 0.3 0.9 0.7
v 0.3 1 0.8
v 0.3 1 0.7
v 0.3 1.1 0.6
v 0.3 1.1 0.5
v 0.3 1.2 0.6
v 0.3 1.2 0.5
v 0.4 0.8 0.8
v 0.4 0.8 0.6
v 0.4 0.9 0.8
v 0.4 0.9 0.7
v 0.4 0.9 0.6
v 0.4 1.1 0.7
v 0.4 1.1 0.6
v 0.5 0.8 0.6
v 0.5 0.8 0.5
v 0.5 0.9 0.6
v 0.5 0.9 0.5
v 0.5 1.1 0.6
v 0.5 1.1 0.5
v -0.2 0.8 0.8
v -0.2 0.9 0.8
v -0.2 1 0.8
v -0.1 1 0.8
v -0.1 1.1 0.8
v 0.2 0.8 0.8
v 0.2 0.9 0.8
v 0.2 1 0.8
v 0.2 1.1 0.8
v 0.3 0.9 0.8
v 0.3 1 0.8
v 0.4 0.8 0.8
v 0.4 0.9 0.8
v -0.3 0.8 0.7
v -0.3 1 0.7
v -0.2 0.8 0.7
v -0.2 0.9 0.7
v -0.2 1 0.7
v -0.2 1.1 0.7
v -0.1 1 0.7
v -0.1 1.1 0.7
v -0.1 1.2 0.7
v 0.2 1 0.7
v 0.2 1.1 0.7
v 0.2 1.2 0.7
v 0.3 0.9 0.7
v 0.3 1 0.7
v 0.4 0.9 0.7
v 0.4 1.1 0.7
v -0.4 0.8 0.6
v -0.4 0.9 0.6
v -0.4 1.1 0.6
v -0.3 0.8 0.6
v -0.3 0.9 0.6
v -0.3 1 0.6
v -0.2 1 0.6
v -0.2 1.1 0.6
v -0.2 1.2 0.6
v -0.1 1.1 0.6
v -0.1 1.2 0.6
v 0.2 1.1 0.6
v 0.2 1.2 0.6
v 0.3 1.1 0.6
v 0.3 1.2 0.6
v 0.4 0.8 0.6
v 0.4 0.9 0.6
v 0.4 1.1 0.6
v 0.5 0.8 0.6
v 0.5 0.9 0.6
v 0.5 1.1 0.6
v -0.4 0.8 0.5
v -0.4 0.9 0.5
v -0.4 1.1 0.5
v -0.2 0.8 0.5
v -0.2 0.9 0.5
v -0.2 1.1 0.5
v -0.2 1.2 0.5
v 0.2 0.8 0.5
v 0.2 0.9 0.5
v 0.2 1.1 0.5
v 0.2 1.2 0.5
v 0.3 1.1 0.5
v 0.3 1.2 0.5
v 0.4 0.8 0.5
v 0.4 0.9 0.5
v 0.4 1.1 0.5
v 0.5 0.8 0.5
v 0.5 0.9 0.5
v 0.5 1.1 0.5
v -0.2 0.8 0.8
v 0.2 0.8 0.8
v 0.4 0.8 0.8
v -0.3 0.8 0.7
v -0.2 0.8 0.7
v -0.4 0.8 0.6
v -0.3 0.8 0.6
v -0.2 0.8 0.6
v 0.2 0.8 0.6
v 0.4 0.8 0.6
v 0.5 0.8 0.6
v -0.4 0.8 0.5
v -0.2 0.8 0.5
v 0.2 0.8 0.5
v 0.4 0.8 0.5
v 0.5 0.8 0.5
v 0.3 0.9 0.8
v 0.4 0.9 0.8
v 0.3 0.9 0.7
v 0.4 0.9 0.7
v -0.2 1 0.8
v -0.1 1 0.8
v 0.2 1 0.8
v 0.3 1 0.8
v -0.3 1 0.7
v -0.2 1 0.7
v -0.1 1 0.7
v 0.2 1 0.7
v 0.3 1 0.7
v -0.3 1 0.6
v -0.2 1 0.6
v -0.1 1.1 0.8
v 0.2 1.1 0.8
v -0.2 1.1 0.7
v -0.1 1.1 0.7
v 0.2 1.1 0.7
v 0.4 1.1 0.7
v -0.4 1.1 0.6
v -0.2 1.1 0.6
v -0.1 1.1 0.6
v 0.2 1.1 0.6
v 0.3 1.1 0.6
v 0.4 1.1 0.6
v 0.5 1.1 0.6
v -0.4 1.1 0.5
v -0.2 1.1 0.5
v 0.3 1.1 0.5
v 0.4 1.1 0.5
v 0.5 1.1 0.5
v -0.1 1.2 0.7
v 0.2 1.2 0.7
v -0.2 1.2 0.6
v -0.1 1.2 0.6
v 0.2 1.2 0.6
v 0.3 1.2 0.6
v -0.2 1.2 0.5
v 0.2 1.2 0.5
v 0.3 1.2 0.5

# faces
f 3/1/1 2/1/1 1/1/1
f 4/1/1 2/1/1 3/1/1
f 5/4/1 4/4/1 3/4/1
f 6/4/1 4/4/1 5/4/1
f 9/6/1 8/6/1 7/6/1
f 10/6/1 9/6/1 7/6/1
f 11/6/1 9/6/1 10/6/1
f 14/2/1 13/2/1 12/2/1
f 15/2/1 13/2/1 14/2/1
f 16/4/1 15/4/1 14/4/1
f 17/4/1 15/4/1 16/4/1
f 19/4/1 18/4/1 17/4/1
f 20/4/1 18/4/1 19/4/1
f 22/4/1 21/4/1 20/4/1
f 23/4/1 21/4/1 22/4/1
f 26/4/1 25/4/1 24/4/1
f 27/4/1 25/4/1 26/4/1
f 29/6/1 28/6/1 27/6/1
f 30/6/1 28/6/1 29/6/1
f 31/4/2 32/4/2 33/4/2
f 33/4/2 32/4/2 34/4/2
f 34/6/2 35/6/2 36/6/2
f 36/6/2 35/6/2 37/6/2
f 38/6/2 39/6/2 40/6/2
f 40/6/2 39/6/2 41/6/2
f 42/6/2 43/6/2 44/6/2
f 44/6/2 43/6/2 45/6/2
f 46/1/2 47/1/2 48/1/2
f 48/1/2 47/1/2 49/1/2
f 49/1/2 47/1/2 50/1/2
f 49/6/2 50/6/2 51/6/2
f 51/6/2 50/6/2 52/6/2
f 53/4/2 54/4/2 55/4/2
f 55/4/2 54/4/2 56/4/2
f 55/6/2 56/6/2 57/6/2
f 57/6/2 56/6/2 58/6/2
f 62/4/3 61/4/3 60/4/3
f 64/2/3 60/2/3 59/2/3
f 65/4/3 63/4/3 62/4/3
f 65/2/3 60/2/3 64/2/3
f 65/4/3 62/4/3 60/4/3
f 66/4/3 63/4/3 65/4/3
f 67/4/3 63/4/3 66/4/3
f 68/1/3 65/1/3 64/1/3
f 68/6/3 66/6/3 65/6/3
f 69/6/3 66/6/3 68/6/3
f 70/1/3 68/1/3 64/1/3
f 71/1/3 68/1/3 70/1/3
f 74/6/3 73/6/3 72/6/3
f 75/6/3 73/6/3 74/6/3
f 76/6/3 73/6/3 75/6/3
f 78/4/3 77/4/3 76/4/3
f 79/4/3 77/4/3 78/4/3
f 82/6/3 80/6/3 79/6/3
f 83/6/3 80/6/3 82/6/3
f 85/6/3 82/6/3 81/6/3
f 86/6/3 85/6/3 84/6/3
f 87/6/3 82/6/3 85/6/3
f 87/6/3 85/6/3 86/6/3
f 91/1/3 89/1/3 88/1/3
f 92/4/3 90/4/3 89/4/3
f 92/1/3 89/1/3 91/1/3
f 93/4/3 90/4/3 92/4/3
f 94/4/3 90/4/3 93/4/3
f 95/4/3 90/4/3 94/4/3
f 97/4/3 96/4/3 95/4/3
f 98/4/3 96/4/3 97/4/3
f 101/6/3 100/6/3 99/6/3
f 102/6/3 100/6/3 101/6/3
f 106/4/3 104/4/3 103/4/3
f 107/6/3 105/6/3 104/6/3
f 107/4/3 104/4/3 106/4/3
f 108/6/3 105/6/3 107/6/3
f 109/1/4 110/1/4 112/1/4
f 110/4/4 111/4/4 113/4/4
f 112/1/4 110/1/4 113/1/4
f 113/4/4 111/4/4 114/4/4
f 112/5/4 113/5/4 116/5/4
f 113/5/4 114/5/4 116/5/4
f 116/5/4 114/5/4 117/5/4
f 114/4/4 115/4/4 118/4/4
f 117/5/4 114/5/4 118/5/4
f 118/4/4 115/4/4 119/4/4
f 117/4/4 118/4/4 120/4/4
f 118/6/4 119/6/4 120/6/4
f 120/6/4 119/6/4 121/6/4
f 116/3/4 117/3/4 122/3/4
f 117/4/4 120/4/4 123/4/4
f 122/3/4 117/3/4 123/3/4
f 123/4/4 120/4/4 124/4/4
f 122/4/4 123/4/4 125/4/4
f 123/6/4 124/6/4 126/6/4
f 125/4/4 123/4/4 126/4/4
f 126/6/4 124/6/4 127/6/4
f 132/2/5 129/2/5 128/2/5
f 134/6/5 132/6/5 131/6/5
f 135/2/5 129/2/5 132/2/5
f 135/6/5 132/6/5 134/6/5
f 136/1/5 130/1/5 129/1/5
f 136/2/5 129/2/5 135/2/5
f 137/1/5 130/1/5 136/1/5
f 139/1/5 135/1/5 134/1/5
f 139/1/5 134/1/5 133/1/5
f 140/5/5 136/5/5 135/5/5
f 140/1/5 135/1/5 139/1/5
f 141/3/5 137/3/5 136/3/5
f 141/5/5 136/5/5 140/5/5
f 142/4/5 138/4/5 137/4/5
f 142/3/5 137/3/5 141/3/5
f 143/4/5 138/4/5 142/4/5
f 144/1/6 145/1/6 146/1/6
f 146/1/6 145/1/6 147/1/6
f 148/4/6 149/4/6 153/4/6
f 153/4/6 149/4/6 154/4/6
f 150/6/6 151/6/6 155/6/6
f 155/6/6 151/6/6 156/6/6
f 152/6/6 153/6/6 157/6/6
f 157/6/6 153/6/6 158/6/6
f 159/4/6 160/4/6 162/4/6
f 162/4/6 160/4/6 163/4/6
f 161/4/6 162/4/6 166/4/6
f 166/4/6 162/4/6 167/4/6
f 163/6/6 164/6/6 168/6/6
f 168/6/6 164/6/6 169/6/6
f 169/6/6 164/6/6 170/6/6
f 165/4/6 166/4/6 172/4/6
f 172/4/6 166/4/6 173/4/6
f 169/4/6 170/4/6 174/4/6
f 170/6/6 171/6/6 175/6/6
f 174/4/6 170/4/6 175/4/6
f 175/6/6 171/6/6 176/6/6
f 177/6/6 178/6/6 180/6/6
f 180/6/6 178/6/6 181/6/6
f 179/4/6 180/4/6 183/4/6
f 180/4/6 181/4/6 183/4/6
f 181/6/6 182/6/6 184/6/6
f 183/4/6 181/4/6 184/4/6
f 184/6/6 182/6/6 185/6/6
