# MagicaVoxel @ Ephtracy

# group
o 

# material
mtllib MaleHead1.mtl
usemtl palette

# normals
vn -1 0 0
vn 1 0 0
vn 0 0 1
vn 0 0 -1
vn 0 -1 0
vn 0 1 0

# texcoords
vt 0.00195312 0.5
vt 0.00585938 0.5
vt 0.00976562 0.5
vt 0.0136719 0.5
vt 0.0175781 0.5
vt 0.0214844 0.5
vt 0.0292969 0.5
vt 0.0332031 0.5
vt 0.0371094 0.5
vt 0.0410156 0.5
vt 0.0488281 0.5
vt 0.0527344 0.5
vt 0.0566406 0.5
vt 0.0644531 0.5
vt 0.0683594 0.5
vt 0.0722656 0.5
vt 0.0761719 0.5
vt 0.0800781 0.5
vt 0.978516 0.5

# verts
v -0.6 0 5.96046e-08
v -0.6 0 -0.1
v -0.6 0.1 0.1
v -0.6 0.1 5.96046e-08
v -0.6 0.1 -0.1
v -0.6 0.1 -0.2
v -0.6 0.2 0.1
v -0.6 0.2 5.96046e-08
v -0.6 0.2 -0.1
v -0.6 0.2 -0.2
v -0.6 0.3 0.2
v -0.6 0.3 0.1
v -0.6 0.3 -0.2
v -0.6 0.3 -0.3
v -0.6 0.4 0.1
v -0.6 0.4 5.96046e-08
v -0.6 0.4 -0.1
v -0.6 0.4 -0.2
v -0.6 0.6 0.2
v -0.6 0.6 0.1
v -0.6 0.6 5.96046e-08
v -0.6 0.6 -0.1
v -0.6 0.6 -0.2
v -0.6 0.6 -0.3
v -0.6 0.7 0.1
v -0.6 0.7 -0.2
v -0.5 -0.1 0.1
v -0.5 -0.1 -0.2
v -0.5 0 5.96046e-08
v -0.5 0 -0.1
v -0.5 0.1 0.2
v -0.5 0.1 0.1
v -0.5 0.1 5.96046e-08
v -0.5 0.1 -0.1
v -0.5 0.1 -0.2
v -0.5 0.1 -0.3
v -0.5 0.2 0.3
v -0.5 0.2 0.2
v -0.5 0.2 0.1
v -0.5 0.2 -0.2
v -0.5 0.2 -0.3
v -0.5 0.2 -0.4
v -0.5 0.3 0.2
v -0.5 0.3 0.1
v -0.5 0.3 -0.2
v -0.5 0.3 -0.3
v -0.5 0.6 0.2
v -0.5 0.6 0.1
v -0.5 0.6 -0.2
v -0.5 0.6 -0.3
v -0.5 0.7 0.3
v -0.5 0.7 0.2
v -0.5 0.7 0.1
v -0.5 0.7 -0.2
v -0.5 0.7 -0.3
v -0.5 0.7 -0.4
v -0.5 0.8 0.2
v -0.5 0.8 0.1
v -0.5 0.8 -0.2
v -0.5 0.8 -0.3
v -0.5 0.9 0.1
v -0.5 0.9 -0.2
v -0.4 -0.3 0.1
v -0.4 -0.3 5.96046e-08
v -0.4 -0.3 -0.1
v -0.4 -0.3 -0.2
v -0.4 -0.1 0.2
v -0.4 -0.1 0.1
v -0.4 -0.1 5.96046e-08
v -0.4 -0.1 -0.1
v -0.4 -0.1 -0.2
v -0.4 -0.1 -0.3
v -0.4 0 0.3
v -0.4 0 0.2
v -0.4 0 0.1
v -0.4 0 -0.2
v -0.4 0 -0.3
v -0.4 0 -0.4
v -0.4 0.1 0.2
v -0.4 0.1 0.1
v -0.4 0.1 -0.2
v -0.4 0.1 -0.3
v -0.4 0.2 0.4
v -0.4 0.2 0.3
v -0.4 0.2 0.2
v -0.4 0.2 -0.3
v -0.4 0.2 -0.4
v -0.4 0.2 -0.5
v -0.4 0.6 0.4
v -0.4 0.6 0.3
v -0.4 0.6 -0.4
v -0.4 0.6 -0.5
v -0.4 0.7 0.4
v -0.4 0.7 0.3
v -0.4 0.7 0.2
v -0.4 0.7 -0.3
v -0.4 0.7 -0.4
v -0.4 0.7 -0.5
v -0.4 0.8 0.3
v -0.4 0.8 0.2
v -0.4 0.8 0.1
v -0.4 0.8 -0.2
v -0.4 0.8 -0.3
v -0.4 0.8 -0.4
v -0.4 0.9 0.2
v -0.4 0.9 0.1
v -0.4 0.9 -0.2
v -0.4 0.9 -0.3
v -0.4 1 0.1
v -0.4 1 -0.2
v -0.3 -0.3 0.2
v -0.3 -0.3 0.1
v -0.3 -0.3 -0.2
v -0.3 -0.3 -0.3
v -0.3 -0.1 0.2
v -0.3 -0.1 0.1
v -0.3 -0.1 -0.2
v -0.3 -0.1 -0.3
v -0.3 0 0.4
v -0.3 0 0.3
v -0.3 0 -0.4
v -0.3 0 -0.5
v -0.3 0.2 0.4
v -0.3 0.2 0.3
v -0.3 0.2 -0.4
v -0.3 0.2 -0.5
v -0.3 0.7 0.4
v -0.3 0.7 0.3
v -0.3 0.7 -0.4
v -0.3 0.7 -0.5
v -0.3 0.8 0.3
v -0.3 0.8 0.2
v -0.3 0.8 -0.3
v -0.3 0.8 -0.4
v -0.3 0.9 0.4
v -0.3 0.9 0.3
v -0.3 0.9 0.2
v -0.3 0.9 0.1
v -0.3 0.9 -0.2
v -0.3 0.9 -0.3
v -0.3 0.9 -0.4
v -0.3 0.9 -0.5
v -0.3 1 0.3
v -0.3 1 0.2
v -0.3 1 0.1
v -0.3 1 -0.2
v -0.3 1 -0.3
v -0.3 1 -0.4
v -0.3 1.1 0.2
v -0.3 1.1 -0.3
v -0.2 -0.3 0.3
v -0.2 -0.3 0.2
v -0.2 -0.3 -0.3
v -0.2 -0.3 -0.4
v -0.2 -0.1 0.4
v -0.2 -0.1 0.3
v -0.2 -0.1 0.2
v -0.2 -0.1 -0.3
v -0.2 -0.1 -0.4
v -0.2 -0.1 -0.5
v -0.2 0 0.4
v -0.2 0 0.2
v -0.2 0 -0.3
v -0.2 0 -0.5
v -0.2 0.2 0.5
v -0.2 0.2 0.4
v -0.2 0.2 -0.5
v -0.2 0.2 -0.6
v -0.2 0.3 0.6
v -0.2 0.3 0.5
v -0.2 0.3 -0.6
v -0.2 0.3 -0.7
v -0.2 0.4 0.6
v -0.2 0.4 0.4
v -0.2 0.4 -0.5
v -0.2 0.4 -0.7
v -0.2 0.6 0.6
v -0.2 0.6 0.4
v -0.2 0.6 -0.5
v -0.2 0.6 -0.7
v -0.1 0.3 0.6
v -0.1 0.3 0.5
v -0.1 0.3 -0.6
v -0.1 0.3 -0.7
v -0.1 0.4 0.6
v -0.1 0.4 0.5
v -0.1 0.4 -0.6
v -0.1 0.4 -0.7
v -0.1 0.6 0.6
v -0.1 0.6 0.5
v -0.1 0.6 -0.6
v -0.1 0.6 -0.7
v -5.96046e-08 0.2 0.5
v -5.96046e-08 0.2 0.4
v -5.96046e-08 0.2 -0.5
v -5.96046e-08 0.2 -0.6
v -5.96046e-08 0.4 0.5
v -5.96046e-08 0.4 0.4
v -5.96046e-08 0.4 -0.5
v -5.96046e-08 0.4 -0.6
v -5.96046e-08 0.6 0.5
v -5.96046e-08 0.6 0.4
v -5.96046e-08 0.6 -0.5
v -5.96046e-08 0.6 -0.6
v 0.2 -0.3 0.3
v 0.2 -0.3 0.2
v 0.2 -0.3 -0.3
v 0.2 -0.3 -0.4
v 0.2 -0.1 0.4
v 0.2 -0.1 0.3
v 0.2 -0.1 0.2
v 0.2 -0.1 -0.3
v 0.2 -0.1 -0.4
v 0.2 -0.1 -0.5
v 0.2 0.1 0.4
v 0.2 0.1 0.3
v 0.2 0.1 -0.4
v 0.2 0.1 -0.5
v 0.3 -0.3 0.2
v 0.3 -0.3 5.96046e-08
v 0.3 -0.3 -0.1
v 0.3 -0.3 -0.3
v 0.3 -0.2 0.2
v 0.3 -0.2 5.96046e-08
v 0.3 -0.2 -0.1
v 0.3 -0.2 -0.3
v 0.3 0.1 0.4
v 0.3 0.1 0.3
v 0.3 0.1 -0.4
v 0.3 0.1 -0.5
v 0.3 0.2 0.4
v 0.3 0.2 0.3
v 0.3 0.2 -0.4
v 0.3 0.2 -0.5
v 0.3 0.8 0.4
v 0.3 0.8 0.3
v 0.3 0.8 -0.4
v 0.3 0.8 -0.5
v 0.3 0.9 0.4
v 0.3 0.9 0.3
v 0.3 0.9 0.2
v 0.3 0.9 -0.3
v 0.3 0.9 -0.4
v 0.3 0.9 -0.5
v 0.3 1 0.3
v 0.3 1 0.2
v 0.3 1 0.1
v 0.3 1 5.96046e-08
v 0.3 1 -0.1
v 0.3 1 -0.2
v 0.3 1 -0.3
v 0.3 1 -0.4
v 0.3 1.1 0.2
v 0.3 1.1 0.1
v 0.3 1.1 5.96046e-08
v 0.3 1.1 -0.1
v 0.3 1.1 -0.2
v 0.3 1.1 -0.3
v 0.4 -0.1 0.3
v 0.4 -0.1 0.2
v 0.4 -0.1 -0.3
v 0.4 -0.1 -0.4
v 0.4 0 0.3
v 0.4 0 0.2
v 0.4 0 -0.3
v 0.4 0 -0.4
v 0.4 0.2 0.4
v 0.4 0.2 0.3
v 0.4 0.2 0.2
v 0.4 0.2 -0.3
v 0.4 0.2 -0.4
v 0.4 0.2 -0.5
v 0.4 0.3 0.4
v 0.4 0.3 0.3
v 0.4 0.3 -0.4
v 0.4 0.3 -0.5
v 0.4 0.4 0.3
v 0.4 0.4 0.2
v 0.4 0.4 5.96046e-08
v 0.4 0.4 -0.1
v 0.4 0.4 -0.3
v 0.4 0.4 -0.4
v 0.4 0.6 0.3
v 0.4 0.6 0.2
v 0.4 0.6 5.96046e-08
v 0.4 0.6 -0.1
v 0.4 0.6 -0.3
v 0.4 0.6 -0.4
v 0.4 0.7 0.4
v 0.4 0.7 0.3
v 0.4 0.7 -0.4
v 0.4 0.7 -0.5
v 0.4 0.8 0.4
v 0.4 0.8 0.3
v 0.4 0.8 0.2
v 0.4 0.8 -0.3
v 0.4 0.8 -0.4
v 0.4 0.8 -0.5
v 0.4 0.9 0.3
v 0.4 0.9 0.2
v 0.4 0.9 5.96046e-08
v 0.4 0.9 -0.1
v 0.4 0.9 -0.3
v 0.4 0.9 -0.4
v 0.4 1 0.2
v 0.4 1 -0.3
v 0.5 -0.2 0.2
v 0.5 -0.2 0.1
v 0.5 -0.2 -0.2
v 0.5 -0.2 -0.3
v 0.5 -0.1 0.2
v 0.5 -0.1 0.1
v 0.5 -0.1 -0.2
v 0.5 -0.1 -0.3
v 0.5 0 0.2
v 0.5 0 0.1
v 0.5 0 5.96046e-08
v 0.5 0 -0.1
v 0.5 0 -0.2
v 0.5 0 -0.3
v 0.5 0.2 0.3
v 0.5 0.2 0.2
v 0.5 0.2 0.1
v 0.5 0.2 5.96046e-08
v 0.5 0.2 -0.1
v 0.5 0.2 -0.2
v 0.5 0.2 -0.3
v 0.5 0.2 -0.4
v 0.5 0.3 0.4
v 0.5 0.3 0.3
v 0.5 0.3 0.1
v 0.5 0.3 5.96046e-08
v 0.5 0.3 -0.1
v 0.5 0.3 -0.2
v 0.5 0.3 -0.4
v 0.5 0.3 -0.5
v 0.5 0.4 0.3
v 0.5 0.4 0.2
v 0.5 0.4 5.96046e-08
v 0.5 0.4 -0.1
v 0.5 0.4 -0.3
v 0.5 0.4 -0.4
v 0.5 0.6 0.3
v 0.5 0.6 5.96046e-08
v 0.5 0.6 -0.1
v 0.5 0.6 -0.4
v 0.5 0.7 0.4
v 0.5 0.7 0.3
v 0.5 0.7 0.2
v 0.5 0.7 5.96046e-08
v 0.5 0.7 -0.1
v 0.5 0.7 -0.3
v 0.5 0.7 -0.4
v 0.5 0.7 -0.5
v 0.5 0.8 0.3
v 0.5 0.8 0.2
v 0.5 0.8 -0.3
v 0.5 0.8 -0.4
v 0.5 0.9 0.2
v 0.5 0.9 5.96046e-08
v 0.5 0.9 -0.1
v 0.5 0.9 -0.3
v 0.6 -0.2 0.1
v 0.6 -0.2 -0.2
v 0.6 0 0.1
v 0.6 0 -0.2
v 0.6 0.2 0.1
v 0.6 0.2 5.96046e-08
v 0.6 0.2 -0.1
v 0.6 0.2 -0.2
v 0.6 0.3 0.1
v 0.6 0.3 5.96046e-08
v 0.6 0.3 -0.1
v 0.6 0.3 -0.2
v 0.6 0.4 5.96046e-08
v 0.6 0.4 -0.1
v 0.6 0.6 0.3
v 0.6 0.6 5.96046e-08
v 0.6 0.6 -0.1
v 0.6 0.6 -0.4
v 0.6 0.7 0.3
v 0.6 0.7 5.96046e-08
v 0.6 0.7 -0.1
v 0.6 0.7 -0.4
v 0.7 0.2 5.96046e-08
v 0.7 0.2 -0.1
v 0.7 0.4 5.96046e-08
v 0.7 0.4 -0.1
v -0.2 0.3 0.6
v -0.2 0.4 0.6
v -0.2 0.6 0.6
v -0.1 0.3 0.6
v -0.1 0.4 0.6
v -0.1 0.6 0.6
v -0.2 0.2 0.5
v -0.2 0.3 0.5
v -0.1 0.3 0.5
v -0.1 0.4 0.5
v -0.1 0.6 0.5
v -5.96046e-08 0.2 0.5
v -5.96046e-08 0.4 0.5
v -5.96046e-08 0.6 0.5
v -0.4 0.2 0.4
v -0.4 0.6 0.4
v -0.4 0.7 0.4
v -0.3 0 0.4
v -0.3 0.2 0.4
v -0.3 0.7 0.4
v -0.3 0.9 0.4
v -0.2 -0.1 0.4
v -0.2 0 0.4
v -0.2 0.2 0.4
v -0.2 0.4 0.4
v -0.2 0.6 0.4
v -0.2 0.7 0.4
v -0.2 0.8 0.4
v -5.96046e-08 -0.1 0.4
v -5.96046e-08 0 0.4
v -5.96046e-08 0.2 0.4
v -5.96046e-08 0.4 0.4
v -5.96046e-08 0.6 0.4
v 0.1 -0.1 0.4
v 0.1 0.2 0.4
v 0.1 0.4 0.4
v 0.1 0.6 0.4
v 0.1 0.7 0.4
v 0.1 0.8 0.4
v 0.2 -0.1 0.4
v 0.2 0.1 0.4
v 0.2 0.2 0.4
v 0.3 0.1 0.4
v 0.3 0.2 0.4
v 0.3 0.4 0.4
v 0.3 0.6 0.4
v 0.3 0.7 0.4
v 0.3 0.8 0.4
v 0.3 0.9 0.4
v 0.4 0.2 0.4
v 0.4 0.3 0.4
v 0.4 0.4 0.4
v 0.4 0.6 0.4
v 0.4 0.7 0.4
v 0.4 0.8 0.4
v 0.5 0.3 0.4
v 0.5 0.7 0.4
v -0.5 0.2 0.3
v -0.5 0.7 0.3
v -0.4 0 0.3
v -0.4 0.2 0.3
v -0.4 0.6 0.3
v -0.4 0.7 0.3
v -0.4 0.8 0.3
v -0.3 0 0.3
v -0.3 0.2 0.3
v -0.3 0.7 0.3
v -0.3 0.8 0.3
v -0.3 0.9 0.3
v -0.3 1 0.3
v -0.2 -0.3 0.3
v -0.2 -0.1 0.3
v -5.96046e-08 -0.1 0.3
v 0.1 -0.1 0.3
v 0.2 -0.3 0.3
v 0.2 -0.1 0.3
v 0.2 0.1 0.3
v 0.3 -0.1 0.3
v 0.3 0 0.3
v 0.3 0.1 0.3
v 0.3 0.2 0.3
v 0.3 0.8 0.3
v 0.3 0.9 0.3
v 0.3 1 0.3
v 0.4 -0.1 0.3
v 0.4 0 0.3
v 0.4 0.2 0.3
v 0.4 0.3 0.3
v 0.4 0.7 0.3
v 0.4 0.8 0.3
v 0.4 0.9 0.3
v 0.5 0.2 0.3
v 0.5 0.3 0.3
v 0.5 0.6 0.3
v 0.5 0.7 0.3
v 0.5 0.8 0.3
v 0.6 0.6 0.3
v 0.6 0.7 0.3
v -0.6 0.3 0.2
v -0.6 0.6 0.2
v -0.5 0.1 0.2
v -0.5 0.2 0.2
v -0.5 0.3 0.2
v -0.5 0.6 0.2
v -0.5 0.7 0.2
v -0.5 0.8 0.2
v -0.4 -0.1 0.2
v -0.4 0 0.2
v -0.4 0.1 0.2
v -0.4 0.2 0.2
v -0.4 0.7 0.2
v -0.4 0.8 0.2
v -0.4 0.9 0.2
v -0.3 -0.3 0.2
v -0.3 -0.1 0.2
v -0.3 0.8 0.2
v -0.3 0.9 0.2
v -0.3 1 0.2
v -0.3 1.1 0.2
v -0.2 -0.3 0.2
v -0.2 -0.1 0.2
v -0.2 0 0.2
v 0.2 -0.3 0.2
v 0.2 -0.1 0.2
v 0.3 -0.3 0.2
v 0.3 -0.2 0.2
v 0.3 -0.1 0.2
v 0.3 0.9 0.2
v 0.3 1 0.2
v 0.3 1.1 0.2
v 0.4 -0.1 0.2
v 0.4 0 0.2
v 0.4 0.2 0.2
v 0.4 0.8 0.2
v 0.4 0.9 0.2
v 0.4 1 0.2
v 0.5 -0.2 0.2
v 0.5 -0.1 0.2
v 0.5 0 0.2
v 0.5 0.2 0.2
v 0.5 0.8 0.2
v 0.5 0.9 0.2
v -0.6 0.1 0.1
v -0.6 0.2 0.1
v -0.6 0.3 0.1
v -0.6 0.6 0.1
v -0.6 0.7 0.1
v -0.5 -0.1 0.1
v -0.5 0.1 0.1
v -0.5 0.2 0.1
v -0.5 0.3 0.1
v -0.5 0.6 0.1
v -0.5 0.7 0.1
v -0.5 0.8 0.1
v -0.5 0.9 0.1
v -0.4 -0.3 0.1
v -0.4 -0.1 0.1
v -0.4 0 0.1
v -0.4 0.1 0.1
v -0.4 0.8 0.1
v -0.4 0.9 0.1
v -0.4 1 0.1
v -0.3 -0.3 0.1
v -0.3 -0.1 0.1
v -0.3 0.9 0.1
v -0.3 1 0.1
v 0.5 -0.2 0.1
v 0.5 -0.1 0.1
v 0.5 0 0.1
v 0.5 0.2 0.1
v 0.5 0.3 0.1
v 0.6 -0.2 0.1
v 0.6 0 0.1
v 0.6 0.2 0.1
v 0.6 0.3 0.1
v -0.6 0 5.96046e-08
v -0.6 0.1 5.96046e-08
v -0.5 0 5.96046e-08
v -0.5 0.1 5.96046e-08
v 0.4 0.4 5.96046e-08
v 0.4 0.6 5.96046e-08
v 0.5 0.3 5.96046e-08
v 0.5 0.4 5.96046e-08
v 0.5 0.6 5.96046e-08
v 0.6 0.2 5.96046e-08
v 0.6 0.3 5.96046e-08
v 0.6 0.4 5.96046e-08
v 0.6 0.6 5.96046e-08
v 0.7 0.2 5.96046e-08
v 0.7 0.4 5.96046e-08
v 0.5 0.6 -0.1
v 0.5 0.7 -0.1
v 0.6 0.6 -0.1
v 0.6 0.7 -0.1
v 0.4 0.4 -0.4
v 0.4 0.6 -0.4
v 0.5 0.4 -0.4
v 0.5 0.6 -0.4
v 0.4 0.4 0.3
v 0.4 0.6 0.3
v 0.5 0.4 0.3
v 0.5 0.6 0.3
v 0.5 0.6 5.96046e-08
v 0.5 0.7 5.96046e-08
v 0.6 0.6 5.96046e-08
v 0.6 0.7 5.96046e-08
v -0.6 0 -0.1
v -0.6 0.1 -0.1
v -0.5 0 -0.1
v -0.5 0.1 -0.1
v 0.4 0.4 -0.1
v 0.4 0.6 -0.1
v 0.5 0.3 -0.1
v 0.5 0.4 -0.1
v 0.5 0.6 -0.1
v 0.6 0.2 -0.1
v 0.6 0.3 -0.1
v 0.6 0.4 -0.1
v 0.6 0.6 -0.1
v 0.7 0.2 -0.1
v 0.7 0.4 -0.1
v -0.6 0.1 -0.2
v -0.6 0.2 -0.2
v -0.6 0.3 -0.2
v -0.6 0.6 -0.2
v -0.6 0.7 -0.2
v -0.5 -0.1 -0.2
v -0.5 0.1 -0.2
v -0.5 0.2 -0.2
v -0.5 0.3 -0.2
v -0.5 0.6 -0.2
v -0.5 0.7 -0.2
v -0.5 0.8 -0.2
v -0.5 0.9 -0.2
v -0.4 -0.3 -0.2
v -0.4 -0.1 -0.2
v -0.4 0 -0.2
v -0.4 0.1 -0.2
v -0.4 0.8 -0.2
v -0.4 0.9 -0.2
v -0.4 1 -0.2
v -0.3 -0.3 -0.2
v -0.3 -0.1 -0.2
v -0.3 0.9 -0.2
v -0.3 1 -0.2
v 0.5 -0.2 -0.2
v 0.5 -0.1 -0.2
v 0.5 0 -0.2
v 0.5 0.2 -0.2
v 0.5 0.3 -0.2
v 0.6 -0.2 -0.2
v 0.6 0 -0.2
v 0.6 0.2 -0.2
v 0.6 0.3 -0.2
v -0.6 0.3 -0.3
v -0.6 0.6 -0.3
v -0.5 0.1 -0.3
v -0.5 0.2 -0.3
v -0.5 0.3 -0.3
v -0.5 0.6 -0.3
v -0.5 0.7 -0.3
v -0.5 0.8 -0.3
v -0.4 -0.1 -0.3
v -0.4 0 -0.3
v -0.4 0.1 -0.3
v -0.4 0.2 -0.3
v -0.4 0.7 -0.3
v -0.4 0.8 -0.3
v -0.4 0.9 -0.3
v -0.3 -0.3 -0.3
v -0.3 -0.1 -0.3
v -0.3 0.8 -0.3
v -0.3 0.9 -0.3
v -0.3 1 -0.3
v -0.3 1.1 -0.3
v -0.2 -0.3 -0.3
v -0.2 -0.1 -0.3
v -0.2 0 -0.3
v 0.2 -0.3 -0.3
v 0.2 -0.1 -0.3
v 0.3 -0.3 -0.3
v 0.3 -0.2 -0.3
v 0.3 -0.1 -0.3
v 0.3 0.9 -0.3
v 0.3 1 -0.3
v 0.3 1.1 -0.3
v 0.4 -0.1 -0.3
v 0.4 0 -0.3
v 0.4 0.2 -0.3
v 0.4 0.8 -0.3
v 0.4 0.9 -0.3
v 0.4 1 -0.3
v 0.5 -0.2 -0.3
v 0.5 -0.1 -0.3
v 0.5 0 -0.3
v 0.5 0.2 -0.3
v 0.5 0.8 -0.3
v 0.5 0.9 -0.3
v -0.5 0.2 -0.4
v -0.5 0.7 -0.4
v -0.4 0 -0.4
v -0.4 0.2 -0.4
v -0.4 0.6 -0.4
v -0.4 0.7 -0.4
v -0.4 0.8 -0.4
v -0.3 0 -0.4
v -0.3 0.2 -0.4
v -0.3 0.7 -0.4
v -0.3 0.8 -0.4
v -0.3 0.9 -0.4
v -0.3 1 -0.4
v -0.2 -0.3 -0.4
v -0.2 -0.1 -0.4
v -5.96046e-08 -0.1 -0.4
v 0.1 -0.1 -0.4
v 0.2 -0.3 -0.4
v 0.2 -0.1 -0.4
v 0.2 0.1 -0.4
v 0.3 -0.1 -0.4
v 0.3 0 -0.4
v 0.3 0.1 -0.4
v 0.3 0.2 -0.4
v 0.3 0.8 -0.4
v 0.3 0.9 -0.4
v 0.3 1 -0.4
v 0.4 -0.1 -0.4
v 0.4 0 -0.4
v 0.4 0.2 -0.4
v 0.4 0.3 -0.4
v 0.4 0.7 -0.4
v 0.4 0.8 -0.4
v 0.4 0.9 -0.4
v 0.5 0.2 -0.4
v 0.5 0.3 -0.4
v 0.5 0.6 -0.4
v 0.5 0.7 -0.4
v 0.5 0.8 -0.4
v 0.6 0.6 -0.4
v 0.6 0.7 -0.4
v -0.4 0.2 -0.5
v -0.4 0.6 -0.5
v -0.4 0.7 -0.5
v -0.3 0 -0.5
v -0.3 0.2 -0.5
v -0.3 0.7 -0.5
v -0.3 0.9 -0.5
v -0.2 -0.1 -0.5
v -0.2 0 -0.5
v -0.2 0.2 -0.5
v -0.2 0.4 -0.5
v -0.2 0.6 -0.5
v -0.2 0.7 -0.5
v -0.2 0.8 -0.5
v -5.96046e-08 -0.1 -0.5
v -5.96046e-08 0 -0.5
v -5.96046e-08 0.2 -0.5
v -5.96046e-08 0.4 -0.5
v -5.96046e-08 0.6 -0.5
v 0.1 -0.1 -0.5
v 0.1 0.2 -0.5
v 0.1 0.4 -0.5
v 0.1 0.6 -0.5
v 0.1 0.7 -0.5
v 0.1 0.8 -0.5
v 0.2 -0.1 -0.5
v 0.2 0.1 -0.5
v 0.2 0.2 -0.5
v 0.3 0.1 -0.5
v 0.3 0.2 -0.5
v 0.3 0.4 -0.5
v 0.3 0.6 -0.5
v 0.3 0.7 -0.5
v 0.3 0.8 -0.5
v 0.3 0.9 -0.5
v 0.4 0.2 -0.5
v 0.4 0.3 -0.5
v 0.4 0.4 -0.5
v 0.4 0.6 -0.5
v 0.4 0.7 -0.5
v 0.4 0.8 -0.5
v 0.5 0.3 -0.5
v 0.5 0.7 -0.5
v -0.2 0.2 -0.6
v -0.2 0.3 -0.6
v -0.1 0.3 -0.6
v -0.1 0.4 -0.6
v -0.1 0.6 -0.6
v -5.96046e-08 0.2 -0.6
v -5.96046e-08 0.4 -0.6
v -5.96046e-08 0.6 -0.6
v -0.2 0.3 -0.7
v -0.2 0.4 -0.7
v -0.2 0.6 -0.7
v -0.1 0.3 -0.7
v -0.1 0.4 -0.7
v -0.1 0.6 -0.7
v -0.2 -0.3 0.3
v 0.2 -0.3 0.3
v -0.3 -0.3 0.2
v -0.2 -0.3 0.2
v 0.1 -0.3 0.2
v 0.2 -0.3 0.2
v 0.3 -0.3 0.2
v -0.4 -0.3 0.1
v -0.3 -0.3 0.1
v -0.4 -0.3 5.96046e-08
v -0.2 -0.3 5.96046e-08
v 0.1 -0.3 5.96046e-08
v 0.3 -0.3 5.96046e-08
v -0.4 -0.3 -0.1
v -0.2 -0.3 -0.1
v 0.1 -0.3 -0.1
v 0.3 -0.3 -0.1
v -0.4 -0.3 -0.2
v -0.3 -0.3 -0.2
v -0.3 -0.3 -0.3
v -0.2 -0.3 -0.3
v 0.1 -0.3 -0.3
v 0.2 -0.3 -0.3
v 0.3 -0.3 -0.3
v -0.2 -0.3 -0.4
v 0.2 -0.3 -0.4
v 0.3 -0.2 0.2
v 0.5 -0.2 0.2
v 0.5 -0.2 0.1
v 0.6 -0.2 0.1
v 0.3 -0.2 5.96046e-08
v 0.5 -0.2 5.96046e-08
v 0.3 -0.2 -0.1
v 0.5 -0.2 -0.1
v 0.5 -0.2 -0.2
v 0.6 -0.2 -0.2
v 0.3 -0.2 -0.3
v 0.5 -0.2 -0.3
v -0.2 -0.1 0.4
v -5.96046e-08 -0.1 0.4
v 0.1 -0.1 0.4
v 0.2 -0.1 0.4
v -0.2 -0.1 0.3
v -5.96046e-08 -0.1 0.3
v 0.1 -0.1 0.3
v 0.2 -0.1 0.3
v 0.3 -0.1 0.3
v 0.4 -0.1 0.3
v -0.4 -0.1 0.2
v -0.3 -0.1 0.2
v 0.2 -0.1 0.2
v 0.3 -0.1 0.2
v 0.4 -0.1 0.2
v -0.5 -0.1 0.1
v -0.4 -0.1 0.1
v -0.3 -0.1 0.1
v -0.4 -0.1 5.96046e-08
v -0.4 -0.1 -0.1
v -0.5 -0.1 -0.2
v -0.4 -0.1 -0.2
v -0.3 -0.1 -0.2
v -0.4 -0.1 -0.3
v -0.3 -0.1 -0.3
v 0.2 -0.1 -0.3
v 0.3 -0.1 -0.3
v 0.4 -0.1 -0.3
v -0.2 -0.1 -0.4
v -5.96046e-08 -0.1 -0.4
v 0.1 -0.1 -0.4
v 0.2 -0.1 -0.4
v 0.3 -0.1 -0.4
v 0.4 -0.1 -0.4
v -0.2 -0.1 -0.5
v -5.96046e-08 -0.1 -0.5
v 0.1 -0.1 -0.5
v 0.2 -0.1 -0.5
v -0.3 0 0.4
v -0.2 0 0.4
v -0.4 0 0.3
v -0.3 0 0.3
v -0.4 0 0.2
v -0.2 0 0.2
v -0.6 0 5.96046e-08
v -0.5 0 5.96046e-08
v -0.6 0 -0.1
v -0.5 0 -0.1
v -0.4 0 -0.3
v -0.2 0 -0.3
v -0.4 0 -0.4
v -0.3 0 -0.4
v -0.3 0 -0.5
v -0.2 0 -0.5
v 0.2 0.1 0.4
v 0.3 0.1 0.4
v 0.2 0.1 0.3
v 0.3 0.1 0.3
v -0.5 0.1 0.2
v -0.4 0.1 0.2
v -0.6 0.1 0.1
v -0.5 0.1 0.1
v -0.4 0.1 0.1
v -0.6 0.1 5.96046e-08
v -0.5 0.1 5.96046e-08
v -0.6 0.1 -0.1
v -0.5 0.1 -0.1
v -0.6 0.1 -0.2
v -0.5 0.1 -0.2
v -0.4 0.1 -0.2
v -0.5 0.1 -0.3
v -0.4 0.1 -0.3
v 0.2 0.1 -0.4
v 0.3 0.1 -0.4
v 0.2 0.1 -0.5
v 0.3 0.1 -0.5
v -0.2 0.2 0.5
v -5.96046e-08 0.2 0.5
v -0.4 0.2 0.4
v -0.3 0.2 0.4
v -0.2 0.2 0.4
v -5.96046e-08 0.2 0.4
v 0.3 0.2 0.4
v 0.4 0.2 0.4
v -0.5 0.2 0.3
v -0.4 0.2 0.3
v -0.3 0.2 0.3
v 0.3 0.2 0.3
v 0.4 0.2 0.3
v 0.5 0.2 0.3
v -0.5 0.2 0.2
v -0.4 0.2 0.2
v 0.4 0.2 0.2
v 0.5 0.2 0.2
v 0.5 0.2 0.1
v 0.6 0.2 0.1
v 0.5 0.2 5.96046e-08
v 0.6 0.2 5.96046e-08
v 0.7 0.2 5.96046e-08
v 0.5 0.2 -0.1
v 0.6 0.2 -0.1
v 0.7 0.2 -0.1
v 0.5 0.2 -0.2
v 0.6 0.2 -0.2
v -0.5 0.2 -0.3
v -0.4 0.2 -0.3
v 0.4 0.2 -0.3
v 0.5 0.2 -0.3
v -0.5 0.2 -0.4
v -0.4 0.2 -0.4
v -0.3 0.2 -0.4
v 0.3 0.2 -0.4
v 0.4 0.2 -0.4
v 0.5 0.2 -0.4
v -0.4 0.2 -0.5
v -0.3 0.2 -0.5
v -0.2 0.2 -0.5
v -5.96046e-08 0.2 -0.5
v 0.3 0.2 -0.5
v 0.4 0.2 -0.5
v -0.2 0.2 -0.6
v -5.96046e-08 0.2 -0.6
v -0.2 0.3 0.6
v -0.1 0.3 0.6
v -0.2 0.3 0.5
v -0.1 0.3 0.5
v 0.4 0.3 0.4
v 0.5 0.3 0.4
v 0.4 0.3 0.3
v 0.5 0.3 0.3
v -0.6 0.3 0.2
v -0.5 0.3 0.2
v -0.6 0.3 0.1
v -0.5 0.3 0.1
v -0.6 0.3 -0.2
v -0.5 0.3 -0.2
v -0.6 0.3 -0.3
v -0.5 0.3 -0.3
v 0.4 0.3 -0.4
v 0.5 0.3 -0.4
v 0.4 0.3 -0.5
v 0.5 0.3 -0.5
v -0.2 0.3 -0.6
v -0.1 0.3 -0.6
v -0.2 0.3 -0.7
v -0.1 0.3 -0.7
v 0.4 0.6 0.3
v 0.5 0.6 0.3
v 0.6 0.6 0.3
v 0.4 0.6 0.2
v 0.5 0.6 0.2
v 0.4 0.6 5.96046e-08
v 0.5 0.6 5.96046e-08
v 0.6 0.6 5.96046e-08
v 0.4 0.6 -0.1
v 0.5 0.6 -0.1
v 0.6 0.6 -0.1
v 0.4 0.6 -0.3
v 0.5 0.6 -0.3
v 0.4 0.6 -0.4
v 0.5 0.6 -0.4
v 0.6 0.6 -0.4
v 0.5 0 0.1
v 0.6 0 0.1
v 0.5 0 5.96046e-08
v 0.5 0 -0.1
v 0.5 0 -0.2
v 0.6 0 -0.2
v 0.5 0.3 0.1
v 0.6 0.3 0.1
v 0.5 0.3 5.96046e-08
v 0.6 0.3 5.96046e-08
v 0.5 0.3 -0.1
v 0.6 0.3 -0.1
v 0.5 0.3 -0.2
v 0.6 0.3 -0.2
v 0.4 0.4 0.3
v 0.5 0.4 0.3
v 0.4 0.4 0.2
v 0.5 0.4 0.2
v 0.4 0.4 5.96046e-08
v 0.5 0.4 5.96046e-08
v 0.6 0.4 5.96046e-08
v 0.7 0.4 5.96046e-08
v 0.4 0.4 -0.1
v 0.5 0.4 -0.1
v 0.6 0.4 -0.1
v 0.7 0.4 -0.1
v 0.4 0.4 -0.3
v 0.5 0.4 -0.3
v 0.4 0.4 -0.4
v 0.5 0.4 -0.4
v -0.2 0.6 0.6
v -0.1 0.6 0.6
v -0.1 0.6 0.5
v -5.96046e-08 0.6 0.5
v -0.2 0.6 0.4
v -5.96046e-08 0.6 0.4
v -0.6 0.6 0.2
v -0.5 0.6 0.2
v -0.6 0.6 0.1
v -0.5 0.6 0.1
v 0.5 0.6 5.96046e-08
v 0.6 0.6 5.96046e-08
v 0.5 0.6 -0.1
v 0.6 0.6 -0.1
v -0.6 0.6 -0.2
v -0.5 0.6 -0.2
v -0.6 0.6 -0.3
v -0.5 0.6 -0.3
v -0.2 0.6 -0.5
v -5.96046e-08 0.6 -0.5
v -0.1 0.6 -0.6
v -5.96046e-08 0.6 -0.6
v -0.2 0.6 -0.7
v -0.1 0.6 -0.7
v -0.4 0.7 0.4
v -0.3 0.7 0.4
v 0.4 0.7 0.4
v 0.5 0.7 0.4
v -0.5 0.7 0.3
v -0.4 0.7 0.3
v -0.3 0.7 0.3
v 0.4 0.7 0.3
v 0.5 0.7 0.3
v 0.6 0.7 0.3
v -0.5 0.7 0.2
v -0.4 0.7 0.2
v 0.5 0.7 0.2
v -0.6 0.7 0.1
v -0.5 0.7 0.1
v 0.5 0.7 5.96046e-08
v 0.6 0.7 5.96046e-08
v 0.5 0.7 -0.1
v 0.6 0.7 -0.1
v -0.6 0.7 -0.2
v -0.5 0.7 -0.2
v -0.5 0.7 -0.3
v -0.4 0.7 -0.3
v 0.5 0.7 -0.3
v -0.5 0.7 -0.4
v -0.4 0.7 -0.4
v -0.3 0.7 -0.4
v 0.4 0.7 -0.4
v 0.5 0.7 -0.4
v 0.6 0.7 -0.4
v -0.4 0.7 -0.5
v -0.3 0.7 -0.5
v 0.4 0.7 -0.5
v 0.5 0.7 -0.5
v 0.3 0.8 0.4
v 0.4 0.8 0.4
v -0.4 0.8 0.3
v -0.3 0.8 0.3
v 0.3 0.8 0.3
v 0.4 0.8 0.3
v 0.5 0.8 0.3
v -0.5 0.8 0.2
v -0.4 0.8 0.2
v -0.3 0.8 0.2
v 0.4 0.8 0.2
v 0.5 0.8 0.2
v -0.5 0.8 0.1
v -0.4 0.8 0.1
v -0.5 0.8 -0.2
v -0.4 0.8 -0.2
v -0.5 0.8 -0.3
v -0.4 0.8 -0.3
v -0.3 0.8 -0.3
v 0.4 0.8 -0.3
v 0.5 0.8 -0.3
v -0.4 0.8 -0.4
v -0.3 0.8 -0.4
v 0.3 0.8 -0.4
v 0.4 0.8 -0.4
v 0.5 0.8 -0.4
v 0.3 0.8 -0.5
v 0.4 0.8 -0.5
v -0.3 0.9 0.4
v 0.3 0.9 0.4
v -0.3 0.9 0.3
v 0.3 0.9 0.3
v 0.4 0.9 0.3
v -0.4 0.9 0.2
v -0.3 0.9 0.2
v 0.3 0.9 0.2
v 0.4 0.9 0.2
v 0.5 0.9 0.2
v -0.5 0.9 0.1
v -0.4 0.9 0.1
v -0.3 0.9 0.1
v 0.4 0.9 5.96046e-08
v 0.5 0.9 5.96046e-08
v 0.4 0.9 -0.1
v 0.5 0.9 -0.1
v -0.5 0.9 -0.2
v -0.4 0.9 -0.2
v -0.3 0.9 -0.2
v -0.4 0.9 -0.3
v -0.3 0.9 -0.3
v 0.3 0.9 -0.3
v 0.4 0.9 -0.3
v 0.5 0.9 -0.3
v -0.3 0.9 -0.4
v 0.3 0.9 -0.4
v 0.4 0.9 -0.4
v -0.3 0.9 -0.5
v 0.3 0.9 -0.5
v -0.3 1 0.3
v 0.3 1 0.3
v -0.3 1 0.2
v 0.3 1 0.2
v 0.4 1 0.2
v -0.4 1 0.1
v -0.3 1 0.1
v 0.3 1 0.1
v 0.3 1 5.96046e-08
v 0.3 1 -0.1
v -0.4 1 -0.2
v -0.3 1 -0.2
v 0.3 1 -0.2
v -0.3 1 -0.3
v 0.3 1 -0.3
v 0.4 1 -0.3
v -0.3 1 -0.4
v 0.3 1 -0.4
v -0.3 1.1 0.2
v 0.3 1.1 0.2
v -0.2 1.1 0.1
v 0.3 1.1 0.1
v -0.2 1.1 5.96046e-08
v 0.3 1.1 5.96046e-08
v -0.2 1.1 -0.1
v 0.3 1.1 -0.1
v -0.2 1.1 -0.2
v 0.3 1.1 -0.2
v -0.3 1.1 -0.3
v 0.3 1.1 -0.3

# faces
f 4/3/1 2/3/1 1/3/1
f 5/3/1 2/3/1 4/3/1
f 7/19/1 4/19/1 3/19/1
f 8/3/1 5/3/1 4/3/1
f 8/19/1 4/19/1 7/19/1
f 9/19/1 6/19/1 5/19/1
f 9/3/1 5/3/1 8/3/1
f 10/19/1 6/19/1 9/19/1
f 12/1/1 8/1/1 7/1/1
f 13/1/1 10/1/1 9/1/1
f 15/19/1 12/19/1 11/19/1
f 15/1/1 8/1/1 12/1/1
f 16/2/1 9/2/1 8/2/1
f 16/1/1 8/1/1 15/1/1
f 17/1/1 13/1/1 9/1/1
f 17/2/1 9/2/1 16/2/1
f 18/19/1 14/19/1 13/19/1
f 18/1/1 13/1/1 17/1/1
f 19/19/1 15/19/1 11/19/1
f 20/4/1 16/4/1 15/4/1
f 20/19/1 15/19/1 19/19/1
f 21/1/1 17/1/1 16/1/1
f 21/4/1 16/4/1 20/4/1
f 22/4/1 18/4/1 17/4/1
f 22/1/1 17/1/1 21/1/1
f 23/19/1 14/19/1 18/19/1
f 23/4/1 18/4/1 22/4/1
f 24/19/1 14/19/1 23/19/1
f 25/4/1 22/4/1 21/4/1
f 25/4/1 23/4/1 22/4/1
f 25/4/1 21/4/1 20/4/1
f 26/4/1 23/4/1 25/4/1
f 29/19/1 28/19/1 27/19/1
f 30/19/1 28/19/1 29/19/1
f 32/19/1 29/19/1 27/19/1
f 33/19/1 29/19/1 32/19/1
f 34/19/1 28/19/1 30/19/1
f 35/19/1 28/19/1 34/19/1
f 38/19/1 32/19/1 31/19/1
f 39/19/1 32/19/1 38/19/1
f 40/19/1 36/19/1 35/19/1
f 41/19/1 36/19/1 40/19/1
f 43/1/1 39/1/1 38/1/1
f 43/19/1 38/19/1 37/19/1
f 44/1/1 39/1/1 43/1/1
f 45/1/1 41/1/1 40/1/1
f 46/19/1 42/19/1 41/19/1
f 46/1/1 41/1/1 45/1/1
f 47/19/1 43/19/1 37/19/1
f 50/19/1 42/19/1 46/19/1
f 51/19/1 47/19/1 37/19/1
f 52/4/1 48/4/1 47/4/1
f 52/19/1 47/19/1 51/19/1
f 53/4/1 48/4/1 52/4/1
f 54/4/1 50/4/1 49/4/1
f 55/19/1 42/19/1 50/19/1
f 55/4/1 50/4/1 54/4/1
f 56/19/1 42/19/1 55/19/1
f 57/19/1 53/19/1 52/19/1
f 57/19/1 54/19/1 53/19/1
f 57/19/1 55/19/1 54/19/1
f 58/19/1 55/19/1 57/19/1
f 59/19/1 55/19/1 58/19/1
f 60/19/1 55/19/1 59/19/1
f 61/19/1 59/19/1 58/19/1
f 62/19/1 59/19/1 61/19/1
f 68/19/1 64/19/1 63/19/1
f 69/8/1 65/8/1 64/8/1
f 69/19/1 64/19/1 68/19/1
f 70/19/1 66/19/1 65/19/1
f 70/8/1 65/8/1 69/8/1
f 71/19/1 66/19/1 70/19/1
f 74/6/1 68/6/1 67/6/1
f 75/6/1 68/6/1 74/6/1
f 76/6/1 72/6/1 71/6/1
f 77/6/1 72/6/1 76/6/1
f 79/5/1 75/5/1 74/5/1
f 79/6/1 74/6/1 73/6/1
f 80/5/1 75/5/1 79/5/1
f 81/5/1 77/5/1 76/5/1
f 82/6/1 78/6/1 77/6/1
f 82/5/1 77/5/1 81/5/1
f 84/6/1 79/6/1 73/6/1
f 85/6/1 79/6/1 84/6/1
f 86/6/1 78/6/1 82/6/1
f 87/6/1 78/6/1 86/6/1
f 89/5/1 84/5/1 83/5/1
f 90/5/1 84/5/1 89/5/1
f 91/5/1 88/5/1 87/5/1
f 92/5/1 88/5/1 91/5/1
f 93/4/1 90/4/1 89/4/1
f 94/4/1 90/4/1 93/4/1
f 97/4/1 92/4/1 91/4/1
f 98/4/1 92/4/1 97/4/1
f 99/19/1 95/19/1 94/19/1
f 100/19/1 95/19/1 99/19/1
f 103/19/1 97/19/1 96/19/1
f 104/19/1 97/19/1 103/19/1
f 105/7/1 101/7/1 100/7/1
f 106/7/1 101/7/1 105/7/1
f 107/7/1 103/7/1 102/7/1
f 108/7/1 103/7/1 107/7/1
f 109/19/1 107/19/1 106/19/1
f 110/19/1 107/19/1 109/19/1
f 115/19/1 112/19/1 111/19/1
f 116/19/1 112/19/1 115/19/1
f 117/19/1 114/19/1 113/19/1
f 118/19/1 114/19/1 117/19/1
f 123/6/1 120/6/1 119/6/1
f 124/6/1 120/6/1 123/6/1
f 125/6/1 122/6/1 121/6/1
f 126/6/1 122/6/1 125/6/1
f 131/19/1 128/19/1 127/19/1
f 134/19/1 130/19/1 129/19/1
f 135/19/1 132/19/1 131/19/1
f 135/19/1 131/19/1 127/19/1
f 136/19/1 132/19/1 135/19/1
f 137/19/1 132/19/1 136/19/1
f 140/19/1 134/19/1 133/19/1
f 141/19/1 130/19/1 134/19/1
f 141/19/1 134/19/1 140/19/1
f 142/19/1 130/19/1 141/19/1
f 143/19/1 138/19/1 137/19/1
f 143/19/1 137/19/1 136/19/1
f 144/19/1 138/19/1 143/19/1
f 145/19/1 138/19/1 144/19/1
f 146/19/1 140/19/1 139/19/1
f 146/19/1 141/19/1 140/19/1
f 147/19/1 141/19/1 146/19/1
f 148/19/1 141/19/1 147/19/1
f 149/19/1 145/19/1 144/19/1
f 149/19/1 147/19/1 146/19/1
f 149/19/1 146/19/1 145/19/1
f 150/19/1 147/19/1 149/19/1
f 156/19/1 152/19/1 151/19/1
f 157/19/1 152/19/1 156/19/1
f 158/19/1 154/19/1 153/19/1
f 159/19/1 154/19/1 158/19/1
f 161/10/1 157/10/1 156/10/1
f 161/10/1 156/10/1 155/10/1
f 162/10/1 157/10/1 161/10/1
f 163/10/1 160/10/1 159/10/1
f 163/10/1 159/10/1 158/10/1
f 164/10/1 160/10/1 163/10/1
f 170/9/1 166/9/1 165/9/1
f 171/9/1 168/9/1 167/9/1
f 173/9/1 170/9/1 169/9/1
f 174/9/1 166/9/1 170/9/1
f 174/9/1 170/9/1 173/9/1
f 175/9/1 172/9/1 171/9/1
f 175/9/1 171/9/1 167/9/1
f 176/9/1 172/9/1 175/9/1
f 177/8/1 174/8/1 173/8/1
f 178/8/1 174/8/1 177/8/1
f 179/8/1 176/8/1 175/8/1
f 180/8/1 176/8/1 179/8/1
f 181/9/2 182/9/2 185/9/2
f 185/9/2 182/9/2 186/9/2
f 183/9/2 184/9/2 187/9/2
f 187/9/2 184/9/2 188/9/2
f 185/8/2 186/8/2 189/8/2
f 189/8/2 186/8/2 190/8/2
f 187/8/2 188/8/2 191/8/2
f 191/8/2 188/8/2 192/8/2
f 193/9/2 194/9/2 197/9/2
f 197/9/2 194/9/2 198/9/2
f 195/9/2 196/9/2 199/9/2
f 199/9/2 196/9/2 200/9/2
f 197/8/2 198/8/2 201/8/2
f 201/8/2 198/8/2 202/8/2
f 199/8/2 200/8/2 203/8/2
f 203/8/2 200/8/2 204/8/2
f 205/19/2 206/19/2 210/19/2
f 210/19/2 206/19/2 211/19/2
f 207/19/2 208/19/2 212/19/2
f 212/19/2 208/19/2 213/19/2
f 209/6/2 210/6/2 215/6/2
f 215/6/2 210/6/2 216/6/2
f 213/6/2 214/6/2 217/6/2
f 217/6/2 214/6/2 218/6/2
f 219/6/2 220/6/2 223/6/2
f 220/8/2 221/8/2 224/8/2
f 223/6/2 220/6/2 224/6/2
f 221/6/2 222/6/2 225/6/2
f 224/8/2 221/8/2 225/8/2
f 225/6/2 222/6/2 226/6/2
f 227/19/2 228/19/2 231/19/2
f 231/19/2 228/19/2 232/19/2
f 229/19/2 230/19/2 233/19/2
f 233/19/2 230/19/2 234/19/2
f 235/19/2 236/19/2 239/19/2
f 239/19/2 236/19/2 240/19/2
f 237/19/2 238/19/2 243/19/2
f 243/19/2 238/19/2 244/19/2
f 240/19/2 241/19/2 245/19/2
f 245/19/2 241/19/2 246/19/2
f 242/19/2 243/19/2 251/19/2
f 251/19/2 243/19/2 252/19/2
f 246/19/2 247/19/2 253/19/2
f 247/13/2 248/13/2 254/13/2
f 253/19/2 247/19/2 254/19/2
f 248/11/2 249/11/2 255/11/2
f 254/13/2 248/13/2 255/13/2
f 249/13/2 250/13/2 256/13/2
f 255/11/2 249/11/2 256/11/2
f 250/19/2 251/19/2 257/19/2
f 256/13/2 250/13/2 257/13/2
f 257/19/2 251/19/2 258/19/2
f 259/19/2 260/19/2 263/19/2
f 263/19/2 260/19/2 264/19/2
f 261/19/2 262/19/2 265/19/2
f 265/19/2 262/19/2 266/19/2
f 263/14/2 264/14/2 268/14/2
f 268/14/2 264/14/2 269/14/2
f 265/14/2 266/14/2 270/14/2
f 270/14/2 266/14/2 271/14/2
f 267/12/2 268/12/2 273/12/2
f 273/12/2 268/12/2 274/12/2
f 271/12/2 272/12/2 275/12/2
f 275/12/2 272/12/2 276/12/2
f 277/8/2 278/8/2 283/8/2
f 278/17/2 279/17/2 284/17/2
f 283/8/2 278/8/2 284/8/2
f 284/17/2 279/17/2 285/17/2
f 280/17/2 281/17/2 286/17/2
f 281/8/2 282/8/2 287/8/2
f 286/17/2 281/17/2 287/17/2
f 287/8/2 282/8/2 288/8/2
f 289/19/2 290/19/2 293/19/2
f 293/19/2 290/19/2 294/19/2
f 291/19/2 292/19/2 297/19/2
f 297/19/2 292/19/2 298/19/2
f 294/19/2 295/19/2 299/19/2
f 299/19/2 295/19/2 300/19/2
f 296/19/2 297/19/2 303/19/2
f 303/19/2 297/19/2 304/19/2
f 301/19/2 302/19/2 305/19/2
f 302/19/2 303/19/2 305/19/2
f 300/19/2 301/19/2 305/19/2
f 305/19/2 303/19/2 306/19/2
f 307/5/2 308/5/2 311/5/2
f 311/5/2 308/5/2 312/5/2
f 309/5/2 310/5/2 313/5/2
f 313/5/2 310/5/2 314/5/2
f 311/14/2 312/14/2 315/14/2
f 315/14/2 312/14/2 316/14/2
f 313/14/2 314/14/2 319/14/2
f 319/14/2 314/14/2 320/14/2
f 315/5/2 316/5/2 322/5/2
f 316/5/2 317/5/2 322/5/2
f 322/5/2 317/5/2 323/5/2
f 317/6/2 318/6/2 324/6/2
f 323/5/2 317/5/2 324/5/2
f 319/5/2 320/5/2 325/5/2
f 324/6/2 318/6/2 325/6/2
f 318/5/2 319/5/2 325/5/2
f 325/5/2 320/5/2 326/5/2
f 326/5/2 320/5/2 327/5/2
f 321/12/2 322/12/2 330/12/2
f 322/15/2 323/15/2 331/15/2
f 326/15/2 327/15/2 334/15/2
f 327/12/2 328/12/2 335/12/2
f 329/19/2 330/19/2 337/19/2
f 330/12/2 322/12/2 337/12/2
f 331/15/2 332/15/2 338/15/2
f 337/12/2 322/12/2 338/12/2
f 322/15/2 331/15/2 338/15/2
f 338/15/2 332/15/2 339/15/2
f 333/15/2 334/15/2 340/15/2
f 327/12/2 335/12/2 341/12/2
f 340/15/2 334/15/2 341/15/2
f 334/15/2 327/15/2 341/15/2
f 335/19/2 336/19/2 342/19/2
f 341/12/2 335/12/2 342/12/2
f 329/19/2 337/19/2 343/19/2
f 342/19/2 336/19/2 346/19/2
f 329/19/2 343/19/2 347/19/2
f 347/19/2 343/19/2 348/19/2
f 344/16/2 345/16/2 350/16/2
f 350/16/2 345/16/2 351/16/2
f 346/19/2 336/19/2 353/19/2
f 353/19/2 336/19/2 354/19/2
f 348/19/2 349/19/2 355/19/2
f 349/16/2 350/16/2 356/16/2
f 355/19/2 349/19/2 356/19/2
f 351/16/2 352/16/2 357/16/2
f 352/19/2 353/19/2 357/19/2
f 357/19/2 353/19/2 358/19/2
f 356/16/2 350/16/2 359/16/2
f 350/12/2 351/12/2 360/12/2
f 359/16/2 350/16/2 360/16/2
f 351/16/2 357/16/2 361/16/2
f 360/12/2 351/12/2 361/12/2
f 361/16/2 357/16/2 362/16/2
f 363/19/2 364/19/2 365/19/2
f 365/19/2 364/19/2 366/19/2
f 367/19/2 368/19/2 371/19/2
f 371/19/2 368/19/2 372/19/2
f 369/19/2 370/19/2 373/19/2
f 373/19/2 370/19/2 374/19/2
f 375/19/2 376/19/2 378/19/2
f 378/19/2 376/19/2 379/19/2
f 377/19/2 378/19/2 381/19/2
f 381/19/2 378/19/2 382/19/2
f 379/19/2 380/19/2 383/19/2
f 383/19/2 380/19/2 384/19/2
f 385/12/2 386/12/2 387/12/2
f 387/12/2 386/12/2 388/12/2
f 392/9/3 390/9/3 389/9/3
f 393/8/3 391/8/3 390/8/3
f 393/9/3 390/9/3 392/9/3
f 394/8/3 391/8/3 393/8/3
f 397/9/3 396/9/3 395/9/3
f 400/9/3 397/9/3 395/9/3
f 400/9/3 398/9/3 397/9/3
f 401/8/3 399/8/3 398/8/3
f 401/9/3 398/9/3 400/9/3
f 402/8/3 399/8/3 401/8/3
f 407/5/3 404/5/3 403/5/3
f 408/4/3 405/4/3 404/4/3
f 411/6/3 407/6/3 406/6/3
f 412/5/3 404/5/3 407/5/3
f 412/6/3 407/6/3 411/6/3
f 413/5/3 404/5/3 412/5/3
f 414/4/3 408/4/3 404/4/3
f 414/5/3 404/5/3 413/5/3
f 415/19/3 409/19/3 408/19/3
f 415/4/3 408/4/3 414/4/3
f 416/19/3 409/19/3 415/19/3
f 417/10/3 411/10/3 410/10/3
f 418/5/3 412/5/3 411/5/3
f 418/10/3 411/10/3 417/10/3
f 419/5/3 412/5/3 418/5/3
f 421/4/3 415/4/3 414/4/3
f 422/14/3 418/14/3 417/14/3
f 422/14/3 419/14/3 418/14/3
f 423/6/3 420/6/3 419/6/3
f 423/14/3 419/14/3 422/14/3
f 424/4/3 421/4/3 420/4/3
f 424/6/3 420/6/3 423/6/3
f 425/4/3 415/4/3 421/4/3
f 425/4/3 421/4/3 424/4/3
f 426/7/3 416/7/3 415/7/3
f 426/4/3 415/4/3 425/4/3
f 427/19/3 409/19/3 416/19/3
f 427/7/3 416/7/3 426/7/3
f 428/6/3 423/6/3 422/6/3
f 429/6/3 423/6/3 428/6/3
f 430/14/3 424/14/3 423/14/3
f 430/6/3 423/6/3 429/6/3
f 431/19/3 430/19/3 429/19/3
f 432/14/3 424/14/3 430/14/3
f 432/19/3 430/19/3 431/19/3
f 433/9/3 425/9/3 424/9/3
f 433/14/3 424/14/3 432/14/3
f 434/8/3 426/8/3 425/8/3
f 434/9/3 425/9/3 433/9/3
f 435/15/3 427/15/3 426/15/3
f 435/8/3 426/8/3 434/8/3
f 436/19/3 409/19/3 427/19/3
f 436/15/3 427/15/3 435/15/3
f 437/19/3 409/19/3 436/19/3
f 438/12/3 433/12/3 432/12/3
f 439/12/3 433/12/3 438/12/3
f 440/8/3 434/8/3 433/8/3
f 440/12/3 433/12/3 439/12/3
f 441/6/3 435/6/3 434/6/3
f 441/8/3 434/8/3 440/8/3
f 442/19/3 436/19/3 435/19/3
f 442/6/3 435/6/3 441/6/3
f 443/19/3 436/19/3 442/19/3
f 444/19/3 441/19/3 440/19/3
f 444/19/3 440/19/3 439/19/3
f 444/19/3 442/19/3 441/19/3
f 445/19/3 442/19/3 444/19/3
f 449/19/3 447/19/3 446/19/3
f 450/19/3 447/19/3 449/19/3
f 451/19/3 447/19/3 450/19/3
f 453/6/3 449/6/3 448/6/3
f 454/6/3 449/6/3 453/6/3
f 455/19/3 452/19/3 451/19/3
f 456/19/3 452/19/3 455/19/3
f 461/19/3 460/19/3 459/19/3
f 462/19/3 461/19/3 459/19/3
f 463/19/3 462/19/3 459/19/3
f 464/19/3 462/19/3 463/19/3
f 466/6/3 465/6/3 464/6/3
f 467/6/3 465/6/3 466/6/3
f 468/6/3 465/6/3 467/6/3
f 471/19/3 458/19/3 457/19/3
f 472/19/3 458/19/3 471/19/3
f 473/19/3 467/19/3 466/19/3
f 474/14/3 469/14/3 468/14/3
f 474/19/3 467/19/3 473/19/3
f 474/14/3 468/14/3 467/14/3
f 475/14/3 469/14/3 474/14/3
f 478/19/3 471/19/3 470/19/3
f 479/19/3 471/19/3 478/19/3
f 480/12/3 476/12/3 475/12/3
f 481/12/3 476/12/3 480/12/3
f 483/19/3 478/19/3 477/19/3
f 484/19/3 478/19/3 483/19/3
f 485/19/3 483/19/3 482/19/3
f 486/19/3 483/19/3 485/19/3
f 491/19/3 488/19/3 487/19/3
f 492/19/3 488/19/3 491/19/3
f 497/19/3 490/19/3 489/19/3
f 498/19/3 490/19/3 497/19/3
f 499/19/3 494/19/3 493/19/3
f 500/19/3 494/19/3 499/19/3
f 503/6/3 496/6/3 495/6/3
f 504/7/3 501/7/3 500/7/3
f 505/7/3 501/7/3 504/7/3
f 508/19/3 503/19/3 502/19/3
f 509/6/3 496/6/3 503/6/3
f 509/19/3 503/19/3 508/19/3
f 510/6/3 496/6/3 509/6/3
f 513/6/3 512/6/3 511/6/3
f 514/6/3 512/6/3 513/6/3
f 515/6/3 512/6/3 514/6/3
f 517/19/3 507/19/3 506/19/3
f 518/19/3 507/19/3 517/19/3
f 519/5/3 515/5/3 514/5/3
f 523/19/3 517/19/3 516/19/3
f 524/19/3 517/19/3 523/19/3
f 525/5/3 519/5/3 514/5/3
f 526/14/3 520/14/3 519/14/3
f 526/5/3 519/5/3 525/5/3
f 527/5/3 521/5/3 520/5/3
f 527/14/3 520/14/3 526/14/3
f 528/5/3 521/5/3 527/5/3
f 529/16/3 523/16/3 522/16/3
f 530/16/3 523/16/3 529/16/3
f 537/19/3 532/19/3 531/19/3
f 538/1/3 533/1/3 532/1/3
f 538/19/3 532/19/3 537/19/3
f 539/1/3 533/1/3 538/1/3
f 540/4/3 535/4/3 534/4/3
f 541/4/3 535/4/3 540/4/3
f 545/19/3 537/19/3 536/19/3
f 546/19/3 537/19/3 545/19/3
f 547/19/3 537/19/3 546/19/3
f 548/19/3 543/19/3 542/19/3
f 549/19/3 543/19/3 548/19/3
f 551/19/3 545/19/3 544/19/3
f 552/19/3 545/19/3 551/19/3
f 553/19/3 550/19/3 549/19/3
f 554/19/3 550/19/3 553/19/3
f 560/19/3 556/19/3 555/19/3
f 560/19/3 557/19/3 556/19/3
f 561/19/3 557/19/3 560/19/3
f 562/19/3 559/19/3 558/19/3
f 563/19/3 559/19/3 562/19/3
f 566/3/3 565/3/3 564/3/3
f 567/3/3 565/3/3 566/3/3
f 571/8/3 569/8/3 568/8/3
f 572/8/3 569/8/3 571/8/3
f 574/12/3 571/12/3 570/12/3
f 575/19/3 572/19/3 571/19/3
f 575/12/3 571/12/3 574/12/3
f 576/19/3 572/19/3 575/19/3
f 577/12/3 574/12/3 573/12/3
f 577/12/3 575/12/3 574/12/3
f 578/12/3 575/12/3 577/12/3
f 581/19/3 580/19/3 579/19/3
f 582/19/3 580/19/3 581/19/3
f 585/19/3 584/19/3 583/19/3
f 586/19/3 584/19/3 585/19/3
f 587/19/4 588/19/4 589/19/4
f 589/19/4 588/19/4 590/19/4
f 591/19/4 592/19/4 593/19/4
f 593/19/4 592/19/4 594/19/4
f 595/3/4 596/3/4 597/3/4
f 597/3/4 596/3/4 598/3/4
f 599/8/4 600/8/4 602/8/4
f 602/8/4 600/8/4 603/8/4
f 601/12/4 602/12/4 605/12/4
f 602/19/4 603/19/4 606/19/4
f 605/12/4 602/12/4 606/12/4
f 606/19/4 603/19/4 607/19/4
f 604/12/4 605/12/4 608/12/4
f 605/12/4 606/12/4 608/12/4
f 608/12/4 606/12/4 609/12/4
f 610/19/4 611/19/4 616/19/4
f 611/1/4 612/1/4 617/1/4
f 616/19/4 611/19/4 617/19/4
f 617/1/4 612/1/4 618/1/4
f 613/4/4 614/4/4 619/4/4
f 619/4/4 614/4/4 620/4/4
f 615/19/4 616/19/4 624/19/4
f 624/19/4 616/19/4 625/19/4
f 625/19/4 616/19/4 626/19/4
f 621/19/4 622/19/4 627/19/4
f 627/19/4 622/19/4 628/19/4
f 623/19/4 624/19/4 630/19/4
f 630/19/4 624/19/4 631/19/4
f 628/19/4 629/19/4 632/19/4
f 632/19/4 629/19/4 633/19/4
f 634/19/4 635/19/4 639/19/4
f 635/19/4 636/19/4 639/19/4
f 639/19/4 636/19/4 640/19/4
f 637/19/4 638/19/4 641/19/4
f 641/19/4 638/19/4 642/19/4
f 643/19/4 644/19/4 647/19/4
f 647/19/4 644/19/4 648/19/4
f 645/19/4 646/19/4 653/19/4
f 653/19/4 646/19/4 654/19/4
f 649/19/4 650/19/4 655/19/4
f 655/19/4 650/19/4 656/19/4
f 651/6/4 652/6/4 659/6/4
f 656/7/4 657/7/4 660/7/4
f 660/7/4 657/7/4 661/7/4
f 658/19/4 659/19/4 664/19/4
f 659/6/4 652/6/4 665/6/4
f 664/19/4 659/19/4 665/19/4
f 665/6/4 652/6/4 666/6/4
f 667/6/4 668/6/4 669/6/4
f 669/6/4 668/6/4 670/6/4
f 670/6/4 668/6/4 671/6/4
f 662/19/4 663/19/4 673/19/4
f 673/19/4 663/19/4 674/19/4
f 670/5/4 671/5/4 675/5/4
f 672/19/4 673/19/4 679/19/4
f 679/19/4 673/19/4 680/19/4
f 670/5/4 675/5/4 681/5/4
f 675/14/4 676/14/4 682/14/4
f 681/5/4 675/5/4 682/5/4
f 676/5/4 677/5/4 683/5/4
f 682/14/4 676/14/4 683/14/4
f 683/5/4 677/5/4 684/5/4
f 678/16/4 679/16/4 685/16/4
f 685/16/4 679/16/4 686/16/4
f 687/19/4 688/19/4 690/19/4
f 690/19/4 688/19/4 691/19/4
f 691/19/4 688/19/4 692/19/4
f 689/6/4 690/6/4 694/6/4
f 694/6/4 690/6/4 695/6/4
f 692/19/4 693/19/4 696/19/4
f 696/19/4 693/19/4 697/19/4
f 700/19/4 701/19/4 702/19/4
f 700/19/4 702/19/4 703/19/4
f 700/19/4 703/19/4 704/19/4
f 704/19/4 703/19/4 705/19/4
f 705/6/4 706/6/4 707/6/4
f 707/6/4 706/6/4 708/6/4
f 708/6/4 706/6/4 709/6/4
f 698/19/4 699/19/4 712/19/4
f 712/19/4 699/19/4 713/19/4
f 707/19/4 708/19/4 714/19/4
f 709/14/4 710/14/4 715/14/4
f 714/19/4 708/19/4 715/19/4
f 708/14/4 709/14/4 715/14/4
f 715/14/4 710/14/4 716/14/4
f 711/19/4 712/19/4 719/19/4
f 719/19/4 712/19/4 720/19/4
f 716/12/4 717/12/4 721/12/4
f 721/12/4 717/12/4 722/12/4
f 718/19/4 719/19/4 724/19/4
f 724/19/4 719/19/4 725/19/4
f 723/19/4 724/19/4 726/19/4
f 726/19/4 724/19/4 727/19/4
f 728/5/4 729/5/4 732/5/4
f 729/4/4 730/4/4 733/4/4
f 731/6/4 732/6/4 736/6/4
f 732/5/4 729/5/4 737/5/4
f 736/6/4 732/6/4 737/6/4
f 737/5/4 729/5/4 738/5/4
f 729/4/4 733/4/4 739/4/4
f 738/5/4 729/5/4 739/5/4
f 733/19/4 734/19/4 740/19/4
f 739/4/4 733/4/4 740/4/4
f 740/19/4 734/19/4 741/19/4
f 735/10/4 736/10/4 742/10/4
f 736/5/4 737/5/4 743/5/4
f 742/10/4 736/10/4 743/10/4
f 743/5/4 737/5/4 744/5/4
f 739/4/4 740/4/4 746/4/4
f 742/14/4 743/14/4 747/14/4
f 743/14/4 744/14/4 747/14/4
f 744/6/4 745/6/4 748/6/4
f 747/14/4 744/14/4 748/14/4
f 745/4/4 746/4/4 749/4/4
f 748/6/4 745/6/4 749/6/4
f 746/4/4 740/4/4 750/4/4
f 749/4/4 746/4/4 750/4/4
f 740/7/4 741/7/4 751/7/4
f 750/4/4 740/4/4 751/4/4
f 741/19/4 734/19/4 752/19/4
f 751/7/4 741/7/4 752/7/4
f 747/6/4 748/6/4 753/6/4
f 753/6/4 748/6/4 754/6/4
f 748/14/4 749/14/4 755/14/4
f 754/6/4 748/6/4 755/6/4
f 754/19/4 755/19/4 756/19/4
f 755/14/4 749/14/4 757/14/4
f 756/19/4 755/19/4 757/19/4
f 749/9/4 750/9/4 758/9/4
f 757/14/4 749/14/4 758/14/4
f 750/8/4 751/8/4 759/8/4
f 758/9/4 750/9/4 759/9/4
f 751/15/4 752/15/4 760/15/4
f 759/8/4 751/8/4 760/8/4
f 752/19/4 734/19/4 761/19/4
f 760/15/4 752/15/4 761/15/4
f 761/19/4 734/19/4 762/19/4
f 757/12/4 758/12/4 763/12/4
f 763/12/4 758/12/4 764/12/4
f 758/8/4 759/8/4 765/8/4
f 764/12/4 758/12/4 765/12/4
f 759/6/4 760/6/4 766/6/4
f 765/8/4 759/8/4 766/8/4
f 760/19/4 761/19/4 767/19/4
f 766/6/4 760/6/4 767/6/4
f 767/19/4 761/19/4 768/19/4
f 765/19/4 766/19/4 769/19/4
f 764/19/4 765/19/4 769/19/4
f 766/19/4 767/19/4 769/19/4
f 769/19/4 767/19/4 770/19/4
f 771/9/4 772/9/4 773/9/4
f 771/9/4 773/9/4 776/9/4
f 773/9/4 774/9/4 776/9/4
f 774/8/4 775/8/4 777/8/4
f 776/9/4 774/9/4 777/9/4
f 777/8/4 775/8/4 778/8/4
f 779/9/4 780/9/4 782/9/4
f 780/8/4 781/8/4 783/8/4
f 782/9/4 780/9/4 783/9/4
f 783/8/4 781/8/4 784/8/4
f 788/19/5 786/19/5 785/19/5
f 789/19/5 786/19/5 788/19/5
f 790/19/5 786/19/5 789/19/5
f 793/19/5 788/19/5 787/19/5
f 794/19/5 793/19/5 792/19/5
f 795/9/5 789/9/5 788/9/5
f 795/19/5 793/19/5 794/19/5
f 795/19/5 788/19/5 793/19/5
f 796/6/5 791/6/5 790/6/5
f 796/9/5 789/9/5 795/9/5
f 796/6/5 790/6/5 789/6/5
f 797/6/5 791/6/5 796/6/5
f 798/8/5 795/8/5 794/8/5
f 799/12/5 796/12/5 795/12/5
f 799/8/5 795/8/5 798/8/5
f 800/8/5 797/8/5 796/8/5
f 800/12/5 796/12/5 799/12/5
f 801/8/5 797/8/5 800/8/5
f 802/19/5 799/19/5 798/19/5
f 803/19/5 799/19/5 802/19/5
f 804/19/5 799/19/5 803/19/5
f 805/9/5 800/9/5 799/9/5
f 805/19/5 799/19/5 804/19/5
f 806/6/5 801/6/5 800/6/5
f 806/9/5 800/9/5 805/9/5
f 807/6/5 801/6/5 806/6/5
f 808/6/5 801/6/5 807/6/5
f 809/19/5 806/19/5 805/19/5
f 809/19/5 807/19/5 806/19/5
f 810/19/5 807/19/5 809/19/5
f 813/5/5 812/5/5 811/5/5
f 815/5/5 813/5/5 811/5/5
f 816/19/5 814/19/5 813/19/5
f 816/5/5 813/5/5 815/5/5
f 817/6/5 816/6/5 815/6/5
f 818/19/5 814/19/5 816/19/5
f 818/6/5 816/6/5 817/6/5
f 819/5/5 818/5/5 817/5/5
f 819/19/5 814/19/5 818/19/5
f 820/19/5 814/19/5 819/19/5
f 821/5/5 819/5/5 817/5/5
f 822/5/5 819/5/5 821/5/5
f 827/10/5 824/10/5 823/10/5
f 828/14/5 825/14/5 824/14/5
f 828/10/5 824/10/5 827/10/5
f 829/6/5 826/6/5 825/6/5
f 829/14/5 825/14/5 828/14/5
f 830/6/5 826/6/5 829/6/5
f 835/6/5 831/6/5 830/6/5
f 836/19/5 832/19/5 831/19/5
f 836/6/5 831/6/5 835/6/5
f 837/19/5 832/19/5 836/19/5
f 839/6/5 834/6/5 833/6/5
f 840/6/5 834/6/5 839/6/5
f 841/19/5 839/19/5 838/19/5
f 842/19/5 841/19/5 838/19/5
f 843/19/5 842/19/5 838/19/5
f 844/19/5 842/19/5 843/19/5
f 846/6/5 845/6/5 844/6/5
f 847/6/5 845/6/5 846/6/5
f 854/6/5 849/6/5 848/6/5
f 855/19/5 850/19/5 849/19/5
f 855/6/5 849/6/5 854/6/5
f 856/19/5 850/19/5 855/19/5
f 857/10/5 852/10/5 851/10/5
f 858/14/5 853/14/5 852/14/5
f 858/10/5 852/10/5 857/10/5
f 859/6/5 854/6/5 853/6/5
f 859/14/5 853/14/5 858/14/5
f 860/6/5 854/6/5 859/6/5
f 864/6/5 862/6/5 861/6/5
f 865/6/5 864/6/5 863/6/5
f 866/6/5 862/6/5 864/6/5
f 866/6/5 864/6/5 865/6/5
f 869/3/5 868/3/5 867/3/5
f 870/3/5 868/3/5 869/3/5
f 873/6/5 872/6/5 871/6/5
f 874/6/5 872/6/5 873/6/5
f 875/6/5 872/6/5 874/6/5
f 876/6/5 872/6/5 875/6/5
f 879/19/5 878/19/5 877/19/5
f 880/19/5 878/19/5 879/19/5
f 884/19/5 882/19/5 881/19/5
f 885/19/5 882/19/5 884/19/5
f 886/19/5 884/19/5 883/19/5
f 887/19/5 884/19/5 886/19/5
f 890/19/5 889/19/5 888/19/5
f 891/19/5 889/19/5 890/19/5
f 893/19/5 892/19/5 891/19/5
f 894/19/5 892/19/5 893/19/5
f 897/19/5 896/19/5 895/19/5
f 898/19/5 896/19/5 897/19/5
f 903/9/5 900/9/5 899/9/5
f 904/9/5 900/9/5 903/9/5
f 908/5/5 902/5/5 901/5/5
f 909/5/5 902/5/5 908/5/5
f 910/12/5 906/12/5 905/12/5
f 911/12/5 906/12/5 910/12/5
f 913/19/5 908/19/5 907/19/5
f 914/19/5 908/19/5 913/19/5
f 915/12/5 912/12/5 911/12/5
f 916/12/5 912/12/5 915/12/5
f 919/19/5 918/19/5 917/19/5
f 920/19/5 918/19/5 919/19/5
f 922/12/5 920/12/5 919/12/5
f 922/12/5 921/12/5 920/12/5
f 923/12/5 921/12/5 922/12/5
f 924/12/5 921/12/5 923/12/5
f 925/19/5 923/19/5 922/19/5
f 926/19/5 923/19/5 925/19/5
f 931/19/5 928/19/5 927/19/5
f 932/19/5 928/19/5 931/19/5
f 935/12/5 930/12/5 929/12/5
f 936/12/5 930/12/5 935/12/5
f 937/5/5 933/5/5 932/5/5
f 938/5/5 933/5/5 937/5/5
f 941/12/5 935/12/5 934/12/5
f 942/12/5 935/12/5 941/12/5
f 943/9/5 940/9/5 939/9/5
f 944/9/5 940/9/5 943/9/5
f 947/9/5 946/9/5 945/9/5
f 948/9/5 946/9/5 947/9/5
f 951/19/5 950/19/5 949/19/5
f 952/19/5 950/19/5 951/19/5
f 955/19/5 954/19/5 953/19/5
f 956/19/5 954/19/5 955/19/5
f 959/19/5 958/19/5 957/19/5
f 960/19/5 958/19/5 959/19/5
f 963/19/5 962/19/5 961/19/5
f 964/19/5 962/19/5 963/19/5
f 967/9/5 966/9/5 965/9/5
f 968/9/5 966/9/5 967/9/5
f 972/6/5 970/6/5 969/6/5
f 973/19/5 971/19/5 970/19/5
f 973/6/5 970/6/5 972/6/5
f 974/5/5 973/5/5 972/5/5
f 975/19/5 971/19/5 973/19/5
f 975/5/5 973/5/5 974/5/5
f 976/19/5 971/19/5 975/19/5
f 980/5/5 978/5/5 977/5/5
f 981/19/5 979/19/5 978/19/5
f 981/5/5 978/5/5 980/5/5
f 982/6/5 981/6/5 980/6/5
f 983/19/5 979/19/5 981/19/5
f 983/6/5 981/6/5 982/6/5
f 984/19/5 979/19/5 983/19/5
f 985/19/6 986/19/6 987/19/6
f 987/19/6 986/19/6 988/19/6
f 988/19/6 986/19/6 989/19/6
f 989/19/6 986/19/6 990/19/6
f 991/19/6 992/19/6 993/19/6
f 993/19/6 992/19/6 994/19/6
f 995/19/6 996/19/6 997/19/6
f 997/19/6 996/19/6 998/19/6
f 999/12/6 1000/12/6 1001/12/6
f 1001/12/6 1000/12/6 1002/12/6
f 1001/15/6 1002/15/6 1003/15/6
f 1003/15/6 1002/15/6 1004/15/6
f 1005/12/6 1006/12/6 1009/12/6
f 1009/12/6 1006/12/6 1010/12/6
f 1007/15/6 1008/15/6 1011/15/6
f 1011/15/6 1008/15/6 1012/15/6
f 1011/12/6 1012/12/6 1013/12/6
f 1013/12/6 1012/12/6 1014/12/6
f 1015/8/6 1016/8/6 1017/8/6
f 1015/8/6 1017/8/6 1019/8/6
f 1017/8/6 1018/8/6 1019/8/6
f 1019/8/6 1018/8/6 1020/8/6
f 1021/19/6 1022/19/6 1023/19/6
f 1023/19/6 1022/19/6 1024/19/6
f 1025/19/6 1026/19/6 1027/19/6
f 1027/19/6 1026/19/6 1028/19/6
f 1029/19/6 1030/19/6 1031/19/6
f 1031/19/6 1030/19/6 1032/19/6
f 1033/8/6 1034/8/6 1035/8/6
f 1035/8/6 1034/8/6 1036/8/6
f 1033/8/6 1035/8/6 1037/8/6
f 1037/8/6 1035/8/6 1038/8/6
f 1039/4/6 1040/4/6 1044/4/6
f 1044/4/6 1040/4/6 1045/4/6
f 1041/19/6 1042/19/6 1046/19/6
f 1046/19/6 1042/19/6 1047/19/6
f 1043/19/6 1044/19/6 1049/19/6
f 1049/19/6 1044/19/6 1050/19/6
f 1047/19/6 1048/19/6 1051/19/6
f 1051/19/6 1048/19/6 1054/19/6
f 1054/19/6 1048/19/6 1055/19/6
f 1052/4/6 1053/4/6 1058/4/6
f 1058/4/6 1053/4/6 1059/4/6
f 1056/19/6 1057/19/6 1062/19/6
f 1060/19/6 1061/19/6 1063/19/6
f 1063/19/6 1061/19/6 1064/19/6
f 1062/19/6 1057/19/6 1067/19/6
f 1067/19/6 1057/19/6 1068/19/6
f 1064/4/6 1065/4/6 1069/4/6
f 1069/4/6 1065/4/6 1070/4/6
f 1066/19/6 1067/19/6 1071/19/6
f 1071/19/6 1067/19/6 1072/19/6
f 1073/19/6 1074/19/6 1077/19/6
f 1077/19/6 1074/19/6 1078/19/6
f 1075/19/6 1076/19/6 1081/19/6
f 1081/19/6 1076/19/6 1082/19/6
f 1078/19/6 1079/19/6 1083/19/6
f 1083/19/6 1079/19/6 1084/19/6
f 1080/19/6 1081/19/6 1085/19/6
f 1085/19/6 1081/19/6 1086/19/6
f 1087/19/6 1088/19/6 1089/19/6
f 1089/19/6 1088/19/6 1090/19/6
f 1090/19/6 1091/19/6 1094/19/6
f 1094/19/6 1091/19/6 1095/19/6
f 1092/19/6 1093/19/6 1097/19/6
f 1097/19/6 1093/19/6 1098/19/6
f 1096/19/6 1097/19/6 1099/19/6
f 1099/19/6 1097/19/6 1100/19/6
f 1101/19/6 1102/19/6 1103/19/6
f 1103/19/6 1102/19/6 1104/19/6
f 1104/19/6 1105/19/6 1108/19/6
f 1108/19/6 1105/19/6 1109/19/6
f 1106/7/6 1107/7/6 1112/7/6
f 1112/7/6 1107/7/6 1113/7/6
f 1109/16/6 1110/16/6 1114/16/6
f 1114/16/6 1110/16/6 1115/16/6
f 1114/12/6 1115/12/6 1116/12/6
f 1116/12/6 1115/12/6 1117/12/6
f 1111/19/6 1112/19/6 1118/19/6
f 1118/19/6 1112/19/6 1119/19/6
f 1119/7/6 1120/7/6 1121/7/6
f 1121/7/6 1120/7/6 1122/7/6
f 1116/16/6 1117/16/6 1124/16/6
f 1124/16/6 1117/16/6 1125/16/6
f 1123/19/6 1124/19/6 1127/19/6
f 1127/19/6 1124/19/6 1128/19/6
f 1126/19/6 1127/19/6 1129/19/6
f 1129/19/6 1127/19/6 1130/19/6
f 1131/19/6 1132/19/6 1133/19/6
f 1133/19/6 1132/19/6 1134/19/6
f 1134/19/6 1135/19/6 1138/19/6
f 1138/19/6 1135/19/6 1139/19/6
f 1139/19/6 1135/19/6 1140/19/6
f 1136/19/6 1137/19/6 1141/19/6
f 1141/19/6 1137/19/6 1142/19/6
f 1140/19/6 1135/19/6 1143/19/6
f 1143/19/6 1135/19/6 1145/19/6
f 1145/19/6 1135/19/6 1146/19/6
f 1144/19/6 1145/19/6 1147/19/6
f 1147/19/6 1145/19/6 1148/19/6
f 1149/19/6 1150/19/6 1151/19/6
f 1151/19/6 1150/19/6 1152/19/6
f 1149/19/6 1151/19/6 1153/19/6
f 1151/13/6 1152/13/6 1153/13/6
f 1153/13/6 1152/13/6 1154/13/6
f 1149/19/6 1153/19/6 1155/19/6
f 1153/11/6 1154/11/6 1155/11/6
f 1155/11/6 1154/11/6 1156/11/6
f 1149/19/6 1155/19/6 1157/19/6
f 1155/13/6 1156/13/6 1157/13/6
f 1157/13/6 1156/13/6 1158/13/6
f 1149/19/6 1157/19/6 1159/19/6
f 1157/19/6 1158/19/6 1159/19/6
f 1159/19/6 1158/19/6 1160/19/6
