# MagicaVoxel @ Ephtracy

# group
o 

# material
mtllib MaleThighLeft.mtl
usemtl palette

# normals
vn -1 0 0
vn 1 0 0
vn 0 0 1
vn 0 0 -1
vn 0 -1 0
vn 0 1 0

# texcoords
vt 0.00195312 0.5
vt 0.00976562 0.5
vt 0.0175781 0.5
vt 0.0214844 0.5
vt 0.0253906 0.5
vt 0.0292969 0.5
vt 0.0371094 0.5
vt 0.0410156 0.5
vt 0.0449219 0.5
vt 0.0527344 0.5
vt 0.0566406 0.5
vt 0.0605469 0.5
vt 0.978516 0.5

# verts
v -0.2 0.5 0
v -0.2 0.5 -0.2
v -0.2 0.5 -0.3
v -0.2 0.6 0
v -0.2 0.6 -0.2
v -0.2 0.6 -0.3
v -0.2 0.7 0.1
v -0.2 0.7 0
v -0.2 0.7 -0.2
v -0.2 0.8 0.1
v -0.2 0.8 0
v -0.2 0.8 -0.2
v -0.2 0.8 -0.3
v -0.2 1.1 0
v -0.2 1.1 -0.2
v -0.2 1.1 -0.3
v -0.2 1.2 0.1
v -0.2 1.2 0
v -0.2 1.2 -0.2
v -0.2 1.2 -0.3
v -0.2 1.4 0
v -0.2 1.4 -0.2
v -0.1 0.5 0.1
v -0.1 0.5 0
v -0.1 0.6 0.1
v -0.1 0.6 0
v -0.1 0.6 -0.2
v -0.1 0.6 -0.3
v -0.1 0.7 0.1
v -0.1 0.7 0
v -0.1 0.7 -0.2
v -0.1 0.7 -0.3
v -0.1 1.2 0.1
v -0.1 1.2 0
v -0.1 1.4 0.1
v -0.1 1.4 0
v 0 0.7 -0.2
v 0 0.7 -0.3
v 0 0.8 -0.2
v 0 0.8 -0.3
v 0 1.2 -0.2
v 0 1.2 -0.3
v 0 1.4 -0.2
v 0 1.4 -0.3
v 0.1 0.5 0.1
v 0.1 0.5 0
v 0.1 0.6 0.1
v 0.1 0.6 0
v 0.2 0.5 -0.2
v 0.2 0.5 -0.3
v 0.2 0.6 0.1
v 0.2 0.6 0
v 0.2 0.6 -0.2
v 0.2 0.6 -0.3
v 0.2 0.7 0
v 0.2 0.7 -0.2
v 0.2 0.8 0.1
v 0.2 0.8 0
v 0.2 0.8 -0.1
v 0.2 0.8 -0.2
v 0.2 0.8 -0.3
v 0.2 0.9 0
v 0.2 0.9 -0.1
v 0.2 1.1 0.1
v 0.2 1.1 0
v 0.2 1.2 0.1
v 0.2 1.2 0
v 0.2 1.2 -0.2
v 0.2 1.2 -0.3
v 0.2 1.4 0.1
v 0.2 1.4 0
v 0.2 1.4 -0.2
v 0.2 1.4 -0.3
v 0.3 0.5 0
v 0.3 0.5 -0.2
v 0.3 0.6 0
v 0.3 0.6 -0.2
v 0.3 0.7 0
v 0.3 0.7 -0.2
v 0.3 0.8 -0.1
v 0.3 0.8 -0.2
v 0.3 0.8 -0.3
v 0.3 0.9 0
v 0.3 0.9 -0.1
v 0.3 1.1 0
v 0.3 1.1 -0.2
v 0.3 1.2 0
v 0.3 1.2 -0.2
v 0.3 1.2 -0.3
v 0.3 1.4 0
v 0.3 1.4 -0.2
v -0.2 0.7 0.1
v -0.2 0.8 0.1
v -0.2 1.2 0.1
v -0.1 0.5 0.1
v -0.1 0.6 0.1
v -0.1 0.7 0.1
v -0.1 1.2 0.1
v -0.1 1.4 0.1
v 0 0.5 0.1
v 0 0.6 0.1
v 0 0.8 0.1
v 0 1.1 0.1
v 0 1.2 0.1
v 0 1.4 0.1
v 0.1 0.5 0.1
v 0.1 0.6 0.1
v 0.1 0.8 0.1
v 0.1 1.1 0.1
v 0.1 1.2 0.1
v 0.2 0.6 0.1
v 0.2 0.8 0.1
v 0.2 1.1 0.1
v 0.2 1.2 0.1
v 0.2 1.4 0.1
v -0.2 0.5 0
v -0.2 0.6 0
v -0.2 1.2 0
v -0.2 1.4 0
v -0.1 0.5 0
v -0.1 0.6 0
v -0.1 1.2 0
v -0.1 1.4 0
v 0.1 0.5 0
v 0.1 0.6 0
v 0.2 0.5 0
v 0.2 0.6 0
v 0.2 0.7 0
v 0.2 0.9 0
v 0.2 1.1 0
v 0.2 1.2 0
v 0.2 1.4 0
v 0.3 0.5 0
v 0.3 0.6 0
v 0.3 0.7 0
v 0.3 0.9 0
v 0.3 1.1 0
v 0.3 1.2 0
v 0.3 1.4 0
v 0.2 0.8 -0.1
v 0.2 0.9 -0.1
v 0.3 0.8 -0.1
v 0.3 0.9 -0.1
v -0.2 0.7 -0.2
v -0.2 0.8 -0.2
v -0.2 1.2 -0.2
v -0.2 1.4 -0.2
v -0.1 0.7 -0.2
v 0 0.7 -0.2
v 0 0.8 -0.2
v 0 1.2 -0.2
v 0 1.4 -0.2
v 0.2 0.5 -0.2
v 0.2 0.6 -0.2
v 0.2 0.7 -0.2
v 0.2 1.2 -0.2
v 0.2 1.4 -0.2
v 0.3 0.5 -0.2
v 0.3 0.6 -0.2
v 0.3 0.7 -0.2
v 0.3 1.2 -0.2
v 0.3 1.4 -0.2
v -0.2 0.5 -0.3
v -0.2 0.6 -0.3
v -0.2 0.8 -0.3
v -0.2 1.1 -0.3
v -0.2 1.2 -0.3
v -0.1 0.5 -0.3
v -0.1 0.6 -0.3
v -0.1 0.7 -0.3
v 0 0.5 -0.3
v 0 0.6 -0.3
v 0 0.7 -0.3
v 0 0.8 -0.3
v 0 1.1 -0.3
v 0 1.2 -0.3
v 0 1.4 -0.3
v 0.1 0.6 -0.3
v 0.1 0.7 -0.3
v 0.1 0.8 -0.3
v 0.1 1.2 -0.3
v 0.1 1.4 -0.3
v 0.2 0.5 -0.3
v 0.2 0.6 -0.3
v 0.2 0.8 -0.3
v 0.2 1.2 -0.3
v 0.2 1.4 -0.3
v 0.3 0.8 -0.3
v 0.3 1.2 -0.3
v -0.1 0.5 0.1
v 0 0.5 0.1
v 0.1 0.5 0.1
v -0.2 0.5 0
v -0.1 0.5 0
v 0 0.5 0
v 0.1 0.5 0
v 0.2 0.5 0
v 0.3 0.5 0
v -0.2 0.5 -0.2
v -0.1 0.5 -0.2
v 0 0.5 -0.2
v 0.2 0.5 -0.2
v 0.3 0.5 -0.2
v -0.2 0.5 -0.3
v -0.1 0.5 -0.3
v 0 0.5 -0.3
v 0.2 0.5 -0.3
v 0.1 0.6 0.1
v 0.2 0.6 0.1
v 0.1 0.6 0
v 0.2 0.6 0
v -0.2 0.7 0.1
v -0.1 0.7 0.1
v -0.2 0.7 0
v -0.1 0.7 0
v -0.2 0.7 -0.2
v -0.1 0.7 -0.2
v 0.2 0.8 -0.1
v 0.3 0.8 -0.1
v -0.2 0.8 -0.2
v 0 0.8 -0.2
v 0.2 0.8 -0.2
v 0.3 0.8 -0.2
v -0.2 0.8 -0.3
v 0 0.8 -0.3
v 0.2 0.8 -0.3
v 0.3 0.8 -0.3
v 0.2 0.9 0
v 0.3 0.9 0
v 0.2 0.9 -0.1
v 0.3 0.9 -0.1
v -0.2 0.6 0
v -0.1 0.6 0
v -0.2 0.6 -0.2
v -0.1 0.6 -0.2
v -0.2 0.6 -0.3
v -0.1 0.6 -0.3
v 0.2 0.7 0
v 0.3 0.7 0
v -0.1 0.7 -0.2
v 0 0.7 -0.2
v 0.2 0.7 -0.2
v 0.3 0.7 -0.2
v -0.1 0.7 -0.3
v 0 0.7 -0.3
v -0.2 1.2 0.1
v -0.1 1.2 0.1
v -0.2 1.2 0
v -0.1 1.2 0
v -0.2 1.2 -0.2
v 0 1.2 -0.2
v 0.2 1.2 -0.2
v 0.3 1.2 -0.2
v -0.2 1.2 -0.3
v 0 1.2 -0.3
v 0.2 1.2 -0.3
v 0.3 1.2 -0.3
v -0.1 1.4 0.1
v 0 1.4 0.1
v 0.2 1.4 0.1
v -0.2 1.4 0
v -0.1 1.4 0
v 0 1.4 0
v 0.2 1.4 0
v 0.3 1.4 0
v -0.2 1.4 -0.2
v 0 1.4 -0.2
v 0.1 1.4 -0.2
v 0.2 1.4 -0.2
v 0.3 1.4 -0.2
v 0 1.4 -0.3
v 0.1 1.4 -0.3
v 0.2 1.4 -0.3

# faces
f 4/6/1 2/6/1 1/6/1
f 5/5/1 3/5/1 2/5/1
f 5/6/1 2/6/1 4/6/1
f 6/5/1 3/5/1 5/5/1
f 10/13/1 8/13/1 7/13/1
f 11/8/1 9/8/1 8/8/1
f 11/13/1 8/13/1 10/13/1
f 12/8/1 9/8/1 11/8/1
f 14/3/1 11/3/1 10/3/1
f 14/7/1 12/7/1 11/7/1
f 15/4/1 13/4/1 12/4/1
f 15/7/1 12/7/1 14/7/1
f 16/4/1 13/4/1 15/4/1
f 17/3/1 14/3/1 10/3/1
f 17/3/1 15/3/1 14/3/1
f 17/3/1 16/3/1 15/3/1
f 18/3/1 16/3/1 17/3/1
f 19/3/1 16/3/1 18/3/1
f 20/3/1 16/3/1 19/3/1
f 21/3/1 19/3/1 18/3/1
f 22/3/1 19/3/1 21/3/1
f 25/5/1 24/5/1 23/5/1
f 26/5/1 24/5/1 25/5/1
f 29/13/1 26/13/1 25/13/1
f 30/8/1 27/8/1 26/8/1
f 30/13/1 26/13/1 29/13/1
f 31/1/1 28/1/1 27/1/1
f 31/8/1 27/8/1 30/8/1
f 32/1/1 28/1/1 31/1/1
f 35/4/1 34/4/1 33/4/1
f 36/4/1 34/4/1 35/4/1
f 39/6/1 38/6/1 37/6/1
f 40/6/1 38/6/1 39/6/1
f 43/10/1 42/10/1 41/10/1
f 44/10/1 42/10/1 43/10/1
f 45/2/2 46/2/2 47/2/2
f 47/2/2 46/2/2 48/2/2
f 49/13/2 50/13/2 53/13/2
f 53/13/2 50/13/2 54/13/2
f 51/2/2 52/2/2 55/2/2
f 53/2/2 54/2/2 56/2/2
f 51/2/2 55/2/2 57/2/2
f 55/11/2 56/11/2 58/11/2
f 57/2/2 55/2/2 58/2/2
f 58/11/2 56/11/2 59/11/2
f 56/2/2 54/2/2 60/2/2
f 59/11/2 56/11/2 60/11/2
f 60/2/2 54/2/2 61/2/2
f 58/4/2 59/4/2 62/4/2
f 57/3/2 58/3/2 62/3/2
f 62/4/2 59/4/2 63/4/2
f 57/3/2 62/3/2 64/3/2
f 64/3/2 62/3/2 65/3/2
f 64/4/2 65/4/2 66/4/2
f 66/4/2 65/4/2 67/4/2
f 66/3/2 67/3/2 70/3/2
f 70/3/2 67/3/2 71/3/2
f 68/3/2 69/3/2 72/3/2
f 72/3/2 69/3/2 73/3/2
f 74/12/2 75/12/2 76/12/2
f 76/12/2 75/12/2 77/12/2
f 76/13/2 77/13/2 78/13/2
f 78/13/2 77/13/2 79/13/2
f 80/4/2 81/4/2 84/4/2
f 83/4/2 84/4/2 85/4/2
f 81/7/2 82/7/2 86/7/2
f 85/4/2 84/4/2 86/4/2
f 84/4/2 81/4/2 86/4/2
f 85/3/2 86/3/2 87/3/2
f 86/7/2 82/7/2 88/7/2
f 87/3/2 86/3/2 88/3/2
f 88/7/2 82/7/2 89/7/2
f 87/10/2 88/10/2 90/10/2
f 90/10/2 88/10/2 91/10/2
f 97/13/3 93/13/3 92/13/3
f 98/3/3 94/3/3 93/3/3
f 100/5/3 96/5/3 95/5/3
f 101/13/3 97/13/3 96/13/3
f 101/5/3 96/5/3 100/5/3
f 102/13/3 93/13/3 97/13/3
f 102/13/3 97/13/3 101/13/3
f 102/3/3 98/3/3 93/3/3
f 103/3/3 98/3/3 102/3/3
f 104/4/3 99/4/3 98/4/3
f 104/3/3 98/3/3 103/3/3
f 105/4/3 99/4/3 104/4/3
f 106/2/3 101/2/3 100/2/3
f 107/6/3 102/6/3 101/6/3
f 107/2/3 101/2/3 106/2/3
f 108/4/3 103/4/3 102/4/3
f 108/6/3 102/6/3 107/6/3
f 109/3/3 104/3/3 103/3/3
f 109/4/3 103/4/3 108/4/3
f 109/3/3 105/3/3 104/3/3
f 110/3/3 105/3/3 109/3/3
f 111/2/3 108/2/3 107/2/3
f 112/3/3 109/3/3 108/3/3
f 112/2/3 108/2/3 111/2/3
f 113/4/3 110/4/3 109/4/3
f 113/3/3 109/3/3 112/3/3
f 114/3/3 105/3/3 110/3/3
f 114/4/3 110/4/3 113/4/3
f 115/3/3 105/3/3 114/3/3
f 120/6/3 117/6/3 116/6/3
f 121/6/3 117/6/3 120/6/3
f 122/3/3 119/3/3 118/3/3
f 123/3/3 119/3/3 122/3/3
f 126/1/3 125/1/3 124/1/3
f 127/1/3 125/1/3 126/1/3
f 133/12/3 127/12/3 126/12/3
f 134/13/3 128/13/3 127/13/3
f 134/12/3 127/12/3 133/12/3
f 135/13/3 128/13/3 134/13/3
f 136/4/3 130/4/3 129/4/3
f 137/3/3 131/3/3 130/3/3
f 137/4/3 130/4/3 136/4/3
f 138/10/3 132/10/3 131/10/3
f 138/3/3 131/3/3 137/3/3
f 139/10/3 132/10/3 138/10/3
f 142/4/3 141/4/3 140/4/3
f 143/4/3 141/4/3 142/4/3
f 144/8/4 145/8/4 148/8/4
f 148/8/4 145/8/4 149/8/4
f 149/8/4 145/8/4 150/8/4
f 146/3/4 147/3/4 151/3/4
f 151/3/4 147/3/4 152/3/4
f 153/12/4 154/12/4 158/12/4
f 154/13/4 155/13/4 159/13/4
f 158/12/4 154/12/4 159/12/4
f 159/13/4 155/13/4 160/13/4
f 156/10/4 157/10/4 161/10/4
f 161/10/4 157/10/4 162/10/4
f 163/5/4 164/5/4 168/5/4
f 168/5/4 164/5/4 169/5/4
f 168/1/4 169/1/4 171/1/4
f 169/1/4 170/1/4 171/1/4
f 171/1/4 170/1/4 172/1/4
f 172/1/4 170/1/4 173/1/4
f 165/4/4 166/4/4 174/4/4
f 166/3/4 167/3/4 175/3/4
f 174/4/4 166/4/4 175/4/4
f 175/3/4 167/3/4 176/3/4
f 172/1/4 173/1/4 178/1/4
f 171/13/4 172/13/4 178/13/4
f 173/6/4 174/6/4 179/6/4
f 178/1/4 173/1/4 179/1/4
f 175/3/4 176/3/4 180/3/4
f 179/6/4 174/6/4 180/6/4
f 174/3/4 175/3/4 180/3/4
f 176/10/4 177/10/4 181/10/4
f 180/3/4 176/3/4 181/3/4
f 181/10/4 177/10/4 182/10/4
f 171/13/4 178/13/4 183/13/4
f 179/2/4 180/2/4 184/2/4
f 183/13/4 178/13/4 184/13/4
f 178/2/4 179/2/4 184/2/4
f 180/7/4 181/7/4 185/7/4
f 184/2/4 180/2/4 185/2/4
f 181/3/4 182/3/4 186/3/4
f 185/7/4 181/7/4 186/7/4
f 186/3/4 182/3/4 187/3/4
f 185/7/4 186/7/4 188/7/4
f 188/7/4 186/7/4 189/7/4
f 194/5/5 191/5/5 190/5/5
f 195/2/5 192/2/5 191/2/5
f 195/5/5 191/5/5 194/5/5
f 196/2/5 192/2/5 195/2/5
f 199/6/5 194/6/5 193/6/5
f 199/6/5 195/6/5 194/6/5
f 200/6/5 195/6/5 199/6/5
f 201/1/5 197/1/5 196/1/5
f 201/6/5 195/6/5 200/6/5
f 201/1/5 196/1/5 195/1/5
f 202/12/5 198/12/5 197/12/5
f 202/1/5 197/1/5 201/1/5
f 203/12/5 198/12/5 202/12/5
f 204/5/5 200/5/5 199/5/5
f 205/1/5 201/1/5 200/1/5
f 205/5/5 200/5/5 204/5/5
f 206/13/5 202/13/5 201/13/5
f 206/1/5 201/1/5 205/1/5
f 207/13/5 202/13/5 206/13/5
f 210/2/5 209/2/5 208/2/5
f 211/2/5 209/2/5 210/2/5
f 214/13/5 213/13/5 212/13/5
f 215/13/5 213/13/5 214/13/5
f 216/8/5 215/8/5 214/8/5
f 217/8/5 215/8/5 216/8/5
f 222/4/5 219/4/5 218/4/5
f 223/4/5 219/4/5 222/4/5
f 224/4/5 221/4/5 220/4/5
f 225/4/5 221/4/5 224/4/5
f 226/7/5 223/7/5 222/7/5
f 227/7/5 223/7/5 226/7/5
f 230/4/5 229/4/5 228/4/5
f 231/4/5 229/4/5 230/4/5
f 232/6/6 233/6/6 234/6/6
f 234/6/6 233/6/6 235/6/6
f 234/5/6 235/5/6 236/5/6
f 236/5/6 235/5/6 237/5/6
f 238/13/6 239/13/6 242/13/6
f 242/13/6 239/13/6 243/13/6
f 240/1/6 241/1/6 244/1/6
f 244/1/6 241/1/6 245/1/6
f 246/3/6 247/3/6 248/3/6
f 248/3/6 247/3/6 249/3/6
f 250/3/6 251/3/6 254/3/6
f 254/3/6 251/3/6 255/3/6
f 252/7/6 253/7/6 256/7/6
f 256/7/6 253/7/6 257/7/6
f 258/4/6 259/4/6 262/4/6
f 259/3/6 260/3/6 263/3/6
f 262/4/6 259/4/6 263/4/6
f 263/3/6 260/3/6 264/3/6
f 261/3/6 262/3/6 266/3/6
f 262/3/6 263/3/6 266/3/6
f 264/10/6 265/10/6 267/10/6
f 266/3/6 263/3/6 267/3/6
f 263/10/6 264/10/6 267/10/6
f 267/10/6 265/10/6 268/10/6
f 268/10/6 265/10/6 269/10/6
f 269/10/6 265/10/6 270/10/6
f 267/10/6 268/10/6 271/10/6
f 268/3/6 269/3/6 272/3/6
f 271/10/6 268/10/6 272/10/6
f 272/3/6 269/3/6 273/3/6
