# MagicaVoxel @ Ephtracy

# group
o 

# material
mtllib MaleThighRight.mtl
usemtl palette

# normals
vn -1 0 0
vn 1 0 0
vn 0 0 1
vn 0 0 -1
vn 0 -1 0
vn 0 1 0

# texcoords
vt 0.00195312 0.5
vt 0.00976562 0.5
vt 0.0175781 0.5
vt 0.0214844 0.5
vt 0.0253906 0.5
vt 0.0292969 0.5
vt 0.0371094 0.5
vt 0.0410156 0.5
vt 0.0449219 0.5
vt 0.0527344 0.5
vt 0.0566406 0.5
vt 0.0605469 0.5
vt 0.978516 0.5

# verts
v -0.2 0.5 -0.3
v -0.2 0.5 -0.4
v -0.2 0.5 -0.6
v -0.2 0.6 -0.3
v -0.2 0.6 -0.4
v -0.2 0.6 -0.6
v -0.2 0.7 -0.4
v -0.2 0.7 -0.6
v -0.2 0.7 -0.7
v -0.2 0.8 -0.3
v -0.2 0.8 -0.4
v -0.2 0.8 -0.6
v -0.2 0.8 -0.7
v -0.2 1.1 -0.3
v -0.2 1.1 -0.4
v -0.2 1.1 -0.6
v -0.2 1.2 -0.3
v -0.2 1.2 -0.4
v -0.2 1.2 -0.6
v -0.2 1.2 -0.7
v -0.2 1.4 -0.4
v -0.2 1.4 -0.6
v -0.1 0.5 -0.6
v -0.1 0.5 -0.7
v -0.1 0.6 -0.3
v -0.1 0.6 -0.4
v -0.1 0.6 -0.6
v -0.1 0.6 -0.7
v -0.1 0.7 -0.3
v -0.1 0.7 -0.4
v -0.1 0.7 -0.6
v -0.1 0.7 -0.7
v -0.1 1.2 -0.6
v -0.1 1.2 -0.7
v -0.1 1.4 -0.6
v -0.1 1.4 -0.7
v 0 0.7 -0.3
v 0 0.7 -0.4
v 0 0.8 -0.3
v 0 0.8 -0.4
v 0 1.2 -0.3
v 0 1.2 -0.4
v 0 1.4 -0.3
v 0 1.4 -0.4
v 0.1 0.5 -0.6
v 0.1 0.5 -0.7
v 0.1 0.6 -0.6
v 0.1 0.6 -0.7
v 0.2 0.5 -0.3
v 0.2 0.5 -0.4
v 0.2 0.6 -0.3
v 0.2 0.6 -0.4
v 0.2 0.6 -0.6
v 0.2 0.6 -0.7
v 0.2 0.7 -0.4
v 0.2 0.7 -0.6
v 0.2 0.8 -0.3
v 0.2 0.8 -0.4
v 0.2 0.8 -0.5
v 0.2 0.8 -0.6
v 0.2 0.8 -0.7
v 0.2 0.9 -0.5
v 0.2 0.9 -0.6
v 0.2 1.1 -0.6
v 0.2 1.1 -0.7
v 0.2 1.2 -0.3
v 0.2 1.2 -0.4
v 0.2 1.2 -0.6
v 0.2 1.2 -0.7
v 0.2 1.4 -0.3
v 0.2 1.4 -0.4
v 0.2 1.4 -0.6
v 0.2 1.4 -0.7
v 0.3 0.5 -0.4
v 0.3 0.5 -0.6
v 0.3 0.6 -0.4
v 0.3 0.6 -0.6
v 0.3 0.7 -0.4
v 0.3 0.7 -0.6
v 0.3 0.8 -0.3
v 0.3 0.8 -0.4
v 0.3 0.8 -0.5
v 0.3 0.9 -0.5
v 0.3 0.9 -0.6
v 0.3 1.1 -0.4
v 0.3 1.1 -0.6
v 0.3 1.2 -0.3
v 0.3 1.2 -0.4
v 0.3 1.2 -0.6
v 0.3 1.4 -0.4
v 0.3 1.4 -0.6
v -0.2 0.5 -0.3
v -0.2 0.6 -0.3
v -0.2 0.8 -0.3
v -0.2 1.1 -0.3
v -0.2 1.2 -0.3
v -0.1 0.5 -0.3
v -0.1 0.6 -0.3
v -0.1 0.7 -0.3
v 0 0.5 -0.3
v 0 0.6 -0.3
v 0 0.7 -0.3
v 0 0.8 -0.3
v 0 1.1 -0.3
v 0 1.2 -0.3
v 0 1.4 -0.3
v 0.1 0.6 -0.3
v 0.1 0.7 -0.3
v 0.1 0.8 -0.3
v 0.1 1.2 -0.3
v 0.1 1.4 -0.3
v 0.2 0.5 -0.3
v 0.2 0.6 -0.3
v 0.2 0.8 -0.3
v 0.2 1.2 -0.3
v 0.2 1.4 -0.3
v 0.3 0.8 -0.3
v 0.3 1.2 -0.3
v -0.2 0.7 -0.4
v -0.2 0.8 -0.4
v -0.2 1.2 -0.4
v -0.2 1.4 -0.4
v -0.1 0.7 -0.4
v 0 0.7 -0.4
v 0 0.8 -0.4
v 0 1.2 -0.4
v 0 1.4 -0.4
v 0.2 0.5 -0.4
v 0.2 0.6 -0.4
v 0.2 0.7 -0.4
v 0.2 1.2 -0.4
v 0.2 1.4 -0.4
v 0.3 0.5 -0.4
v 0.3 0.6 -0.4
v 0.3 0.7 -0.4
v 0.3 1.2 -0.4
v 0.3 1.4 -0.4
v 0.2 0.8 -0.5
v 0.2 0.9 -0.5
v 0.3 0.8 -0.5
v 0.3 0.9 -0.5
v -0.2 0.5 -0.6
v -0.2 0.6 -0.6
v -0.2 1.2 -0.6
v -0.2 1.4 -0.6
v -0.1 0.5 -0.6
v -0.1 0.6 -0.6
v -0.1 1.2 -0.6
v -0.1 1.4 -0.6
v 0.1 0.5 -0.6
v 0.1 0.6 -0.6
v 0.2 0.5 -0.6
v 0.2 0.6 -0.6
v 0.2 0.7 -0.6
v 0.2 0.9 -0.6
v 0.2 1.1 -0.6
v 0.2 1.2 -0.6
v 0.2 1.4 -0.6
v 0.3 0.5 -0.6
v 0.3 0.6 -0.6
v 0.3 0.7 -0.6
v 0.3 0.9 -0.6
v 0.3 1.1 -0.6
v 0.3 1.2 -0.6
v 0.3 1.4 -0.6
v -0.2 0.7 -0.7
v -0.2 0.8 -0.7
v -0.2 1.2 -0.7
v -0.1 0.5 -0.7
v -0.1 0.6 -0.7
v -0.1 0.7 -0.7
v -0.1 1.2 -0.7
v -0.1 1.4 -0.7
v 0 0.5 -0.7
v 0 0.6 -0.7
v 0 0.8 -0.7
v 0 1.1 -0.7
v 0 1.2 -0.7
v 0 1.4 -0.7
v 0.1 0.5 -0.7
v 0.1 0.6 -0.7
v 0.1 0.8 -0.7
v 0.1 1.1 -0.7
v 0.1 1.2 -0.7
v 0.2 0.6 -0.7
v 0.2 0.8 -0.7
v 0.2 1.1 -0.7
v 0.2 1.2 -0.7
v 0.2 1.4 -0.7
v -0.2 0.5 -0.3
v -0.1 0.5 -0.3
v 0 0.5 -0.3
v 0.2 0.5 -0.3
v -0.2 0.5 -0.4
v -0.1 0.5 -0.4
v 0 0.5 -0.4
v 0.2 0.5 -0.4
v 0.3 0.5 -0.4
v -0.2 0.5 -0.6
v -0.1 0.5 -0.6
v 0 0.5 -0.6
v 0.1 0.5 -0.6
v 0.2 0.5 -0.6
v 0.3 0.5 -0.6
v -0.1 0.5 -0.7
v 0 0.5 -0.7
v 0.1 0.5 -0.7
v 0.1 0.6 -0.6
v 0.2 0.6 -0.6
v 0.1 0.6 -0.7
v 0.2 0.6 -0.7
v -0.2 0.7 -0.4
v -0.1 0.7 -0.4
v -0.2 0.7 -0.6
v -0.1 0.7 -0.6
v -0.2 0.7 -0.7
v -0.1 0.7 -0.7
v -0.2 0.8 -0.3
v 0 0.8 -0.3
v 0.2 0.8 -0.3
v 0.3 0.8 -0.3
v -0.2 0.8 -0.4
v 0 0.8 -0.4
v 0.2 0.8 -0.4
v 0.3 0.8 -0.4
v 0.2 0.8 -0.5
v 0.3 0.8 -0.5
v 0.2 0.9 -0.5
v 0.3 0.9 -0.5
v 0.2 0.9 -0.6
v 0.3 0.9 -0.6
v -0.2 0.6 -0.3
v -0.1 0.6 -0.3
v -0.2 0.6 -0.4
v -0.1 0.6 -0.4
v -0.2 0.6 -0.6
v -0.1 0.6 -0.6
v -0.1 0.7 -0.3
v 0 0.7 -0.3
v -0.1 0.7 -0.4
v 0 0.7 -0.4
v 0.2 0.7 -0.4
v 0.3 0.7 -0.4
v 0.2 0.7 -0.6
v 0.3 0.7 -0.6
v -0.2 1.2 -0.3
v 0 1.2 -0.3
v 0.2 1.2 -0.3
v 0.3 1.2 -0.3
v -0.2 1.2 -0.4
v 0 1.2 -0.4
v 0.2 1.2 -0.4
v 0.3 1.2 -0.4
v -0.2 1.2 -0.6
v -0.1 1.2 -0.6
v -0.2 1.2 -0.7
v -0.1 1.2 -0.7
v 0 1.4 -0.3
v 0.1 1.4 -0.3
v 0.2 1.4 -0.3
v -0.2 1.4 -0.4
v 0 1.4 -0.4
v 0.1 1.4 -0.4
v 0.2 1.4 -0.4
v 0.3 1.4 -0.4
v -0.2 1.4 -0.6
v -0.1 1.4 -0.6
v 0 1.4 -0.6
v 0.2 1.4 -0.6
v 0.3 1.4 -0.6
v -0.1 1.4 -0.7
v 0 1.4 -0.7
v 0.2 1.4 -0.7

# faces
f 4/5/1 2/5/1 1/5/1
f 5/6/1 3/6/1 2/6/1
f 5/5/1 2/5/1 4/5/1
f 6/6/1 3/6/1 5/6/1
f 11/8/1 8/8/1 7/8/1
f 12/13/1 9/13/1 8/13/1
f 12/8/1 8/8/1 11/8/1
f 13/13/1 9/13/1 12/13/1
f 14/4/1 11/4/1 10/4/1
f 15/7/1 12/7/1 11/7/1
f 15/4/1 11/4/1 14/4/1
f 16/3/1 13/3/1 12/3/1
f 16/7/1 12/7/1 15/7/1
f 17/3/1 15/3/1 14/3/1
f 17/3/1 16/3/1 15/3/1
f 18/3/1 16/3/1 17/3/1
f 19/3/1 13/3/1 16/3/1
f 19/3/1 16/3/1 18/3/1
f 20/3/1 13/3/1 19/3/1
f 21/3/1 19/3/1 18/3/1
f 22/3/1 19/3/1 21/3/1
f 27/5/1 24/5/1 23/5/1
f 28/5/1 24/5/1 27/5/1
f 29/1/1 26/1/1 25/1/1
f 30/8/1 27/8/1 26/8/1
f 30/1/1 26/1/1 29/1/1
f 31/13/1 28/13/1 27/13/1
f 31/8/1 27/8/1 30/8/1
f 32/13/1 28/13/1 31/13/1
f 35/4/1 34/4/1 33/4/1
f 36/4/1 34/4/1 35/4/1
f 39/6/1 38/6/1 37/6/1
f 40/6/1 38/6/1 39/6/1
f 43/10/1 42/10/1 41/10/1
f 44/10/1 42/10/1 43/10/1
f 45/2/2 46/2/2 47/2/2
f 47/2/2 46/2/2 48/2/2
f 49/13/2 50/13/2 51/13/2
f 51/13/2 50/13/2 52/13/2
f 51/2/2 52/2/2 55/2/2
f 53/2/2 54/2/2 56/2/2
f 51/2/2 55/2/2 57/2/2
f 55/11/2 56/11/2 58/11/2
f 57/2/2 55/2/2 58/2/2
f 58/11/2 56/11/2 59/11/2
f 56/2/2 54/2/2 60/2/2
f 59/11/2 56/11/2 60/11/2
f 60/2/2 54/2/2 61/2/2
f 59/4/2 60/4/2 62/4/2
f 60/3/2 61/3/2 63/3/2
f 62/4/2 60/4/2 63/4/2
f 63/3/2 61/3/2 64/3/2
f 64/3/2 61/3/2 65/3/2
f 64/4/2 65/4/2 68/4/2
f 68/4/2 65/4/2 69/4/2
f 66/3/2 67/3/2 70/3/2
f 70/3/2 67/3/2 71/3/2
f 68/3/2 69/3/2 72/3/2
f 72/3/2 69/3/2 73/3/2
f 74/12/2 75/12/2 76/12/2
f 76/12/2 75/12/2 77/12/2
f 76/13/2 77/13/2 78/13/2
f 78/13/2 77/13/2 79/13/2
f 81/4/2 82/4/2 83/4/2
f 80/7/2 81/7/2 85/7/2
f 83/4/2 84/4/2 85/4/2
f 81/4/2 83/4/2 85/4/2
f 85/4/2 84/4/2 86/4/2
f 80/7/2 85/7/2 87/7/2
f 85/3/2 86/3/2 88/3/2
f 87/7/2 85/7/2 88/7/2
f 88/3/2 86/3/2 89/3/2
f 88/10/2 89/10/2 90/10/2
f 90/10/2 89/10/2 91/10/2
f 97/5/3 93/5/3 92/5/3
f 98/5/3 93/5/3 97/5/3
f 100/1/3 98/1/3 97/1/3
f 100/1/3 99/1/3 98/1/3
f 101/1/3 99/1/3 100/1/3
f 102/1/3 99/1/3 101/1/3
f 103/4/3 95/4/3 94/4/3
f 104/3/3 96/3/3 95/3/3
f 104/4/3 95/4/3 103/4/3
f 105/3/3 96/3/3 104/3/3
f 107/1/3 102/1/3 101/1/3
f 107/13/3 101/13/3 100/13/3
f 108/6/3 103/6/3 102/6/3
f 108/1/3 102/1/3 107/1/3
f 109/3/3 105/3/3 104/3/3
f 109/6/3 103/6/3 108/6/3
f 109/3/3 104/3/3 103/3/3
f 110/10/3 106/10/3 105/10/3
f 110/3/3 105/3/3 109/3/3
f 111/10/3 106/10/3 110/10/3
f 112/13/3 107/13/3 100/13/3
f 113/2/3 109/2/3 108/2/3
f 113/13/3 107/13/3 112/13/3
f 113/2/3 108/2/3 107/2/3
f 114/7/3 110/7/3 109/7/3
f 114/2/3 109/2/3 113/2/3
f 115/3/3 111/3/3 110/3/3
f 115/7/3 110/7/3 114/7/3
f 116/3/3 111/3/3 115/3/3
f 117/7/3 115/7/3 114/7/3
f 118/7/3 115/7/3 117/7/3
f 123/8/3 120/8/3 119/8/3
f 124/8/3 120/8/3 123/8/3
f 125/8/3 120/8/3 124/8/3
f 126/3/3 122/3/3 121/3/3
f 127/3/3 122/3/3 126/3/3
f 133/12/3 129/12/3 128/12/3
f 134/13/3 130/13/3 129/13/3
f 134/12/3 129/12/3 133/12/3
f 135/13/3 130/13/3 134/13/3
f 136/10/3 132/10/3 131/10/3
f 137/10/3 132/10/3 136/10/3
f 138/4/4 139/4/4 140/4/4
f 140/4/4 139/4/4 141/4/4
f 142/6/4 143/6/4 146/6/4
f 146/6/4 143/6/4 147/6/4
f 144/3/4 145/3/4 148/3/4
f 148/3/4 145/3/4 149/3/4
f 150/1/4 151/1/4 152/1/4
f 152/1/4 151/1/4 153/1/4
f 152/12/4 153/12/4 159/12/4
f 153/13/4 154/13/4 160/13/4
f 159/12/4 153/12/4 160/12/4
f 160/13/4 154/13/4 161/13/4
f 155/4/4 156/4/4 162/4/4
f 156/3/4 157/3/4 163/3/4
f 162/4/4 156/4/4 163/4/4
f 157/10/4 158/10/4 164/10/4
f 163/3/4 157/3/4 164/3/4
f 164/10/4 158/10/4 165/10/4
f 166/13/4 167/13/4 171/13/4
f 167/3/4 168/3/4 172/3/4
f 169/5/4 170/5/4 174/5/4
f 170/13/4 171/13/4 175/13/4
f 174/5/4 170/5/4 175/5/4
f 171/13/4 167/13/4 176/13/4
f 175/13/4 171/13/4 176/13/4
f 167/3/4 172/3/4 176/3/4
f 176/3/4 172/3/4 177/3/4
f 172/4/4 173/4/4 178/4/4
f 177/3/4 172/3/4 178/3/4
f 178/4/4 173/4/4 179/4/4
f 174/2/4 175/2/4 180/2/4
f 175/6/4 176/6/4 181/6/4
f 180/2/4 175/2/4 181/2/4
f 176/4/4 177/4/4 182/4/4
f 181/6/4 176/6/4 182/6/4
f 177/3/4 178/3/4 183/3/4
f 182/4/4 177/4/4 183/4/4
f 178/3/4 179/3/4 183/3/4
f 183/3/4 179/3/4 184/3/4
f 181/2/4 182/2/4 185/2/4
f 182/3/4 183/3/4 186/3/4
f 185/2/4 182/2/4 186/2/4
f 183/4/4 184/4/4 187/4/4
f 186/3/4 183/3/4 187/3/4
f 184/3/4 179/3/4 188/3/4
f 187/4/4 184/4/4 188/4/4
f 188/3/4 179/3/4 189/3/4
f 194/5/5 191/5/5 190/5/5
f 195/1/5 192/1/5 191/1/5
f 195/5/5 191/5/5 194/5/5
f 196/13/5 193/13/5 192/13/5
f 196/1/5 192/1/5 195/1/5
f 197/13/5 193/13/5 196/13/5
f 199/6/5 195/6/5 194/6/5
f 199/6/5 196/6/5 195/6/5
f 200/6/5 196/6/5 199/6/5
f 201/1/5 197/1/5 196/1/5
f 201/6/5 196/6/5 200/6/5
f 202/1/5 197/1/5 201/1/5
f 203/12/5 198/12/5 197/12/5
f 203/1/5 197/1/5 202/1/5
f 204/12/5 198/12/5 203/12/5
f 205/5/5 201/5/5 200/5/5
f 206/2/5 202/2/5 201/2/5
f 206/5/5 201/5/5 205/5/5
f 207/2/5 202/2/5 206/2/5
f 210/2/5 209/2/5 208/2/5
f 211/2/5 209/2/5 210/2/5
f 214/8/5 213/8/5 212/8/5
f 215/8/5 213/8/5 214/8/5
f 216/13/5 215/13/5 214/13/5
f 217/13/5 215/13/5 216/13/5
f 222/4/5 219/4/5 218/4/5
f 223/4/5 219/4/5 222/4/5
f 224/7/5 221/7/5 220/7/5
f 225/7/5 221/7/5 224/7/5
f 226/4/5 225/4/5 224/4/5
f 227/4/5 225/4/5 226/4/5
f 230/4/5 229/4/5 228/4/5
f 231/4/5 229/4/5 230/4/5
f 232/5/6 233/5/6 234/5/6
f 234/5/6 233/5/6 235/5/6
f 234/6/6 235/6/6 236/6/6
f 236/6/6 235/6/6 237/6/6
f 238/1/6 239/1/6 240/1/6
f 240/1/6 239/1/6 241/1/6
f 242/13/6 243/13/6 244/13/6
f 244/13/6 243/13/6 245/13/6
f 246/3/6 247/3/6 250/3/6
f 250/3/6 247/3/6 251/3/6
f 248/7/6 249/7/6 252/7/6
f 252/7/6 249/7/6 253/7/6
f 254/3/6 255/3/6 256/3/6
f 256/3/6 255/3/6 257/3/6
f 258/10/6 259/10/6 262/10/6
f 259/3/6 260/3/6 263/3/6
f 262/10/6 259/10/6 263/10/6
f 263/3/6 260/3/6 264/3/6
f 261/3/6 262/3/6 266/3/6
f 266/3/6 262/3/6 267/3/6
f 264/10/6 265/10/6 268/10/6
f 267/3/6 262/3/6 268/3/6
f 262/10/6 263/10/6 268/10/6
f 263/10/6 264/10/6 268/10/6
f 268/10/6 265/10/6 269/10/6
f 269/10/6 265/10/6 270/10/6
f 267/4/6 268/4/6 271/4/6
f 268/3/6 269/3/6 272/3/6
f 271/4/6 268/4/6 272/4/6
f 272/3/6 269/3/6 273/3/6
