# MagicaVoxel @ Ephtracy

# group
o 

# material
mtllib MaleTorso.mtl
usemtl palette

# normals
vn -1 0 0
vn 1 0 0
vn 0 0 1
vn 0 0 -1
vn 0 -1 0
vn 0 1 0

# texcoords
vt 0.00195312 0.5
vt 0.00585938 0.5
vt 0.00976562 0.5
vt 0.0136719 0.5
vt 0.0175781 0.5
vt 0.0332031 0.5
vt 0.0410156 0.5
vt 0.0449219 0.5
vt 0.0566406 0.5
vt 0.0722656 0.5
vt 0.978516 0.5

# verts
v -0.5 0.6 0.4
v -0.5 0.6 0.2
v -0.5 0.6 0
v -0.5 0.6 -0.1
v -0.5 0.6 -0.3
v -0.5 0.6 -0.5
v -0.5 0.7 0.2
v -0.5 0.7 0.1
v -0.5 0.7 -0.2
v -0.5 0.7 -0.3
v -0.5 0.8 0.5
v -0.5 0.8 0.4
v -0.5 0.8 0.2
v -0.5 0.8 0.1
v -0.5 0.8 -0.2
v -0.5 0.8 -0.3
v -0.5 0.8 -0.5
v -0.5 0.8 -0.6
v -0.5 0.9 0.5
v -0.5 0.9 0.3
v -0.5 0.9 0.2
v -0.5 0.9 0.1
v -0.5 0.9 -0.2
v -0.5 0.9 -0.3
v -0.5 0.9 -0.4
v -0.5 0.9 -0.6
v -0.5 1.1 0.5
v -0.5 1.1 0.3
v -0.5 1.1 0.2
v -0.5 1.1 0
v -0.5 1.1 -0.1
v -0.5 1.1 -0.3
v -0.5 1.1 -0.4
v -0.5 1.1 -0.6
v -0.4 0.6 0.5
v -0.4 0.6 0.4
v -0.4 0.6 0.2
v -0.4 0.6 0
v -0.4 0.6 -0.1
v -0.4 0.6 -0.3
v -0.4 0.6 -0.5
v -0.4 0.6 -0.6
v -0.4 0.7 0.2
v -0.4 0.7 0.1
v -0.4 0.7 -0.2
v -0.4 0.7 -0.3
v -0.4 0.8 0.5
v -0.4 0.8 0.4
v -0.4 0.8 0.1
v -0.4 0.8 -0.2
v -0.4 0.8 -0.5
v -0.4 0.8 -0.6
v -0.4 0.9 0.2
v -0.4 0.9 0.1
v -0.4 0.9 -0.2
v -0.4 0.9 -0.3
v -0.4 1.1 0.3
v -0.4 1.1 0.2
v -0.4 1.1 0
v -0.4 1.1 -0.1
v -0.4 1.1 -0.3
v -0.4 1.1 -0.4
v -0.4 1.2 0.3
v -0.4 1.2 0
v -0.4 1.2 -0.1
v -0.4 1.2 -0.4
v -0.2 1.1 0.5
v -0.2 1.1 0.3
v -0.2 1.1 -0.4
v -0.2 1.1 -0.6
v -0.2 1.2 0.5
v -0.2 1.2 0.3
v -0.2 1.2 -0.4
v -0.2 1.2 -0.6
v 0.3 1.1 0.1
v 0.3 1.1 0
v 0.3 1.1 -0.1
v 0.3 1.1 -0.2
v 0.3 1.2 0.1
v 0.3 1.2 -0.2
v 0.4 1 0
v 0.4 1 -0.1
v 0.4 1.1 0.5
v 0.4 1.1 0.3
v 0.4 1.1 0.2
v 0.4 1.1 0.1
v 0.4 1.1 0
v 0.4 1.1 -0.1
v 0.4 1.1 -0.2
v 0.4 1.1 -0.3
v 0.4 1.1 -0.4
v 0.4 1.1 -0.6
v 0.4 1.2 0.5
v 0.4 1.2 0.3
v 0.4 1.2 0.2
v 0.4 1.2 0.1
v 0.4 1.2 -0.2
v 0.4 1.2 -0.3
v 0.4 1.2 -0.4
v 0.4 1.2 -0.6
v 0.5 0.6 0.5
v 0.5 0.6 0.4
v 0.5 0.6 -0.5
v 0.5 0.6 -0.6
v 0.5 0.8 0.5
v 0.5 0.8 0.4
v 0.5 0.8 -0.5
v 0.5 0.8 -0.6
v 0.5 0.9 0
v 0.5 0.9 -0.1
v 0.5 1 0.5
v 0.5 1 0.2
v 0.5 1 0
v 0.5 1 -0.1
v 0.5 1 -0.3
v 0.5 1 -0.6
v 0.5 1.1 0.5
v 0.5 1.1 0.2
v 0.5 1.1 0
v 0.5 1.1 -0.1
v 0.5 1.1 -0.3
v 0.5 1.1 -0.6
v 0.6 0.6 0.4
v 0.6 0.6 0.3
v 0.6 0.6 0.2
v 0.6 0.6 0
v 0.6 0.6 -0.1
v 0.6 0.6 -0.3
v 0.6 0.6 -0.4
v 0.6 0.6 -0.5
v 0.6 0.8 0.5
v 0.6 0.8 0.4
v 0.6 0.8 0.3
v 0.6 0.8 0.2
v 0.6 0.8 0
v 0.6 0.8 -0.1
v 0.6 0.8 -0.3
v 0.6 0.8 -0.4
v 0.6 0.8 -0.5
v 0.6 0.8 -0.6
v 0.6 0.9 0.5
v 0.6 0.9 0.3
v 0.6 0.9 0.2
v 0.6 0.9 0
v 0.6 0.9 -0.1
v 0.6 0.9 -0.3
v 0.6 0.9 -0.4
v 0.6 0.9 -0.6
v 0.6 1 0.5
v 0.6 1 0.2
v 0.6 1 0
v 0.6 1 -0.1
v 0.6 1 -0.3
v 0.6 1 -0.6
v -0.5 0.8 0.5
v -0.5 0.9 0.5
v -0.5 1.1 0.5
v -0.4 0.6 0.5
v -0.4 0.8 0.5
v -0.4 0.9 0.5
v -0.4 1.1 0.5
v -0.2 0.6 0.5
v -0.2 1.1 0.5
v -0.2 1.2 0.5
v 0 1.1 0.5
v 0 1.2 0.5
v 0.2 0.6 0.5
v 0.2 0.8 0.5
v 0.2 0.9 0.5
v 0.2 1.1 0.5
v 0.2 1.2 0.5
v 0.4 0.6 0.5
v 0.4 0.8 0.5
v 0.4 0.9 0.5
v 0.4 1.1 0.5
v 0.4 1.2 0.5
v 0.5 0.6 0.5
v 0.5 0.8 0.5
v 0.5 1 0.5
v 0.5 1.1 0.5
v 0.6 0.8 0.5
v 0.6 0.9 0.5
v 0.6 1 0.5
v -0.5 0.6 0.4
v -0.5 0.8 0.4
v -0.4 0.6 0.4
v -0.4 0.8 0.4
v 0.5 0.6 0.4
v 0.5 0.8 0.4
v 0.6 0.6 0.4
v 0.6 0.8 0.4
v -0.4 1.1 0.3
v -0.4 1.2 0.3
v -0.2 1.1 0.3
v -0.2 1.2 0.3
v -0.5 0.6 0
v -0.5 1.1 0
v -0.4 0.6 0
v -0.4 1.1 0
v 0.4 1 -0.1
v 0.4 1.1 -0.1
v 0.5 0.9 -0.1
v 0.5 1 -0.1
v 0.5 1.1 -0.1
v 0.6 0.9 -0.1
v 0.6 1 -0.1
v -0.5 0.7 -0.2
v -0.5 0.8 -0.2
v -0.5 0.9 -0.2
v -0.4 0.7 -0.2
v -0.4 0.8 -0.2
v -0.4 0.9 -0.2
v 0.3 1.1 -0.2
v 0.3 1.2 -0.2
v 0.4 1.1 -0.2
v 0.4 1.2 -0.2
v -0.5 0.6 -0.3
v -0.5 0.7 -0.3
v -0.5 0.9 -0.3
v -0.5 1.1 -0.3
v -0.4 0.6 -0.3
v -0.4 0.7 -0.3
v -0.4 0.9 -0.3
v -0.4 1.1 -0.3
v -0.5 0.6 0.2
v -0.5 0.7 0.2
v -0.5 0.9 0.2
v -0.5 1.1 0.2
v -0.4 0.6 0.2
v -0.4 0.7 0.2
v -0.4 0.9 0.2
v -0.4 1.1 0.2
v -0.5 0.7 0.1
v -0.5 0.8 0.1
v -0.5 0.9 0.1
v -0.4 0.7 0.1
v -0.4 0.8 0.1
v -0.4 0.9 0.1
v 0.3 1.1 0.1
v 0.3 1.2 0.1
v 0.4 1.1 0.1
v 0.4 1.2 0.1
v 0.4 1 0
v 0.4 1.1 0
v 0.5 0.9 0
v 0.5 1 0
v 0.5 1.1 0
v 0.6 0.9 0
v 0.6 1 0
v -0.5 0.6 -0.1
v -0.5 1.1 -0.1
v -0.4 0.6 -0.1
v -0.4 1.1 -0.1
v -0.4 1.1 -0.4
v -0.4 1.2 -0.4
v -0.2 1.1 -0.4
v -0.2 1.2 -0.4
v -0.5 0.6 -0.5
v -0.5 0.8 -0.5
v -0.4 0.6 -0.5
v -0.4 0.8 -0.5
v 0.5 0.6 -0.5
v 0.5 0.8 -0.5
v 0.6 0.6 -0.5
v 0.6 0.8 -0.5
v -0.5 0.8 -0.6
v -0.5 0.9 -0.6
v -0.5 1.1 -0.6
v -0.4 0.6 -0.6
v -0.4 0.8 -0.6
v -0.4 0.9 -0.6
v -0.4 1.1 -0.6
v -0.2 0.6 -0.6
v -0.2 1.1 -0.6
v -0.2 1.2 -0.6
v 0 1.1 -0.6
v 0 1.2 -0.6
v 0.2 0.6 -0.6
v 0.2 0.8 -0.6
v 0.2 0.9 -0.6
v 0.2 1.1 -0.6
v 0.2 1.2 -0.6
v 0.4 0.6 -0.6
v 0.4 0.8 -0.6
v 0.4 0.9 -0.6
v 0.4 1.1 -0.6
v 0.4 1.2 -0.6
v 0.5 0.6 -0.6
v 0.5 0.8 -0.6
v 0.5 1 -0.6
v 0.5 1.1 -0.6
v 0.6 0.8 -0.6
v 0.6 0.9 -0.6
v 0.6 1 -0.6
v -0.4 0.6 0.5
v -0.2 0.6 0.5
v 0.2 0.6 0.5
v 0.4 0.6 0.5
v 0.5 0.6 0.5
v -0.5 0.6 0.4
v -0.4 0.6 0.4
v 0.5 0.6 0.4
v 0.6 0.6 0.4
v 0.2 0.6 0.3
v 0.4 0.6 0.3
v 0.6 0.6 0.3
v -0.5 0.6 0.2
v -0.4 0.6 0.2
v 0.2 0.6 0.2
v 0.4 0.6 0.2
v 0.6 0.6 0.2
v -0.5 0.6 0
v -0.4 0.6 0
v -0.2 0.6 0
v 0.2 0.6 0
v 0.4 0.6 0
v 0.6 0.6 0
v -0.5 0.6 -0.1
v -0.4 0.6 -0.1
v -0.2 0.6 -0.1
v 0.2 0.6 -0.1
v 0.4 0.6 -0.1
v 0.6 0.6 -0.1
v -0.5 0.6 -0.3
v -0.4 0.6 -0.3
v 0.2 0.6 -0.3
v 0.4 0.6 -0.3
v 0.6 0.6 -0.3
v 0.2 0.6 -0.4
v 0.4 0.6 -0.4
v 0.6 0.6 -0.4
v -0.5 0.6 -0.5
v -0.4 0.6 -0.5
v 0.5 0.6 -0.5
v 0.6 0.6 -0.5
v -0.4 0.6 -0.6
v -0.2 0.6 -0.6
v 0.2 0.6 -0.6
v 0.4 0.6 -0.6
v 0.5 0.6 -0.6
v -0.5 0.7 0.2
v -0.4 0.7 0.2
v -0.5 0.7 0.1
v -0.4 0.7 0.1
v -0.5 0.7 -0.2
v -0.4 0.7 -0.2
v -0.5 0.7 -0.3
v -0.4 0.7 -0.3
v -0.5 0.8 0.5
v -0.4 0.8 0.5
v 0.5 0.8 0.5
v 0.6 0.8 0.5
v -0.5 0.8 0.4
v -0.4 0.8 0.4
v 0.5 0.8 0.4
v 0.6 0.8 0.4
v -0.5 0.8 -0.5
v -0.4 0.8 -0.5
v 0.5 0.8 -0.5
v 0.6 0.8 -0.5
v -0.5 0.8 -0.6
v -0.4 0.8 -0.6
v 0.5 0.8 -0.6
v 0.6 0.8 -0.6
v -0.5 0.9 0.2
v -0.4 0.9 0.2
v -0.5 0.9 0.1
v -0.4 0.9 0.1
v 0.5 0.9 0
v 0.6 0.9 0
v 0.5 0.9 -0.1
v 0.6 0.9 -0.1
v -0.5 0.9 -0.2
v -0.4 0.9 -0.2
v -0.5 0.9 -0.3
v -0.4 0.9 -0.3
v 0.5 1 0.5
v 0.6 1 0.5
v 0.5 1 0.2
v 0.6 1 0.2
v 0.4 1 0
v 0.5 1 0
v 0.6 1 0
v 0.4 1 -0.1
v 0.5 1 -0.1
v 0.6 1 -0.1
v 0.5 1 -0.3
v 0.6 1 -0.3
v 0.5 1 -0.6
v 0.6 1 -0.6
v -0.5 1.1 0.5
v -0.4 1.1 0.5
v -0.2 1.1 0.5
v 0.4 1.1 0.5
v 0.5 1.1 0.5
v -0.5 1.1 0.3
v -0.4 1.1 0.3
v -0.2 1.1 0.3
v 0.4 1.1 0.3
v -0.5 1.1 0.2
v -0.4 1.1 0.2
v 0.4 1.1 0.2
v 0.5 1.1 0.2
v 0.3 1.1 0.1
v 0.4 1.1 0.1
v -0.5 1.1 0
v -0.4 1.1 0
v 0.3 1.1 0
v 0.4 1.1 0
v 0.5 1.1 0
v -0.5 1.1 -0.1
v -0.4 1.1 -0.1
v 0.3 1.1 -0.1
v 0.4 1.1 -0.1
v 0.5 1.1 -0.1
v 0.3 1.1 -0.2
v 0.4 1.1 -0.2
v -0.5 1.1 -0.3
v -0.4 1.1 -0.3
v 0.4 1.1 -0.3
v 0.5 1.1 -0.3
v -0.5 1.1 -0.4
v -0.4 1.1 -0.4
v -0.2 1.1 -0.4
v 0.4 1.1 -0.4
v -0.5 1.1 -0.6
v -0.4 1.1 -0.6
v -0.2 1.1 -0.6
v 0.4 1.1 -0.6
v 0.5 1.1 -0.6
v -0.2 1.2 0.5
v 0 1.2 0.5
v 0.2 1.2 0.5
v 0.4 1.2 0.5
v -0.4 1.2 0.3
v -0.2 1.2 0.3
v 0 1.2 0.3
v 0.2 1.2 0.3
v 0.4 1.2 0.3
v 0.2 1.2 0.2
v 0.4 1.2 0.2
v 0.3 1.2 0.1
v 0.4 1.2 0.1
v -0.4 1.2 0
v -0.2 1.2 0
v -0.4 1.2 -0.1
v -0.2 1.2 -0.1
v 0.3 1.2 -0.2
v 0.4 1.2 -0.2
v 0.2 1.2 -0.3
v 0.4 1.2 -0.3
v -0.4 1.2 -0.4
v -0.2 1.2 -0.4
v 0 1.2 -0.4
v 0.2 1.2 -0.4
v 0.4 1.2 -0.4
v -0.2 1.2 -0.6
v 0 1.2 -0.6
v 0.2 1.2 -0.6
v 0.4 1.2 -0.6

# faces
f 7/1/1 2/1/1 1/1/1
f 10/1/1 6/1/1 5/1/1
f 12/1/1 8/1/1 7/1/1
f 12/1/1 7/1/1 1/1/1
f 13/1/1 8/1/1 12/1/1
f 14/1/1 8/1/1 13/1/1
f 15/1/1 10/1/1 9/1/1
f 16/1/1 6/1/1 10/1/1
f 16/1/1 10/1/1 15/1/1
f 17/1/1 6/1/1 16/1/1
f 19/1/1 12/1/1 11/1/1
f 19/1/1 13/1/1 12/1/1
f 20/1/1 13/1/1 19/1/1
f 21/2/1 14/2/1 13/2/1
f 21/1/1 13/1/1 20/1/1
f 22/2/1 14/2/1 21/2/1
f 23/2/1 16/2/1 15/2/1
f 24/1/1 18/1/1 17/1/1
f 24/2/1 16/2/1 23/2/1
f 24/1/1 17/1/1 16/1/1
f 25/1/1 18/1/1 24/1/1
f 26/1/1 18/1/1 25/1/1
f 27/11/1 20/11/1 19/11/1
f 28/2/1 21/2/1 20/2/1
f 28/11/1 20/11/1 27/11/1
f 29/2/1 21/2/1 28/2/1
f 30/11/1 4/11/1 3/11/1
f 31/11/1 4/11/1 30/11/1
f 32/2/1 25/2/1 24/2/1
f 33/11/1 26/11/1 25/11/1
f 33/2/1 25/2/1 32/2/1
f 34/11/1 26/11/1 33/11/1
f 43/1/1 38/1/1 37/1/1
f 44/1/1 38/1/1 43/1/1
f 45/1/1 40/1/1 39/1/1
f 46/1/1 40/1/1 45/1/1
f 47/1/1 36/1/1 35/1/1
f 48/1/1 36/1/1 47/1/1
f 49/1/1 38/1/1 44/1/1
f 50/1/1 45/1/1 39/1/1
f 51/1/1 42/1/1 41/1/1
f 52/1/1 42/1/1 51/1/1
f 54/1/1 38/1/1 49/1/1
f 55/1/1 50/1/1 39/1/1
f 58/1/1 54/1/1 53/1/1
f 59/1/1 38/1/1 54/1/1
f 59/1/1 54/1/1 58/1/1
f 60/1/1 56/1/1 55/1/1
f 60/1/1 55/1/1 39/1/1
f 61/1/1 56/1/1 60/1/1
f 63/1/1 59/1/1 58/1/1
f 63/1/1 58/1/1 57/1/1
f 64/3/1 60/3/1 59/3/1
f 64/1/1 59/1/1 63/1/1
f 65/1/1 62/1/1 61/1/1
f 65/3/1 60/3/1 64/3/1
f 65/1/1 61/1/1 60/1/1
f 66/1/1 62/1/1 65/1/1
f 71/2/1 68/2/1 67/2/1
f 72/2/1 68/2/1 71/2/1
f 73/2/1 70/2/1 69/2/1
f 74/2/1 70/2/1 73/2/1
f 75/1/2 76/1/2 79/1/2
f 77/1/2 78/1/2 79/1/2
f 76/1/2 77/1/2 79/1/2
f 79/1/2 78/1/2 80/1/2
f 81/3/2 82/3/2 87/3/2
f 87/3/2 82/3/2 88/3/2
f 83/11/2 84/11/2 93/11/2
f 84/2/2 85/2/2 94/2/2
f 93/11/2 84/11/2 94/11/2
f 85/1/2 86/1/2 95/1/2
f 94/2/2 85/2/2 95/2/2
f 95/1/2 86/1/2 96/1/2
f 89/1/2 90/1/2 97/1/2
f 90/2/2 91/2/2 98/2/2
f 97/1/2 90/1/2 98/1/2
f 91/11/2 92/11/2 99/11/2
f 98/2/2 91/2/2 99/2/2
f 99/11/2 92/11/2 100/11/2
f 101/2/2 102/2/2 105/2/2
f 105/2/2 102/2/2 106/2/2
f 103/2/2 104/2/2 107/2/2
f 107/2/2 104/2/2 108/2/2
f 109/11/2 110/11/2 113/11/2
f 113/11/2 110/11/2 114/11/2
f 111/1/2 112/1/2 117/1/2
f 112/2/2 113/2/2 118/2/2
f 117/1/2 112/1/2 118/1/2
f 118/2/2 113/2/2 119/2/2
f 114/2/2 115/2/2 120/2/2
f 115/1/2 116/1/2 121/1/2
f 120/2/2 115/2/2 121/2/2
f 121/1/2 116/1/2 122/1/2
f 123/2/2 124/2/2 132/2/2
f 124/10/2 125/10/2 133/10/2
f 132/2/2 124/2/2 133/2/2
f 125/7/2 126/7/2 134/7/2
f 133/10/2 125/10/2 134/10/2
f 126/11/2 127/11/2 135/11/2
f 134/7/2 126/7/2 135/7/2
f 127/7/2 128/7/2 136/7/2
f 135/11/2 127/11/2 136/11/2
f 128/10/2 129/10/2 137/10/2
f 136/7/2 128/7/2 137/7/2
f 129/2/2 130/2/2 138/2/2
f 137/10/2 129/10/2 138/10/2
f 138/2/2 130/2/2 139/2/2
f 131/2/2 132/2/2 141/2/2
f 132/2/2 133/2/2 141/2/2
f 133/7/2 134/7/2 142/7/2
f 141/2/2 133/2/2 142/2/2
f 134/2/2 135/2/2 143/2/2
f 142/7/2 134/7/2 143/7/2
f 135/11/2 136/11/2 144/11/2
f 143/2/2 135/2/2 144/2/2
f 136/2/2 137/2/2 145/2/2
f 144/11/2 136/11/2 145/11/2
f 137/7/2 138/7/2 146/7/2
f 145/2/2 137/2/2 146/2/2
f 139/2/2 140/2/2 147/2/2
f 146/7/2 138/7/2 147/7/2
f 138/2/2 139/2/2 147/2/2
f 147/2/2 140/2/2 148/2/2
f 141/1/2 142/1/2 149/1/2
f 142/1/2 143/1/2 149/1/2
f 143/2/2 144/2/2 150/2/2
f 149/1/2 143/1/2 150/1/2
f 150/2/2 144/2/2 151/2/2
f 145/2/2 146/2/2 152/2/2
f 147/1/2 148/1/2 153/1/2
f 152/2/2 146/2/2 153/2/2
f 146/1/2 147/1/2 153/1/2
f 153/1/2 148/1/2 154/1/2
f 159/1/3 156/1/3 155/1/3
f 160/11/3 157/11/3 156/11/3
f 160/1/3 156/1/3 159/1/3
f 161/11/3 157/11/3 160/11/3
f 162/1/3 159/1/3 158/1/3
f 162/1/3 160/1/3 159/1/3
f 162/1/3 161/1/3 160/1/3
f 163/1/3 161/1/3 162/1/3
f 165/8/3 163/8/3 162/8/3
f 165/2/3 164/2/3 163/2/3
f 166/2/3 164/2/3 165/2/3
f 167/8/3 165/8/3 162/8/3
f 168/8/3 165/8/3 167/8/3
f 169/8/3 165/8/3 168/8/3
f 170/1/3 166/1/3 165/1/3
f 170/8/3 165/8/3 169/8/3
f 171/1/3 166/1/3 170/1/3
f 172/6/3 168/6/3 167/6/3
f 173/5/3 169/5/3 168/5/3
f 173/6/3 168/6/3 172/6/3
f 174/1/3 170/1/3 169/1/3
f 174/5/3 169/5/3 173/5/3
f 175/11/3 171/11/3 170/11/3
f 175/1/3 170/1/3 174/1/3
f 176/11/3 171/11/3 175/11/3
f 177/2/3 173/2/3 172/2/3
f 177/2/3 174/2/3 173/2/3
f 178/2/3 174/2/3 177/2/3
f 179/1/3 175/1/3 174/1/3
f 180/1/3 175/1/3 179/1/3
f 181/2/3 174/2/3 178/2/3
f 182/1/3 179/1/3 174/1/3
f 182/2/3 174/2/3 181/2/3
f 183/1/3 179/1/3 182/1/3
f 186/1/3 185/1/3 184/1/3
f 187/1/3 185/1/3 186/1/3
f 190/2/3 189/2/3 188/2/3
f 191/2/3 189/2/3 190/2/3
f 194/1/3 193/1/3 192/1/3
f 195/1/3 193/1/3 194/1/3
f 198/11/3 197/11/3 196/11/3
f 199/11/3 197/11/3 198/11/3
f 203/2/3 201/2/3 200/2/3
f 204/2/3 201/2/3 203/2/3
f 205/2/3 203/2/3 202/2/3
f 206/2/3 203/2/3 205/2/3
f 210/1/3 208/1/3 207/1/3
f 211/2/3 209/2/3 208/2/3
f 211/1/3 208/1/3 210/1/3
f 212/2/3 209/2/3 211/2/3
f 215/1/3 214/1/3 213/1/3
f 216/1/3 214/1/3 215/1/3
f 221/1/3 218/1/3 217/1/3
f 222/1/3 218/1/3 221/1/3
f 223/2/3 220/2/3 219/2/3
f 224/2/3 220/2/3 223/2/3
f 225/1/4 226/1/4 229/1/4
f 229/1/4 226/1/4 230/1/4
f 227/2/4 228/2/4 231/2/4
f 231/2/4 228/2/4 232/2/4
f 233/1/4 234/1/4 236/1/4
f 234/2/4 235/2/4 237/2/4
f 236/1/4 234/1/4 237/1/4
f 237/2/4 235/2/4 238/2/4
f 239/1/4 240/1/4 241/1/4
f 241/1/4 240/1/4 242/1/4
f 243/2/4 244/2/4 246/2/4
f 246/2/4 244/2/4 247/2/4
f 245/2/4 246/2/4 248/2/4
f 248/2/4 246/2/4 249/2/4
f 250/11/4 251/11/4 252/11/4
f 252/11/4 251/11/4 253/11/4
f 254/1/4 255/1/4 256/1/4
f 256/1/4 255/1/4 257/1/4
f 258/1/4 259/1/4 260/1/4
f 260/1/4 259/1/4 261/1/4
f 262/2/4 263/2/4 264/2/4
f 264/2/4 263/2/4 265/2/4
f 266/1/4 267/1/4 270/1/4
f 267/11/4 268/11/4 271/11/4
f 270/1/4 267/1/4 271/1/4
f 271/11/4 268/11/4 272/11/4
f 269/1/4 270/1/4 273/1/4
f 270/1/4 271/1/4 273/1/4
f 271/1/4 272/1/4 273/1/4
f 273/1/4 272/1/4 274/1/4
f 273/8/4 274/8/4 276/8/4
f 274/2/4 275/2/4 276/2/4
f 276/2/4 275/2/4 277/2/4
f 273/8/4 276/8/4 278/8/4
f 278/8/4 276/8/4 279/8/4
f 279/8/4 276/8/4 280/8/4
f 276/1/4 277/1/4 281/1/4
f 280/8/4 276/8/4 281/8/4
f 281/1/4 277/1/4 282/1/4
f 278/6/4 279/6/4 283/6/4
f 279/5/4 280/5/4 284/5/4
f 283/6/4 279/6/4 284/6/4
f 280/1/4 281/1/4 285/1/4
f 284/5/4 280/5/4 285/5/4
f 281/11/4 282/11/4 286/11/4
f 285/1/4 281/1/4 286/1/4
f 286/11/4 282/11/4 287/11/4
f 283/2/4 284/2/4 288/2/4
f 284/2/4 285/2/4 288/2/4
f 288/2/4 285/2/4 289/2/4
f 285/1/4 286/1/4 290/1/4
f 290/1/4 286/1/4 291/1/4
f 289/2/4 285/2/4 292/2/4
f 285/1/4 290/1/4 293/1/4
f 292/2/4 285/2/4 293/2/4
f 293/1/4 290/1/4 294/1/4
f 301/1/5 296/1/5 295/1/5
f 302/2/5 299/2/5 298/2/5
f 304/8/5 297/8/5 296/8/5
f 304/6/5 298/6/5 297/6/5
f 305/2/5 303/2/5 302/2/5
f 305/6/5 298/6/5 304/6/5
f 305/2/5 302/2/5 298/2/5
f 306/2/5 303/2/5 305/2/5
f 307/1/5 301/1/5 300/1/5
f 308/1/5 296/1/5 301/1/5
f 308/1/5 301/1/5 307/1/5
f 309/8/5 304/8/5 296/8/5
f 309/9/5 305/9/5 304/9/5
f 310/10/5 306/10/5 305/10/5
f 310/9/5 305/9/5 309/9/5
f 311/10/5 306/10/5 310/10/5
f 313/1/5 296/1/5 308/1/5
f 314/8/5 309/8/5 296/8/5
f 314/1/5 296/1/5 313/1/5
f 315/5/5 310/5/5 309/5/5
f 315/8/5 309/8/5 314/8/5
f 316/7/5 311/7/5 310/7/5
f 316/5/5 310/5/5 315/5/5
f 317/7/5 311/7/5 316/7/5
f 318/11/5 313/11/5 312/11/5
f 319/6/5 314/6/5 313/6/5
f 319/11/5 313/11/5 318/11/5
f 320/8/5 315/8/5 314/8/5
f 320/6/5 314/6/5 319/6/5
f 321/6/5 316/6/5 315/6/5
f 321/8/5 315/8/5 320/8/5
f 322/11/5 317/11/5 316/11/5
f 322/6/5 316/6/5 321/6/5
f 323/11/5 317/11/5 322/11/5
f 325/1/5 320/1/5 319/1/5
f 326/8/5 321/8/5 320/8/5
f 326/5/5 322/5/5 321/5/5
f 327/7/5 323/7/5 322/7/5
f 327/5/5 322/5/5 326/5/5
f 328/7/5 323/7/5 327/7/5
f 329/8/5 326/8/5 320/8/5
f 329/9/5 327/9/5 326/9/5
f 330/10/5 328/10/5 327/10/5
f 330/9/5 327/9/5 329/9/5
f 331/10/5 328/10/5 330/10/5
f 332/1/5 325/1/5 324/1/5
f 333/1/5 320/1/5 325/1/5
f 333/1/5 325/1/5 332/1/5
f 334/2/5 331/2/5 330/2/5
f 335/2/5 331/2/5 334/2/5
f 336/1/5 320/1/5 333/1/5
f 337/8/5 329/8/5 320/8/5
f 337/1/5 320/1/5 336/1/5
f 338/6/5 330/6/5 329/6/5
f 338/8/5 329/8/5 337/8/5
f 339/2/5 334/2/5 330/2/5
f 339/6/5 330/6/5 338/6/5
f 340/2/5 334/2/5 339/2/5
f 343/1/5 342/1/5 341/1/5
f 344/1/5 342/1/5 343/1/5
f 347/1/5 346/1/5 345/1/5
f 348/1/5 346/1/5 347/1/5
f 353/1/5 350/1/5 349/1/5
f 354/1/5 350/1/5 353/1/5
f 355/2/5 352/2/5 351/2/5
f 356/2/5 352/2/5 355/2/5
f 361/1/5 358/1/5 357/1/5
f 362/1/5 358/1/5 361/1/5
f 363/2/5 360/2/5 359/2/5
f 364/2/5 360/2/5 363/2/5
f 365/2/6 366/2/6 367/2/6
f 367/2/6 366/2/6 368/2/6
f 369/11/6 370/11/6 371/11/6
f 371/11/6 370/11/6 372/11/6
f 373/2/6 374/2/6 375/2/6
f 375/2/6 374/2/6 376/2/6
f 377/1/6 378/1/6 379/1/6
f 379/1/6 378/1/6 380/1/6
f 379/2/6 380/2/6 382/2/6
f 382/2/6 380/2/6 383/2/6
f 381/11/6 382/11/6 384/11/6
f 384/11/6 382/11/6 385/11/6
f 385/2/6 386/2/6 387/2/6
f 387/2/6 386/2/6 388/2/6
f 387/1/6 388/1/6 389/1/6
f 389/1/6 388/1/6 390/1/6
f 391/11/6 392/11/6 396/11/6
f 392/1/6 393/1/6 397/1/6
f 396/11/6 392/11/6 397/11/6
f 397/1/6 393/1/6 398/1/6
f 394/1/6 395/1/6 399/1/6
f 396/2/6 397/2/6 400/2/6
f 400/2/6 397/2/6 401/2/6
f 399/1/6 395/1/6 402/1/6
f 402/1/6 395/1/6 403/1/6
f 402/2/6 403/2/6 405/2/6
f 404/5/6 405/5/6 408/5/6
f 405/2/6 403/2/6 409/2/6
f 408/5/6 405/5/6 409/5/6
f 409/2/6 403/2/6 410/2/6
f 406/11/6 407/11/6 411/11/6
f 411/11/6 407/11/6 412/11/6
f 408/3/6 409/3/6 413/3/6
f 413/3/6 409/3/6 414/3/6
f 413/5/6 414/5/6 416/5/6
f 414/2/6 415/2/6 417/2/6
f 416/5/6 414/5/6 417/5/6
f 417/2/6 415/2/6 420/2/6
f 420/2/6 415/2/6 421/2/6
f 418/2/6 419/2/6 422/2/6
f 422/2/6 419/2/6 423/2/6
f 420/1/6 421/1/6 425/1/6
f 422/11/6 423/11/6 426/11/6
f 423/1/6 424/1/6 427/1/6
f 426/11/6 423/11/6 427/11/6
f 427/1/6 424/1/6 428/1/6
f 425/1/6 421/1/6 429/1/6
f 429/1/6 421/1/6 430/1/6
f 431/2/6 432/2/6 436/2/6
f 432/1/6 433/1/6 437/1/6
f 436/2/6 432/2/6 437/2/6
f 433/11/6 434/11/6 438/11/6
f 437/1/6 433/1/6 438/1/6
f 438/11/6 434/11/6 439/11/6
f 436/1/6 437/1/6 440/1/6
f 435/1/6 436/1/6 440/1/6
f 438/2/6 439/2/6 440/2/6
f 437/1/6 438/1/6 440/1/6
f 440/2/6 439/2/6 441/2/6
f 440/1/6 441/1/6 442/1/6
f 442/1/6 441/1/6 443/1/6
f 435/1/6 440/1/6 444/1/6
f 440/1/6 442/1/6 444/1/6
f 444/1/6 442/1/6 445/1/6
f 444/3/6 445/3/6 446/3/6
f 445/1/6 442/1/6 447/1/6
f 446/3/6 445/3/6 447/3/6
f 446/1/6 447/1/6 448/1/6
f 447/1/6 442/1/6 448/1/6
f 446/1/6 448/1/6 450/1/6
f 448/1/6 449/1/6 450/1/6
f 450/1/6 449/1/6 451/1/6
f 446/1/6 450/1/6 452/1/6
f 452/1/6 450/1/6 453/1/6
f 453/1/6 450/1/6 454/1/6
f 450/2/6 451/2/6 455/2/6
f 454/1/6 450/1/6 455/1/6
f 455/2/6 451/2/6 456/2/6
f 453/2/6 454/2/6 457/2/6
f 454/1/6 455/1/6 458/1/6
f 457/2/6 454/2/6 458/2/6
f 455/11/6 456/11/6 459/11/6
f 458/1/6 455/1/6 459/1/6
f 459/11/6 456/11/6 460/11/6
