# MagicaVoxel @ Ephtracy

# group
o 

# material
mtllib MaleFootRight.mtl
usemtl palette

# normals
vn -1 0 0
vn 1 0 0
vn 0 0 1
vn 0 0 -1
vn 0 -1 0
vn 0 1 0

# texcoords
vt 0.00585938 0.5
vt 0.00976562 0.5
vt 0.0136719 0.5
vt 0.0253906 0.5
vt 0.0292969 0.5
vt 0.0332031 0.5
vt 0.0449219 0.5
vt 0.0488281 0.5
vt 0.978516 0.5

# verts
v -0.2 -0.3 -0.4
v -0.2 -0.3 -0.6
v -0.2 -0.1 -0.4
v -0.2 -0.1 -0.6
v -0.2 0 -0.4
v -0.2 0 -0.6
v -0.1 -0.3 -0.3
v -0.1 -0.3 -0.4
v -0.1 -0.3 -0.6
v -0.1 -0.3 -0.7
v -0.1 -0.1 -0.3
v -0.1 -0.1 -0.4
v -0.1 -0.1 -0.6
v -0.1 -0.1 -0.7
v -0.1 0 -0.3
v -0.1 0 -0.4
v -0.1 0 -0.6
v -0.1 0 -0.7
v 0.2 -0.1 -0.3
v 0.2 -0.1 -0.4
v 0.2 -0.1 -0.6
v 0.2 -0.1 -0.7
v 0.2 0 -0.3
v 0.2 0 -0.4
v 0.2 0 -0.6
v 0.2 0 -0.7
v 0.3 -0.1 -0.4
v 0.3 -0.1 -0.5
v 0.3 -0.1 -0.6
v 0.3 0 -0.4
v 0.3 0 -0.5
v 0.3 0 -0.6
v 0.4 -0.3 -0.6
v 0.4 -0.3 -0.7
v 0.4 -0.1 -0.6
v 0.4 -0.1 -0.7
v 0.5 -0.3 -0.3
v 0.5 -0.3 -0.6
v 0.5 -0.1 -0.3
v 0.5 -0.1 -0.6
v -0.1 -0.3 -0.3
v -0.1 -0.1 -0.3
v -0.1 0 -0.3
v 0 -0.3 -0.3
v 0 -0.1 -0.3
v 0 0 -0.3
v 0.1 -0.1 -0.3
v 0.1 0 -0.3
v 0.2 -0.1 -0.3
v 0.2 0 -0.3
v 0.3 -0.3 -0.3
v 0.3 -0.1 -0.3
v 0.4 -0.3 -0.3
v 0.4 -0.1 -0.3
v 0.5 -0.3 -0.3
v 0.5 -0.1 -0.3
v -0.2 -0.3 -0.4
v -0.2 -0.1 -0.4
v -0.2 0 -0.4
v -0.1 -0.3 -0.4
v -0.1 -0.1 -0.4
v -0.1 0 -0.4
v 0.2 -0.1 -0.4
v 0.2 0 -0.4
v 0.3 -0.1 -0.4
v 0.3 0 -0.4
v -0.2 -0.3 -0.6
v -0.2 -0.1 -0.6
v -0.2 0 -0.6
v -0.1 -0.3 -0.6
v -0.1 -0.1 -0.6
v -0.1 0 -0.6
v 0.2 -0.1 -0.6
v 0.2 0 -0.6
v 0.3 -0.1 -0.6
v 0.3 0 -0.6
v 0.4 -0.3 -0.6
v 0.4 -0.1 -0.6
v 0.5 -0.3 -0.6
v 0.5 -0.1 -0.6
v -0.1 -0.3 -0.7
v -0.1 -0.1 -0.7
v -0.1 0 -0.7
v 0 -0.3 -0.7
v 0 -0.1 -0.7
v 0 0 -0.7
v 0.1 -0.1 -0.7
v 0.1 0 -0.7
v 0.2 -0.1 -0.7
v 0.2 0 -0.7
v 0.3 -0.3 -0.7
v 0.3 -0.1 -0.7
v 0.4 -0.3 -0.7
v 0.4 -0.1 -0.7
v -0.1 -0.3 -0.3
v 0 -0.3 -0.3
v 0.3 -0.3 -0.3
v 0.4 -0.3 -0.3
v 0.5 -0.3 -0.3
v -0.2 -0.3 -0.4
v -0.1 -0.3 -0.4
v 0 -0.3 -0.4
v 0.3 -0.3 -0.4
v 0.4 -0.3 -0.4
v -0.2 -0.3 -0.6
v -0.1 -0.3 -0.6
v 0 -0.3 -0.6
v 0.3 -0.3 -0.6
v 0.4 -0.3 -0.6
v 0.5 -0.3 -0.6
v -0.1 -0.3 -0.7
v 0 -0.3 -0.7
v 0.3 -0.3 -0.7
v 0.4 -0.3 -0.7
v 0.2 -0.1 -0.3
v 0.3 -0.1 -0.3
v 0.4 -0.1 -0.3
v 0.5 -0.1 -0.3
v 0.2 -0.1 -0.4
v 0.3 -0.1 -0.4
v 0.4 -0.1 -0.4
v 0.3 -0.1 -0.5
v 0.2 -0.1 -0.6
v 0.3 -0.1 -0.6
v 0.4 -0.1 -0.6
v 0.5 -0.1 -0.6
v 0.2 -0.1 -0.7
v 0.3 -0.1 -0.7
v 0.4 -0.1 -0.7
v -0.1 0 -0.3
v 0 0 -0.3
v 0.1 0 -0.3
v 0.2 0 -0.3
v -0.2 0 -0.4
v -0.1 0 -0.4
v 0 0 -0.4
v 0.1 0 -0.4
v 0.2 0 -0.4
v 0.3 0 -0.4
v 0.2 0 -0.5
v 0.3 0 -0.5
v -0.2 0 -0.6
v -0.1 0 -0.6
v 0 0 -0.6
v 0.1 0 -0.6
v 0.2 0 -0.6
v 0.3 0 -0.6
v -0.1 0 -0.7
v 0 0 -0.7
v 0.1 0 -0.7
v 0.2 0 -0.7

# faces
f 3/8/1 2/8/1 1/8/1
f 4/8/1 2/8/1 3/8/1
f 5/7/1 4/7/1 3/7/1
f 6/7/1 4/7/1 5/7/1
f 11/6/1 8/6/1 7/6/1
f 12/6/1 8/6/1 11/6/1
f 13/6/1 10/6/1 9/6/1
f 14/6/1 10/6/1 13/6/1
f 15/2/1 12/2/1 11/2/1
f 16/2/1 12/2/1 15/2/1
f 17/5/1 14/5/1 13/5/1
f 18/5/1 14/5/1 17/5/1
f 19/5/2 20/5/2 23/5/2
f 23/5/2 20/5/2 24/5/2
f 21/9/2 22/9/2 25/9/2
f 25/9/2 22/9/2 26/9/2
f 27/3/2 28/3/2 30/3/2
f 28/9/2 29/9/2 31/9/2
f 30/3/2 28/3/2 31/3/2
f 31/9/2 29/9/2 32/9/2
f 33/6/2 34/6/2 35/6/2
f 35/6/2 34/6/2 36/6/2
f 37/9/2 38/9/2 39/9/2
f 39/9/2 38/9/2 40/9/2
f 44/6/3 42/6/3 41/6/3
f 45/2/3 43/2/3 42/2/3
f 45/6/3 42/6/3 44/6/3
f 46/2/3 43/2/3 45/2/3
f 47/1/3 45/1/3 44/1/3
f 47/6/3 46/6/3 45/6/3
f 48/6/3 46/6/3 47/6/3
f 49/1/3 47/1/3 44/1/3
f 49/5/3 48/5/3 47/5/3
f 50/5/3 48/5/3 49/5/3
f 51/1/3 49/1/3 44/1/3
f 52/1/3 49/1/3 51/1/3
f 53/6/3 52/6/3 51/6/3
f 54/6/3 52/6/3 53/6/3
f 55/9/3 54/9/3 53/9/3
f 56/9/3 54/9/3 55/9/3
f 60/8/3 58/8/3 57/8/3
f 61/7/3 59/7/3 58/7/3
f 61/8/3 58/8/3 60/8/3
f 62/7/3 59/7/3 61/7/3
f 65/3/3 64/3/3 63/3/3
f 66/3/3 64/3/3 65/3/3
f 67/8/4 68/8/4 70/8/4
f 68/7/4 69/7/4 71/7/4
f 70/8/4 68/8/4 71/8/4
f 71/7/4 69/7/4 72/7/4
f 73/9/4 74/9/4 75/9/4
f 75/9/4 74/9/4 76/9/4
f 77/9/4 78/9/4 79/9/4
f 79/9/4 78/9/4 80/9/4
f 81/6/4 82/6/4 84/6/4
f 82/5/4 83/5/4 85/5/4
f 84/6/4 82/6/4 85/6/4
f 85/5/4 83/5/4 86/5/4
f 84/1/4 85/1/4 87/1/4
f 85/4/4 86/4/4 87/4/4
f 87/4/4 86/4/4 88/4/4
f 84/1/4 87/1/4 89/1/4
f 87/9/4 88/9/4 89/9/4
f 89/9/4 88/9/4 90/9/4
f 84/1/4 89/1/4 91/1/4
f 91/1/4 89/1/4 92/1/4
f 91/6/4 92/6/4 93/6/4
f 93/6/4 92/6/4 94/6/4
f 101/6/5 96/6/5 95/6/5
f 102/1/5 97/1/5 96/1/5
f 102/6/5 96/6/5 101/6/5
f 103/6/5 98/6/5 97/6/5
f 103/1/5 97/1/5 102/1/5
f 104/9/5 99/9/5 98/9/5
f 104/6/5 98/6/5 103/6/5
f 105/8/5 103/8/5 102/8/5
f 105/8/5 101/8/5 100/8/5
f 105/8/5 102/8/5 101/8/5
f 106/8/5 103/8/5 105/8/5
f 107/8/5 103/8/5 106/8/5
f 108/1/5 104/1/5 103/1/5
f 108/8/5 103/8/5 107/8/5
f 109/9/5 99/9/5 104/9/5
f 109/1/5 104/1/5 108/1/5
f 110/9/5 99/9/5 109/9/5
f 111/6/5 107/6/5 106/6/5
f 112/1/5 108/1/5 107/1/5
f 112/6/5 107/6/5 111/6/5
f 113/6/5 109/6/5 108/6/5
f 113/1/5 108/1/5 112/1/5
f 114/6/5 109/6/5 113/6/5
f 115/1/6 116/1/6 119/1/6
f 116/6/6 117/6/6 120/6/6
f 119/1/6 116/1/6 120/1/6
f 117/9/6 118/9/6 121/9/6
f 120/6/6 117/6/6 121/6/6
f 120/1/6 121/1/6 122/1/6
f 122/1/6 121/1/6 124/1/6
f 121/9/6 118/9/6 125/9/6
f 124/1/6 121/1/6 125/1/6
f 125/9/6 118/9/6 126/9/6
f 123/1/6 124/1/6 127/1/6
f 124/6/6 125/6/6 128/6/6
f 127/1/6 124/1/6 128/1/6
f 128/6/6 125/6/6 129/6/6
f 130/2/6 131/2/6 135/2/6
f 131/6/6 132/6/6 136/6/6
f 135/2/6 131/2/6 136/2/6
f 132/5/6 133/5/6 137/5/6
f 136/6/6 132/6/6 137/6/6
f 137/5/6 133/5/6 138/5/6
f 137/3/6 138/3/6 140/3/6
f 138/3/6 139/3/6 140/3/6
f 140/3/6 139/3/6 141/3/6
f 134/7/6 135/7/6 142/7/6
f 135/3/6 136/3/6 143/3/6
f 142/7/6 135/7/6 143/7/6
f 136/1/6 137/1/6 144/1/6
f 143/3/6 136/3/6 144/3/6
f 137/3/6 140/3/6 145/3/6
f 144/1/6 137/1/6 145/1/6
f 140/9/6 141/9/6 146/9/6
f 145/3/6 140/3/6 146/3/6
f 146/9/6 141/9/6 147/9/6
f 143/5/6 144/5/6 148/5/6
f 144/4/6 145/4/6 149/4/6
f 148/5/6 144/5/6 149/5/6
f 145/9/6 146/9/6 150/9/6
f 149/4/6 145/4/6 150/4/6
f 150/9/6 146/9/6 151/9/6
