# MagicaVoxel @ Ephtracy

# group
o 

# material
mtllib MaleNeck.mtl
usemtl palette

# normals
vn -1 0 0
vn 1 0 0
vn 0 0 1
vn 0 0 -1
vn 0 -1 0
vn 0 1 0

# texcoords
vt 0.0253906 0.5
vt 0.0292969 0.5
vt 0.0371094 0.5
vt 0.0449219 0.5
vt 0.978516 0.5

# verts
v -0.4 -0.3 0.1
v -0.4 -0.3 -0.2
v -0.4 -0.2 0.1
v -0.4 -0.2 0
v -0.4 -0.2 -0.1
v -0.4 -0.2 -0.2
v -0.4 -0.1 0.1
v -0.4 -0.1 0
v -0.4 -0.1 -0.1
v -0.4 -0.1 -0.2
v -0.4 0 0.1
v -0.4 0 0
v -0.4 0 -0.1
v -0.4 0 -0.2
v -0.3 -0.3 0.2
v -0.3 -0.3 0.1
v -0.3 -0.3 -0.2
v -0.3 -0.3 -0.3
v -0.3 -0.2 0.1
v -0.3 -0.2 -0.2
v -0.3 -0.1 0.2
v -0.3 -0.1 0.1
v -0.3 -0.1 -0.2
v -0.3 -0.1 -0.3
v -0.3 0 0.2
v -0.3 0 0.1
v -0.3 0 -0.2
v -0.3 0 -0.3
v 0.1 -0.3 0.2
v 0.1 -0.3 0.1
v 0.1 -0.3 -0.2
v 0.1 -0.3 -0.3
v 0.1 -0.1 0.2
v 0.1 -0.1 0.1
v 0.1 -0.1 -0.2
v 0.1 -0.1 -0.3
v 0.1 0 0.2
v 0.1 0 0.1
v 0.1 0 -0.2
v 0.1 0 -0.3
v 0.2 -0.3 0.1
v 0.2 -0.3 -0.2
v 0.2 -0.1 0.1
v 0.2 -0.1 -0.2
v 0.2 0 0.1
v 0.2 0 -0.2
v -0.3 -0.3 0.2
v -0.3 -0.1 0.2
v -0.3 0 0.2
v -0.2 -0.1 0.2
v -0.2 0 0.2
v 0.1 -0.3 0.2
v 0.1 -0.1 0.2
v 0.1 0 0.2
v -0.4 -0.3 0.1
v -0.4 -0.2 0.1
v -0.4 -0.1 0.1
v -0.4 0 0.1
v -0.3 -0.3 0.1
v -0.3 -0.2 0.1
v -0.3 -0.1 0.1
v -0.3 0 0.1
v 0.1 -0.3 0.1
v 0.1 -0.1 0.1
v 0.1 0 0.1
v 0.2 -0.3 0.1
v 0.2 -0.1 0.1
v 0.2 0 0.1
v -0.4 -0.3 -0.2
v -0.4 -0.2 -0.2
v -0.4 -0.1 -0.2
v -0.4 0 -0.2
v -0.3 -0.3 -0.2
v -0.3 -0.2 -0.2
v -0.3 -0.1 -0.2
v -0.3 0 -0.2
v 0.1 -0.3 -0.2
v 0.1 -0.1 -0.2
v 0.1 0 -0.2
v 0.2 -0.3 -0.2
v 0.2 -0.1 -0.2
v 0.2 0 -0.2
v -0.3 -0.3 -0.3
v -0.3 -0.1 -0.3
v -0.3 0 -0.3
v -0.2 -0.1 -0.3
v -0.2 0 -0.3
v 0.1 -0.3 -0.3
v 0.1 -0.1 -0.3
v 0.1 0 -0.3
v -0.3 -0.3 0.2
v 0.1 -0.3 0.2
v -0.4 -0.3 0.1
v -0.3 -0.3 0.1
v 0.1 -0.3 0.1
v 0.2 -0.3 0.1
v -0.3 -0.3 0
v -0.2 -0.3 0
v 0 -0.3 0
v -0.3 -0.3 -0.1
v -0.2 -0.3 -0.1
v 0 -0.3 -0.1
v -0.4 -0.3 -0.2
v -0.3 -0.3 -0.2
v 0.1 -0.3 -0.2
v 0.2 -0.3 -0.2
v -0.3 -0.3 -0.3
v 0.1 -0.3 -0.3
v -0.3 0 0.2
v -0.2 0 0.2
v 0.1 0 0.2
v -0.4 0 0.1
v -0.3 0 0.1
v 0.1 0 0.1
v 0.2 0 0.1
v -0.4 0 0
v -0.2 0 0
v -0.4 0 -0.1
v -0.2 0 -0.1
v -0.4 0 -0.2
v -0.3 0 -0.2
v 0.1 0 -0.2
v 0.2 0 -0.2
v -0.3 0 -0.3
v -0.2 0 -0.3
v 0.1 0 -0.3

# faces
f 3/5/1 2/5/1 1/5/1
f 4/5/1 2/5/1 3/5/1
f 5/5/1 2/5/1 4/5/1
f 6/5/1 2/5/1 5/5/1
f 7/2/1 4/2/1 3/2/1
f 8/5/1 5/5/1 4/5/1
f 8/2/1 4/2/1 7/2/1
f 9/2/1 6/2/1 5/2/1
f 9/5/1 5/5/1 8/5/1
f 10/2/1 6/2/1 9/2/1
f 11/1/1 8/1/1 7/1/1
f 12/3/1 9/3/1 8/3/1
f 12/1/1 8/1/1 11/1/1
f 13/1/1 10/1/1 9/1/1
f 13/3/1 9/3/1 12/3/1
f 14/1/1 10/1/1 13/1/1
f 19/2/1 16/2/1 15/2/1
f 20/2/1 18/2/1 17/2/1
f 21/2/1 19/2/1 15/2/1
f 22/2/1 19/2/1 21/2/1
f 23/2/1 18/2/1 20/2/1
f 24/2/1 18/2/1 23/2/1
f 25/1/1 22/1/1 21/1/1
f 26/1/1 22/1/1 25/1/1
f 27/1/1 24/1/1 23/1/1
f 28/1/1 24/1/1 27/1/1
f 29/2/2 30/2/2 33/2/2
f 33/2/2 30/2/2 34/2/2
f 31/2/2 32/2/2 35/2/2
f 35/2/2 32/2/2 36/2/2
f 33/4/2 34/4/2 37/4/2
f 37/4/2 34/4/2 38/4/2
f 35/4/2 36/4/2 39/4/2
f 39/4/2 36/4/2 40/4/2
f 41/2/2 42/2/2 43/2/2
f 43/2/2 42/2/2 44/2/2
f 43/4/2 44/4/2 45/4/2
f 45/4/2 44/4/2 46/4/2
f 50/2/3 48/2/3 47/2/3
f 50/1/3 49/1/3 48/1/3
f 51/1/3 49/1/3 50/1/3
f 52/2/3 50/2/3 47/2/3
f 53/4/3 51/4/3 50/4/3
f 53/2/3 50/2/3 52/2/3
f 54/4/3 51/4/3 53/4/3
f 59/5/3 56/5/3 55/5/3
f 60/2/3 57/2/3 56/2/3
f 60/5/3 56/5/3 59/5/3
f 61/1/3 58/1/3 57/1/3
f 61/2/3 57/2/3 60/2/3
f 62/1/3 58/1/3 61/1/3
f 66/2/3 64/2/3 63/2/3
f 67/4/3 65/4/3 64/4/3
f 67/2/3 64/2/3 66/2/3
f 68/4/3 65/4/3 67/4/3
f 69/5/4 70/5/4 73/5/4
f 70/2/4 71/2/4 74/2/4
f 73/5/4 70/5/4 74/5/4
f 71/1/4 72/1/4 75/1/4
f 74/2/4 71/2/4 75/2/4
f 75/1/4 72/1/4 76/1/4
f 77/2/4 78/2/4 80/2/4
f 78/4/4 79/4/4 81/4/4
f 80/2/4 78/2/4 81/2/4
f 81/4/4 79/4/4 82/4/4
f 83/2/4 84/2/4 86/2/4
f 84/1/4 85/1/4 86/1/4
f 86/1/4 85/1/4 87/1/4
f 83/2/4 86/2/4 88/2/4
f 86/4/4 87/4/4 89/4/4
f 88/2/4 86/2/4 89/2/4
f 89/4/4 87/4/4 90/4/4
f 94/2/5 92/2/5 91/2/5
f 95/2/5 92/2/5 94/2/5
f 97/5/5 94/5/5 93/5/5
f 97/2/5 96/2/5 95/2/5
f 97/2/5 95/2/5 94/2/5
f 98/2/5 96/2/5 97/2/5
f 99/2/5 96/2/5 98/2/5
f 100/5/5 97/5/5 93/5/5
f 100/5/5 98/5/5 97/5/5
f 101/1/5 99/1/5 98/1/5
f 101/5/5 98/5/5 100/5/5
f 102/2/5 96/2/5 99/2/5
f 102/1/5 99/1/5 101/1/5
f 103/5/5 100/5/5 93/5/5
f 104/2/5 101/2/5 100/2/5
f 104/5/5 100/5/5 103/5/5
f 104/2/5 102/2/5 101/2/5
f 105/2/5 96/2/5 102/2/5
f 105/2/5 102/2/5 104/2/5
f 106/2/5 96/2/5 105/2/5
f 107/2/5 105/2/5 104/2/5
f 108/2/5 105/2/5 107/2/5
f 109/1/6 110/1/6 113/1/6
f 110/4/6 111/4/6 114/4/6
f 112/1/6 113/1/6 116/1/6
f 114/4/6 115/4/6 117/4/6
f 116/1/6 113/1/6 117/1/6
f 113/1/6 110/1/6 117/1/6
f 110/4/6 114/4/6 117/4/6
f 116/3/6 117/3/6 118/3/6
f 117/4/6 115/4/6 119/4/6
f 118/3/6 117/3/6 119/3/6
f 118/1/6 119/1/6 120/1/6
f 120/1/6 119/1/6 121/1/6
f 119/4/6 115/4/6 122/4/6
f 122/4/6 115/4/6 123/4/6
f 121/1/6 119/1/6 124/1/6
f 119/4/6 122/4/6 125/4/6
f 124/1/6 119/1/6 125/1/6
f 125/4/6 122/4/6 126/4/6
