# MagicaVoxel @ Ephtracy

# group
o 

# material
mtllib MaleFootLeft.mtl
usemtl palette

# normals
vn -1 0 0
vn 1 0 0
vn 0 0 1
vn 0 0 -1
vn 0 -1 0
vn 0 1 0

# texcoords
vt 0.00585938 0.5
vt 0.00976562 0.5
vt 0.0136719 0.5
vt 0.0253906 0.5
vt 0.0292969 0.5
vt 0.0332031 0.5
vt 0.0449219 0.5
vt 0.0488281 0.5
vt 0.978516 0.5

# verts
v -0.2 -0.3 0
v -0.2 -0.3 -0.2
v -0.2 -0.1 0
v -0.2 -0.1 -0.2
v -0.2 0 0
v -0.2 0 -0.2
v -0.1 -0.3 0.1
v -0.1 -0.3 0
v -0.1 -0.3 -0.2
v -0.1 -0.3 -0.3
v -0.1 -0.1 0.1
v -0.1 -0.1 0
v -0.1 -0.1 -0.2
v -0.1 -0.1 -0.3
v -0.1 0 0.1
v -0.1 0 0
v -0.1 0 -0.2
v -0.1 0 -0.3
v 0.2 -0.1 0.1
v 0.2 -0.1 0
v 0.2 -0.1 -0.2
v 0.2 -0.1 -0.3
v 0.2 0 0.1
v 0.2 0 0
v 0.2 0 -0.2
v 0.2 0 -0.3
v 0.3 -0.1 0
v 0.3 -0.1 -0.1
v 0.3 -0.1 -0.2
v 0.3 0 0
v 0.3 0 -0.1
v 0.3 0 -0.2
v 0.4 -0.3 0.1
v 0.4 -0.3 0
v 0.4 -0.1 0.1
v 0.4 -0.1 0
v 0.5 -0.3 0
v 0.5 -0.3 -0.3
v 0.5 -0.1 0
v 0.5 -0.1 -0.3
v -0.1 -0.3 0.1
v -0.1 -0.1 0.1
v -0.1 0 0.1
v 0 -0.3 0.1
v 0 -0.1 0.1
v 0 0 0.1
v 0.1 -0.1 0.1
v 0.1 0 0.1
v 0.2 -0.1 0.1
v 0.2 0 0.1
v 0.3 -0.3 0.1
v 0.3 -0.1 0.1
v 0.4 -0.3 0.1
v 0.4 -0.1 0.1
v -0.2 -0.3 0
v -0.2 -0.1 0
v -0.2 0 0
v -0.1 -0.3 0
v -0.1 -0.1 0
v -0.1 0 0
v 0.2 -0.1 0
v 0.2 0 0
v 0.3 -0.1 0
v 0.3 0 0
v 0.4 -0.3 0
v 0.4 -0.1 0
v 0.5 -0.3 0
v 0.5 -0.1 0
v -0.2 -0.3 -0.2
v -0.2 -0.1 -0.2
v -0.2 0 -0.2
v -0.1 -0.3 -0.2
v -0.1 -0.1 -0.2
v -0.1 0 -0.2
v 0.2 -0.1 -0.2
v 0.2 0 -0.2
v 0.3 -0.1 -0.2
v 0.3 0 -0.2
v -0.1 -0.3 -0.3
v -0.1 -0.1 -0.3
v -0.1 0 -0.3
v 0 -0.3 -0.3
v 0 -0.1 -0.3
v 0 0 -0.3
v 0.1 -0.1 -0.3
v 0.1 0 -0.3
v 0.2 -0.1 -0.3
v 0.2 0 -0.3
v 0.3 -0.3 -0.3
v 0.3 -0.1 -0.3
v 0.4 -0.3 -0.3
v 0.4 -0.1 -0.3
v 0.5 -0.3 -0.3
v 0.5 -0.1 -0.3
v -0.1 -0.3 0.1
v 0 -0.3 0.1
v 0.3 -0.3 0.1
v 0.4 -0.3 0.1
v -0.2 -0.3 0
v -0.1 -0.3 0
v 0 -0.3 0
v 0.3 -0.3 0
v 0.4 -0.3 0
v 0.5 -0.3 0
v -0.2 -0.3 -0.2
v -0.1 -0.3 -0.2
v 0 -0.3 -0.2
v 0.3 -0.3 -0.2
v 0.4 -0.3 -0.2
v -0.1 -0.3 -0.3
v 0 -0.3 -0.3
v 0.3 -0.3 -0.3
v 0.4 -0.3 -0.3
v 0.5 -0.3 -0.3
v 0.2 -0.1 0.1
v 0.3 -0.1 0.1
v 0.4 -0.1 0.1
v 0.2 -0.1 0
v 0.3 -0.1 0
v 0.4 -0.1 0
v 0.5 -0.1 0
v 0.3 -0.1 -0.1
v 0.2 -0.1 -0.2
v 0.3 -0.1 -0.2
v 0.4 -0.1 -0.2
v 0.2 -0.1 -0.3
v 0.3 -0.1 -0.3
v 0.4 -0.1 -0.3
v 0.5 -0.1 -0.3
v -0.1 0 0.1
v 0 0 0.1
v 0.1 0 0.1
v 0.2 0 0.1
v -0.2 0 0
v -0.1 0 0
v 0 0 0
v 0.1 0 0
v 0.2 0 0
v 0.3 0 0
v 0.2 0 -0.1
v 0.3 0 -0.1
v -0.2 0 -0.2
v -0.1 0 -0.2
v 0 0 -0.2
v 0.1 0 -0.2
v 0.2 0 -0.2
v 0.3 0 -0.2
v -0.1 0 -0.3
v 0 0 -0.3
v 0.1 0 -0.3
v 0.2 0 -0.3

# faces
f 3/8/1 2/8/1 1/8/1
f 4/8/1 2/8/1 3/8/1
f 5/7/1 4/7/1 3/7/1
f 6/7/1 4/7/1 5/7/1
f 11/6/1 8/6/1 7/6/1
f 12/6/1 8/6/1 11/6/1
f 13/6/1 10/6/1 9/6/1
f 14/6/1 10/6/1 13/6/1
f 15/5/1 12/5/1 11/5/1
f 16/5/1 12/5/1 15/5/1
f 17/2/1 14/2/1 13/2/1
f 18/2/1 14/2/1 17/2/1
f 19/9/2 20/9/2 23/9/2
f 23/9/2 20/9/2 24/9/2
f 21/5/2 22/5/2 25/5/2
f 25/5/2 22/5/2 26/5/2
f 27/9/2 28/9/2 30/9/2
f 28/3/2 29/3/2 31/3/2
f 30/9/2 28/9/2 31/9/2
f 31/3/2 29/3/2 32/3/2
f 33/6/2 34/6/2 35/6/2
f 35/6/2 34/6/2 36/6/2
f 37/9/2 38/9/2 39/9/2
f 39/9/2 38/9/2 40/9/2
f 44/6/3 42/6/3 41/6/3
f 45/5/3 43/5/3 42/5/3
f 45/6/3 42/6/3 44/6/3
f 46/5/3 43/5/3 45/5/3
f 47/1/3 45/1/3 44/1/3
f 47/4/3 46/4/3 45/4/3
f 48/4/3 46/4/3 47/4/3
f 49/1/3 47/1/3 44/1/3
f 49/9/3 48/9/3 47/9/3
f 50/9/3 48/9/3 49/9/3
f 51/1/3 49/1/3 44/1/3
f 52/1/3 49/1/3 51/1/3
f 53/6/3 52/6/3 51/6/3
f 54/6/3 52/6/3 53/6/3
f 58/8/3 56/8/3 55/8/3
f 59/7/3 57/7/3 56/7/3
f 59/8/3 56/8/3 58/8/3
f 60/7/3 57/7/3 59/7/3
f 63/9/3 62/9/3 61/9/3
f 64/9/3 62/9/3 63/9/3
f 67/9/3 66/9/3 65/9/3
f 68/9/3 66/9/3 67/9/3
f 69/8/4 70/8/4 72/8/4
f 70/7/4 71/7/4 73/7/4
f 72/8/4 70/8/4 73/8/4
f 73/7/4 71/7/4 74/7/4
f 75/3/4 76/3/4 77/3/4
f 77/3/4 76/3/4 78/3/4
f 79/6/4 80/6/4 82/6/4
f 80/2/4 81/2/4 83/2/4
f 82/6/4 80/6/4 83/6/4
f 83/2/4 81/2/4 84/2/4
f 82/1/4 83/1/4 85/1/4
f 83/6/4 84/6/4 85/6/4
f 85/6/4 84/6/4 86/6/4
f 82/1/4 85/1/4 87/1/4
f 85/5/4 86/5/4 87/5/4
f 87/5/4 86/5/4 88/5/4
f 82/1/4 87/1/4 89/1/4
f 89/1/4 87/1/4 90/1/4
f 89/6/4 90/6/4 91/6/4
f 91/6/4 90/6/4 92/6/4
f 91/9/4 92/9/4 93/9/4
f 93/9/4 92/9/4 94/9/4
f 100/6/5 96/6/5 95/6/5
f 101/1/5 97/1/5 96/1/5
f 101/6/5 96/6/5 100/6/5
f 102/6/5 98/6/5 97/6/5
f 102/1/5 97/1/5 101/1/5
f 103/6/5 98/6/5 102/6/5
f 105/8/5 101/8/5 100/8/5
f 105/8/5 100/8/5 99/8/5
f 105/8/5 102/8/5 101/8/5
f 106/8/5 102/8/5 105/8/5
f 107/8/5 102/8/5 106/8/5
f 108/1/5 103/1/5 102/1/5
f 108/8/5 102/8/5 107/8/5
f 109/9/5 104/9/5 103/9/5
f 109/1/5 103/1/5 108/1/5
f 110/6/5 107/6/5 106/6/5
f 111/1/5 108/1/5 107/1/5
f 111/6/5 107/6/5 110/6/5
f 112/6/5 109/6/5 108/6/5
f 112/1/5 108/1/5 111/1/5
f 113/9/5 104/9/5 109/9/5
f 113/6/5 109/6/5 112/6/5
f 114/9/5 104/9/5 113/9/5
f 115/1/6 116/1/6 118/1/6
f 116/6/6 117/6/6 119/6/6
f 118/1/6 116/1/6 119/1/6
f 119/6/6 117/6/6 120/6/6
f 119/1/6 120/1/6 122/1/6
f 122/1/6 120/1/6 124/1/6
f 120/9/6 121/9/6 125/9/6
f 124/1/6 120/1/6 125/1/6
f 123/1/6 124/1/6 126/1/6
f 124/6/6 125/6/6 127/6/6
f 126/1/6 124/1/6 127/1/6
f 125/9/6 121/9/6 128/9/6
f 127/6/6 125/6/6 128/6/6
f 128/9/6 121/9/6 129/9/6
f 130/5/6 131/5/6 135/5/6
f 131/4/6 132/4/6 136/4/6
f 135/5/6 131/5/6 136/5/6
f 132/9/6 133/9/6 137/9/6
f 136/4/6 132/4/6 137/4/6
f 137/9/6 133/9/6 138/9/6
f 137/3/6 138/3/6 140/3/6
f 138/9/6 139/9/6 140/9/6
f 140/9/6 139/9/6 141/9/6
f 134/7/6 135/7/6 142/7/6
f 135/3/6 136/3/6 143/3/6
f 142/7/6 135/7/6 143/7/6
f 136/1/6 137/1/6 144/1/6
f 143/3/6 136/3/6 144/3/6
f 137/3/6 140/3/6 145/3/6
f 144/1/6 137/1/6 145/1/6
f 140/3/6 141/3/6 145/3/6
f 145/3/6 141/3/6 146/3/6
f 146/3/6 141/3/6 147/3/6
f 143/2/6 144/2/6 148/2/6
f 144/6/6 145/6/6 149/6/6
f 148/2/6 144/2/6 149/2/6
f 145/5/6 146/5/6 150/5/6
f 149/6/6 145/6/6 150/6/6
f 150/5/6 146/5/6 151/5/6
