# MagicaVoxel @ Ephtracy

# group
o 

# material
mtllib HandRight.mtl
usemtl palette

# normals
vn -1 0 0
vn 1 0 0
vn 0 0 1
vn 0 0 -1
vn 0 -1 0
vn 0 1 0

# texcoords
vt 0.00585938 0.5
vt 0.00976562 0.5
vt 0.978516 0.5

# verts
v -0.3 -0.5 -0.4
v -0.3 -0.5 -0.7
v -0.3 -0.4 -0.7
v -0.3 -0.4 -0.8
v -0.3 -0.3 -0.4
v -0.3 -0.3 -0.5
v -0.3 -0.3 -0.7
v -0.3 -0.2 -0.7
v -0.3 -0.2 -0.8
v -0.3 -0.1 -0.5
v -0.3 -0.1 -0.7
v -0.2 -0.5 -0.7
v -0.2 -0.5 -0.8
v -0.2 -0.4 -0.7
v -0.2 -0.4 -0.8
v -0.1 -0.3 -0.4
v -0.1 -0.3 -0.5
v -0.1 -0.1 -0.4
v -0.1 -0.1 -0.5
v 0 -0.5 -0.7
v 0 -0.5 -0.8
v 0 -0.4 -0.7
v 0 -0.4 -0.8
v -0.1 -0.5 -0.7
v -0.1 -0.5 -0.8
v -0.1 -0.4 -0.7
v -0.1 -0.4 -0.8
v 0 -0.3 -0.4
v 0 -0.3 -0.5
v 0 -0.2 -0.5
v 0 -0.1 -0.4
v 0 -0.1 -0.5
v 0.1 -0.5 -0.4
v 0.1 -0.5 -0.8
v 0.1 -0.3 -0.4
v 0.1 -0.3 -0.5
v 0.1 -0.3 -0.7
v 0.1 -0.2 -0.5
v 0.1 -0.2 -0.7
v 0.1 -0.2 -0.8
v 0.1 -0.1 -0.5
v 0.1 -0.1 -0.7
v -0.3 -0.5 -0.4
v -0.3 -0.3 -0.4
v -0.1 -0.3 -0.4
v -0.1 -0.1 -0.4
v 0 -0.3 -0.4
v 0 -0.1 -0.4
v 0.1 -0.5 -0.4
v 0.1 -0.3 -0.4
v -0.3 -0.3 -0.5
v -0.3 -0.1 -0.5
v -0.1 -0.3 -0.5
v -0.1 -0.1 -0.5
v 0 -0.3 -0.5
v 0 -0.2 -0.5
v 0 -0.1 -0.5
v 0.1 -0.3 -0.5
v 0.1 -0.2 -0.5
v 0.1 -0.1 -0.5
v -0.3 -0.5 -0.7
v -0.3 -0.4 -0.7
v -0.3 -0.2 -0.7
v -0.3 -0.1 -0.7
v -0.2 -0.5 -0.7
v -0.2 -0.4 -0.7
v -0.1 -0.5 -0.7
v -0.1 -0.4 -0.7
v -0.1 -0.2 -0.7
v -0.1 -0.1 -0.7
v 0 -0.5 -0.7
v 0 -0.4 -0.7
v 0 -0.2 -0.7
v 0 -0.1 -0.7
v 0.1 -0.2 -0.7
v 0.1 -0.1 -0.7
v -0.3 -0.4 -0.8
v -0.3 -0.2 -0.8
v -0.2 -0.5 -0.8
v -0.2 -0.4 -0.8
v -0.1 -0.5 -0.8
v -0.1 -0.4 -0.8
v 0 -0.5 -0.8
v 0 -0.4 -0.8
v 0.1 -0.5 -0.8
v 0.1 -0.2 -0.8
v -0.3 -0.5 -0.4
v 0.1 -0.5 -0.4
v -0.3 -0.5 -0.7
v -0.2 -0.5 -0.7
v -0.1 -0.5 -0.7
v 0 -0.5 -0.7
v -0.2 -0.5 -0.8
v -0.1 -0.5 -0.8
v 0 -0.5 -0.8
v 0.1 -0.5 -0.8
v -0.3 -0.4 -0.7
v -0.2 -0.4 -0.7
v -0.1 -0.4 -0.7
v 0 -0.4 -0.7
v -0.3 -0.4 -0.8
v -0.2 -0.4 -0.8
v -0.1 -0.4 -0.8
v 0 -0.4 -0.8
v -0.3 -0.3 -0.4
v -0.1 -0.3 -0.4
v 0 -0.3 -0.4
v 0.1 -0.3 -0.4
v -0.3 -0.3 -0.5
v -0.1 -0.3 -0.5
v 0 -0.3 -0.5
v 0.1 -0.3 -0.5
v -0.3 -0.2 -0.7
v -0.1 -0.2 -0.7
v 0 -0.2 -0.7
v 0.1 -0.2 -0.7
v -0.3 -0.2 -0.8
v 0.1 -0.2 -0.8
v -0.1 -0.1 -0.4
v 0 -0.1 -0.4
v -0.3 -0.1 -0.5
v -0.1 -0.1 -0.5
v 0 -0.1 -0.5
v 0.1 -0.1 -0.5
v -0.3 -0.1 -0.7
v -0.1 -0.1 -0.7
v 0 -0.1 -0.7
v 0.1 -0.1 -0.7

# faces
f 3/3/1 2/3/1 1/3/1
f 5/3/1 3/3/1 1/3/1
f 5/3/1 4/3/1 3/3/1
f 6/3/1 4/3/1 5/3/1
f 7/3/1 4/3/1 6/3/1
f 8/3/1 4/3/1 7/3/1
f 8/1/1 7/1/1 6/1/1
f 9/3/1 4/3/1 8/3/1
f 10/1/1 8/1/1 6/1/1
f 11/1/1 8/1/1 10/1/1
f 14/3/1 13/3/1 12/3/1
f 15/3/1 13/3/1 14/3/1
f 18/2/1 17/2/1 16/2/1
f 19/2/1 17/2/1 18/2/1
f 22/3/1 21/3/1 20/3/1
f 23/3/1 21/3/1 22/3/1
f 24/3/2 25/3/2 26/3/2
f 26/3/2 25/3/2 27/3/2
f 28/2/2 29/2/2 30/2/2
f 28/2/2 30/2/2 31/2/2
f 31/2/2 30/2/2 32/2/2
f 33/3/2 34/3/2 35/3/2
f 35/3/2 34/3/2 36/3/2
f 36/3/2 34/3/2 37/3/2
f 36/2/2 37/2/2 38/2/2
f 37/3/2 34/3/2 39/3/2
f 38/2/2 37/2/2 39/2/2
f 39/3/2 34/3/2 40/3/2
f 38/1/2 39/1/2 41/1/2
f 41/1/2 39/1/2 42/1/2
f 45/3/3 44/3/3 43/3/3
f 47/3/3 45/3/3 43/3/3
f 47/2/3 46/2/3 45/2/3
f 48/2/3 46/2/3 47/2/3
f 49/3/3 47/3/3 43/3/3
f 50/3/3 47/3/3 49/3/3
f 53/1/3 52/1/3 51/1/3
f 54/1/3 52/1/3 53/1/3
f 58/2/3 56/2/3 55/2/3
f 59/1/3 57/1/3 56/1/3
f 59/2/3 56/2/3 58/2/3
f 60/1/3 57/1/3 59/1/3
f 61/3/4 62/3/4 65/3/4
f 65/3/4 62/3/4 66/3/4
f 63/1/4 64/1/4 69/1/4
f 69/1/4 64/1/4 70/1/4
f 67/3/4 68/3/4 71/3/4
f 71/3/4 68/3/4 72/3/4
f 69/2/4 70/2/4 73/2/4
f 73/2/4 70/2/4 74/2/4
f 73/1/4 74/1/4 75/1/4
f 75/1/4 74/1/4 76/1/4
f 77/3/4 78/3/4 80/3/4
f 79/3/4 80/3/4 81/3/4
f 80/3/4 78/3/4 82/3/4
f 81/3/4 80/3/4 82/3/4
f 82/3/4 78/3/4 84/3/4
f 83/3/4 84/3/4 85/3/4
f 84/3/4 78/3/4 86/3/4
f 85/3/4 84/3/4 86/3/4
f 89/3/5 88/3/5 87/3/5
f 90/3/5 88/3/5 89/3/5
f 91/3/5 88/3/5 90/3/5
f 92/3/5 88/3/5 91/3/5
f 93/3/5 91/3/5 90/3/5
f 94/3/5 91/3/5 93/3/5
f 95/3/5 88/3/5 92/3/5
f 96/3/5 88/3/5 95/3/5
f 101/3/5 98/3/5 97/3/5
f 102/3/5 98/3/5 101/3/5
f 103/3/5 100/3/5 99/3/5
f 104/3/5 100/3/5 103/3/5
f 105/3/6 106/3/6 109/3/6
f 109/3/6 106/3/6 110/3/6
f 107/3/6 108/3/6 111/3/6
f 111/3/6 108/3/6 112/3/6
f 113/3/6 114/3/6 117/3/6
f 115/3/6 116/3/6 117/3/6
f 114/3/6 115/3/6 117/3/6
f 117/3/6 116/3/6 118/3/6
f 119/2/6 120/2/6 122/2/6
f 122/2/6 120/2/6 123/2/6
f 121/1/6 122/1/6 125/1/6
f 122/2/6 123/2/6 126/2/6
f 125/1/6 122/1/6 126/1/6
f 123/1/6 124/1/6 127/1/6
f 126/2/6 123/2/6 127/2/6
f 127/1/6 124/1/6 128/1/6
